<svg xmlns="http://www.w3.org/2000/svg" width="330" height="544" viewBox="0 0 330 544" xmlns:xlink="http://www.w3.org/1999/xlink">
  <defs>
    <polygon id="a" points=".744 .873 1122.465 .873 1122.465 354.829 .744 354.829 .744 .873"/>
    <polygon id="c" points="962.029 1405.918 1438.505 1405.918 1438.505 .84 .082 .84 .082 1405.918 962.029 1405.918 962.029 440.224 .077 440.224 .077 1405.929 962.029 1405.929"/>
  </defs>
  <g fill="none" fill-rule="evenodd" transform="translate(-554 -331)" opacity=".073">
    <path fill="#000000" d="M676.211379,352.675325 C682.261991,348.618781 693.542792,346.667532 710.720376,346.667532 C726.718603,346.667532 745.947241,348.413387 762.868443,349.953846 C773.636481,350.929471 783.891754,351.853746 792.506184,352.264535 C828.86113,354.061738 863.165021,355.858941 889.367246,378.606394 C906.237171,393.189411 919.825409,408.337263 915.518194,445.873127 C913.569692,462.920879 905.724407,483.614386 897.417636,505.54026 C895.981897,509.391409 894.494883,513.242557 893.059144,517.145055 C892.187446,519.404396 891.315748,521.715085 890.546602,524.025774 C883.060252,544.205794 876.59943,561.664336 863.985443,576.606793 C849.576783,593.705894 830.450698,602.383816 807.068673,602.383816 C768.713949,602.383816 728.461999,579.37962 703.644237,557.813187 C666.673975,525.874326 661.956549,480.944256 656.880188,433.446753 L656.213595,427.84975 C653.75233,410.904695 650.727024,369.569031 676.211379,352.675325 Z M656.162319,433.498102 C661.289956,481.14965 666.109935,526.182418 703.182749,558.378022 C728.154341,579.995804 768.457567,603 807.068673,603 C830.604527,603 849.935718,594.270729 864.549483,577.017582 C877.16347,562.023776 883.675569,544.513886 891.110642,524.231169 C891.931064,521.971828 892.802762,519.712488 893.623184,517.35045 C895.161475,513.447952 896.597214,509.596803 898.032952,505.745654 C906.339724,483.81978 914.236285,463.126274 916.184787,445.924476 C920.543278,408.080519 906.801211,392.82997 889.828733,378.092907 C863.370127,355.191409 828.963683,353.496903 792.557461,351.597003 C783.943031,351.186214 773.687757,350.261938 762.919719,349.286314 C745.947241,347.694505 726.769879,346 710.720376,346 C693.388963,346 682.005609,347.951249 675.852445,352.059141 C650.009155,369.20959 653.137013,410.904695 655.598279,427.952448 L656.162319,433.498102 Z"/>
    <path fill="#000000" d="M698.433506,387.05384 C709.472337,369.92345 731.193907,367.666752 748.794991,367.666752 C754.950284,367.666752 761.054707,367.974483 767.31174,368.384792 C795.493823,369.92345 822.200671,371.308242 843.108318,385.97678 C865.745552,401.927533 878.107007,431.828783 876.0722,465.833121 C874.342613,495.375351 863.202042,536.970401 837.614338,556.921664 C828.712055,563.845624 817.368004,567.435825 803.887404,567.435825 C776.722724,567.435825 749.201953,553.075019 733.890027,540.868334 C701.231367,514.711151 697.568713,481.065833 693.092137,438.547589 C693.041266,435.93187 692.990396,433.316152 692.837786,430.649145 C692.481694,415.672876 692.074733,400.18372 698.433506,387.05384 M692.379954,438.598877 C696.80566,479.681041 700.570054,515.12146 733.533935,541.432508 C748.845862,553.690482 776.519243,568 803.887404,568 C817.520614,568 828.966406,564.461087 838.07217,557.383261 C863.812484,537.329421 875.003926,495.529217 876.784382,465.884409 C878.81919,431.623628 866.355994,401.517224 843.46441,385.515182 C822.455022,370.744067 795.697304,369.20541 767.31174,367.666752 C761.105577,367.35902 754.950284,367 748.794991,367 C731.041296,367 709.065375,369.256698 697.823064,386.746109 C691.36255,400.029855 691.769512,415.621587 692.227343,430.649145 C692.278214,433.316152 692.329084,435.93187 692.379954,438.598877"/>
    <path fill="#000000" d="M759.039597 396.879279C763.947573 396.066618 768.70056 395.711078 773.401884 395.711078 793.343765 395.711078 807.29275 402.923445 815.507151 409.018403 829.817776 419.73537 840.150357 438.071034 843.870086 459.352595 847.486489 480.227825 843.818423 500.493559 834.002471 513.800883 825.064789 525.940007 812.355714 532.288922 797.373472 532.288922 785.95597 532.288922 773.453547 528.479573 762.397686 521.41958 732.94983 502.626794 727.990191 464.787265 727.731877 443.912035 727.318573 416.6371 738.219446 400.333088 759.039597 396.879279M762.087708 521.978285C773.246895 529.13986 785.800981 533 797.373472 533 812.665692 533 825.478092 526.498712 834.622426 514.156423 855.804217 485.408539 846.194917 431.112624 815.868792 408.51049 807.602727 402.313949 793.550417 395 773.401884 395 768.70056 395 763.844247 395.406331 758.936271 396.218992 737.702817 399.774384 726.646956 416.281561 727.008596 443.912035 727.318573 464.888848 732.278212 502.982333 762.087708 521.978285M558.882055 680.286914C532.004891 680.286914 500.477875 667.655107 482.389441 649.573286 474.878143 642.187754 469.155248 633.223246 463.483451 624.004064 450.862425 603.324573 439.314442 580.862368 429.146085 557.07586 429.299377 554.936603 428.839502 552.950149 428.328529 551.1165 428.021945 549.894067 427.766459 548.671634 427.613167 547.55107 429.861447 522.338391 464.658688 493.713086 493.017674 493.713086 495.52144 493.713086 497.923012 493.916825 500.171292 494.375237 510.544037 496.514495 524.084814 504.714982 540.487038 518.823896 564.349463 539.503387 597.307203 575.972636 611.307855 610.811975 613.045162 614.988621 615.089053 620.234896 615.753318 624.61528 618.51257 642.187754 611.716633 657.264427 595.67209 669.335952 586.065803 676.568681 573.700264 680.286914 558.882055 680.286914M616.366485 624.513411C615.70222 620.082092 613.65833 614.784882 611.97212 610.557302 597.92037 575.616093 564.860436 539.044974 540.844719 518.314549 524.391398 504.154701 510.748427 495.852344 500.273486 493.764021 498.025206 493.254674 495.572537 493 493.017674 493 464.352105 493 429.197183 522.083717 427 547.55107 427.102195 548.773503 427.408778 550.046871 427.766459 551.269304 428.12414 553.153888 428.635113 555.038472 428.430724 557.07586L428.430724 557.17773 428.481821 557.228664C438.650178 581.117041 450.300355 603.630182 462.921381 624.258737 468.593178 633.630723 474.36717 642.595232 481.878469 650.082633 500.120194 668.266323 531.851599 681 558.882055 681 573.853556 681 586.372387 677.179897 596.131966 669.896234 612.380898 657.62097 619.227932 642.340558 616.366485 624.513411"/>
    <path fill="#000000" d="M579.533458 626.95122C575.876988 641.185741 563.5364 649.290807 545.558754 649.290807 530.475814 649.290807 513.666207 643.465291 502.646011 634.499062 485.328561 620.365854 479.488366 600.305816 473.698954 575.534709 473.241895 564.896811 476.085817 555.879925 481.621307 550.003752 486.293463 545.19137 492.793855 542.709193 500.817776 542.709193 503.001502 542.709193 505.388364 542.91182 507.876795 543.317073 535.351108 547.724203 575.166008 581.968105 579.888949 612.412758 580.49836 616.617261 580.650713 622.746717 579.533458 626.95122M552.617773 567.227017C538.296598 554.157598 521.233069 544.73546 507.978364 542.658537 505.489933 542.202627 503.10307 542 500.817776 542 492.590718 542 485.988757 544.58349 481.164248 549.649156 475.425621 555.525328 472.632484 564.744841 473.038758 575.636023 478.878954 600.559099 484.71915 620.771107 502.290521 635.005629 513.310717 644.123827 530.374245 650 545.558754 650 563.790322 650 576.435615 641.641651 580.244439 627.153846 581.310909 622.84803 581.107772 616.617261 580.49836 612.311445 578.314635 597.874296 568.106988 581.461538 552.617773 567.227017M721.365898 810.040804C718.834542 815.793138 716.199866 821.750914 713.77183 828.838611 709.587344 840.908242 707.882553 853.029233 706.177762 864.739342 704.26633 878.144336 702.458218 890.727568 697.188865 901.153674L696.46562 902.386317C690.782984 910.809379 685.926913 918.051157 678.591147 923.598051 669.292287 930.634389 656.893809 934.280958 642.790539 934.280958 621.196522 934.280958 599.499184 925.241575 587.668969 911.32298 579.403316 901.461835 576.097055 889.751726 578.318449 877.373934 582.089653 859.91149 596.761187 849.690824 612.207625 838.905197 626.465875 828.992692 641.085748 818.720666 646.665064 802.439505 650.281287 791.756598 648.524835 779.738327 646.665064 767.052375 644.598651 753.390581 642.532237 739.317905 647.491629 726.734673 654.517434 708.707268 675.801489 690.525782 696.930563 684.413926 701.011729 683.232643 704.679612 682.719042 708.502477 682.719042 710.155607 682.719042 711.860398 682.770402 713.72017 683.027203 726.945214 693.556029 730.768078 719.236094 732.57619 740.447828 735.624149 777.529842 729.063287 792.57836 721.365898 810.040804M714.081792 682.462241L713.978471 682.410881 713.823491 682.359521C711.963719 682.10272 710.207268 682 708.502477 682 704.627952 682 700.908408 682.616322 696.775582 683.746244 675.439867 689.90946 653.94917 708.347747 646.871705 726.477873 641.808993 739.266545 643.927066 753.390581 645.941819 767.103735 647.801591 779.789687 649.558042 791.705238 646.04514 802.182704 640.569145 818.309785 625.949272 828.479091 611.846002 838.340235 596.916167 848.766342 581.469729 859.500609 577.698525 877.271214 575.425471 889.854446 578.731732 901.769996 587.152365 911.682501 599.085901 925.806537 620.93822 935 642.790539 935 657.04879 935 669.550589 931.14799 679.004429 924.111652 686.391856 918.513398 691.557889 910.860739 696.930563 902.797199L697.808789 901.461835C703.129803 890.933009 704.937914 878.298417 706.849346 864.790702 708.502477 853.131953 710.207268 841.062322 714.391754 829.044052 716.87145 821.956354 719.506127 815.998579 722.037483 810.348965 729.734872 792.83516 736.347394 777.632562 733.196114 740.396468 731.336342 719.030654 727.565138 693.093788 714.081792 682.462241M562.506304 365.664341C568.531966 360.519191 575.527861 355.730635 581.196068 351.757153 583.749314 349.97418 585.945106 348.445918 587.732378 347.121424 595.698507 341.263084 603.051857 334.946267 610.149881 328.935101 623.886347 317.167481 636.907903 306.062107 651.461408 300.713189 658.661563 298.115143 666.219172 296.739707 674.59382 296.739707 689.862233 296.739707 705.488101 301.120726 720.654384 305.39986 729.386487 307.84508 738.271784 310.341242 747.003887 311.971389 758.187106 314.009072 769.676715 315.078856 781.217388 315.078856 790.409075 315.078856 799.805022 314.416609 809.047774 313.041172 840.146315 308.558269 871.857634 296.739707 908.930772 276.006281 916.743706 271.625262 924.403445 266.581996 931.807859 261.742498 939.416533 256.64829 947.382662 251.50314 955.450921 247.020237 958.770141 245.237264 962.293621 243.91277 965.714971 242.792045 968.472477 241.824145 971.281048 240.907188 973.987489 239.582694 976.438606 238.461968 978.838657 237.137474 981.085514 235.914864 986.447332 233.011165 991.40063 230.260293 997.528421 229.088625 1002.43065 228.171668 1008.20099 227.611305 1013.66494 227.611305 1019.07782 227.611305 1026.94182 228.171668 1033.58026 230.464061 1053.54665 237.443126 1071.57257 249.465457 1086.48352 260.265178 1090.10913 262.863224 1093.78581 265.665038 1097.30929 268.466853 1101.70087 271.778088 1106.14352 275.293091 1110.73936 278.502442 1114.82456 281.304257 1119.31827 283.443824 1123.65879 285.481507 1127.48866 287.26448 1131.52279 289.098395 1135.1484 291.492673 1155.77863 304.737613 1173.70242 323.891835 1188.35805 348.394976 1202.24771 371.77739 1210.82662 390.218423 1193.9752 414.772505 1188.81764 422.362875 1182.58772 424.604327 1173.65136 427.202373 1164.10221 430.055129 1153.94029 430.411724 1144.18689 430.921144 1132.69728 431.379623 1120.90129 431.939986 1110.02446 436.168179 1104.30518 438.358688 1099.35189 441.720865 1094.80711 445.0321 1093.47942 445.898116 1092.30493 446.866015 1091.13043 447.732031 1086.27926 451.348918 1081.2749 455.06769 1075.86202 457.76762 1067.69163 461.741103 1059.52124 466.071179 1051.65724 470.24843 1046.60182 472.897418 1041.39319 475.750174 1036.18457 478.399163 1024.18431 484.614096 1012.03086 490.981856 1000.28593 497.19679 993.494292 500.813678 986.804786 504.430565 980.013151 507.945569L979.911021 507.996511C979.655696 508.251221 979.298242 508.607816 979.042917 508.96441 946.361364 526.997906 933.799391 555.627355 925.067289 583.900209 924.403445 585.988835 923.739601 588.07746 923.126822 590.115143 917.20329 609.88067 911.586148 628.525471 891.364437 638.815771 881.457841 643.960921 863.636181 648.902303 838.359042 653.385206 802.766788 659.85485 769.31926 661.841591 730.612045 664.133985L727.956669 664.286811C717.999008 657.919051 711.973347 648.698535 705.590231 638.764829 702.526335 634.027216 699.36031 629.085834 695.683635 624.551989 688.074961 615.076762 678.627949 605.703419 668.670288 595.871598 658.253043 585.37753 647.376214 574.679693 638.541981 563.523378 615.256374 534.384508 599.221987 498.011863 583.749314 462.91277 581.196068 457.156315 578.591756 451.247034 576.089575 445.592463 573.076744 439.020935 569.604329 432.398465 566.182979 425.979763 560.565837 415.180042 555.20402 405.09351 552.140124 395.210747 548.565579 383.595953 551.47628 375.037683 562.506304 365.664341M565.67233 426.234473C569.042615 432.653175 572.51503 439.275645 575.425731 445.847174 578.030042 451.501745 580.583289 457.411026 583.136535 463.167481 598.660273 498.317516 614.643595 534.741103 638.031332 563.981856 646.916629 575.138172 657.742394 585.836008 668.159639 596.279135 678.21943 606.21284 687.615376 615.484299 695.172986 624.959525 698.84966 629.442428 701.964621 634.332868 705.028517 639.121424 711.462697 649.055129 717.539424 658.479414 727.650279 664.949058L727.752409 665 730.66311 664.796232C769.370325 662.503838 802.817853 660.517097 838.461172 654.047453 863.789376 649.462666 881.76423 644.572226 891.670826 639.478018 912.198927 628.98395 917.765004 610.237264 923.739601 590.318911 924.403445 588.281228 925.067289 586.192603 925.629003 584.103978 934.310041 555.933008 946.872013 527.405443 979.451437 509.524773L979.553566 509.371947C979.808891 509.066294 980.064216 508.811584 980.370605 508.505932 987.060111 504.939986 993.800681 501.37404 1000.59232 497.808095 1012.38831 491.644103 1024.54177 485.174459 1036.54203 479.010468 1041.75065 476.310537 1046.85714 473.508723 1051.96363 470.859735 1059.82763 466.631542 1067.99802 462.301465 1076.11734 458.277041 1081.68342 455.628053 1086.63672 451.858339 1091.48789 448.292394 1092.71345 447.375436 1093.939 446.458479 1095.16456 445.541521 1099.65828 442.281228 1104.61157 438.919051 1110.33085 436.779484 1121.00342 432.551291 1132.79941 432.092812 1144.18689 431.532449 1154.04242 431.124913 1164.20434 430.615492 1173.80455 427.86462 1182.89411 425.215632 1189.22616 422.872296 1194.53691 415.1291 1211.64366 390.218423 1202.96262 371.624564 1188.97083 348.089323 1174.21307 323.433357 1156.23822 304.177251 1135.55692 290.93231 1131.82918 288.538032 1127.79505 286.653175 1123.91412 284.870202 1119.5736 282.832519 1115.13095 280.743894 1111.14788 277.94208 1106.50098 274.783671 1102.00726 271.268667 1097.66674 267.90649 1094.14326 265.155618 1090.56872 262.353803 1086.89204 259.653873 1071.87896 248.854152 1053.9041 236.882763 1033.78452 229.801814 1027.09501 227.458479 1019.12889 227 1013.66494 227 1008.14993 227 1002.32852 227.509421 997.426291 228.47732 991.19637 229.648988 986.140942 232.39986 980.779125 235.303559 978.532268 236.577111 976.183281 237.850663 973.732165 239.073273 971.025724 240.244941 968.217153 241.21284 965.561776 242.129798 961.987231 243.352408 958.463751 244.575017 955.144531 246.408932 946.974143 250.891835 939.059079 256.13887 931.450405 261.182135 924.04599 266.072575 916.437316 271.115841 908.573317 275.445918 871.60231 296.230286 839.89099 307.896022 808.996709 312.378925 799.753957 313.703419 790.409075 314.416609 781.217388 314.416609 769.72778 314.416609 758.238171 313.397767 747.106017 311.309142 738.424979 309.678995 729.539682 307.233775 720.858644 304.788555 705.641296 300.560363 689.964363 296.179344 674.59382 296.179344 666.117042 296.179344 658.508368 297.401954 651.257148 300.101884 636.601514 305.450803 623.528892 316.607118 609.690297 328.476622 602.592272 334.487788 595.341053 340.702722 587.374924 346.612003 585.587651 347.885555 583.340795 349.464759 580.787548 351.19679 575.170406 355.170272 568.123446 360.060712 562.097785 365.103978 550.863501 374.732031 547.799605 383.494068 551.47628 395.465457 554.59124 405.297278 559.901993 415.536636 565.67233 426.234473"/>
    <path fill="#000000" d="M612.737536 389.357143C616.966559 363.030612 639.894994 329.408163 667.358166 321.091837 673.013846 319.459184 678.822384 318.591837 685.34425 318.591837 697.267036 318.591837 709.189823 321.44898 719.685952 324 724.526399 325.173469 729.213991 326.295918 733.544917 327.061224 748.168164 329.663265 764.167117 330.836735 783.936524 330.836735 794.789317 330.836735 805.794967 330.530612 816.494903 330.173469 827.245792 329.816327 838.404298 329.459184 849.460899 329.459184 867.141271 329.459184 881.764518 330.428571 895.368723 332.367347 898.629656 332.928571 901.941541 333.387755 905.049618 333.897959 915.494795 335.530612 925.379498 337.112245 935.111345 337.112245 948.20603 337.112245 959.109775 334.153061 969.249239 327.826531 978.879182 321.806122 986.623898 319.102041 996.100985 318.387755 1001.80762 317.979592 1007.66711 317.418367 1013.37374 316.806122 1023.4113 315.785714 1033.85648 314.714286 1043.94499 314.714286L1044.40356 314.714286C1067.23009 314.765306 1122.76786 323.030612 1138.81776 347.214286 1144.16773 355.22449 1144.7282 364.459184 1140.49918 374.612245 1134.79255 388.285714 1117.26503 396.653061 1104.01749 399.612245 1101.46989 400.173469 1098.87133 400.734694 1096.27277 401.295918 1077.93003 405.27551 1062.18583 408.132653 1048.12306 410.122449 1044.45451 410.632653 1040.73501 410.989796 1037.21931 411.295918 1027.94603 412.163265 1019.18228 412.979592 1010.11281 416.959184 960.128817 438.846939 927.315677 497.163265 908.51436 542.316327 894.298729 576.5 882.019278 606.040816 848.49281 619.918367 835.75479 625.173469 817.412041 628.336735 799.2731 628.336735L799.222148 628.336735C785.617943 628.336735 772.930875 626.55102 762.485699 623.285714 741.69725 616.704082 722.997837 602.928571 701.190347 586.908163L700.273209 586.142857C660.072018 556.602041 640.098803 526.959184 626.647454 476.908163L625.373652 471.959184C620.787965 455.122449 616.50799 439.204082 613.450865 421.142857 611.36183 409.306122 611.158021 399.153061 612.737536 389.357143M624.711275 472.112245L626.036029 477.061224C639.487378 527.265306 659.511545 557.061224 699.916545 586.704082L700.833682 587.469388C722.59022 603.387755 741.391538 617.265306 762.332842 623.897959 772.778019 627.265306 785.566991 629 799.222148 629L799.2731 629C817.462993 629 835.958598 625.836735 848.74757 620.530612 882.528799 606.55102 894.910154 576.959184 909.125785 542.571429 927.87615 497.571429 960.638337 439.357143 1010.36757 417.571429 1019.33513 413.642857 1028.04794 412.826531 1037.27027 411.959184 1040.78596 411.653061 1044.50546 411.295918 1048.22496 410.785714 1062.28774 408.795918 1078.03193 405.887755 1096.37468 401.908163 1098.97323 401.397959 1101.57179 400.836735 1104.17035 400.22449 1117.57074 397.214286 1135.35302 388.744898 1141.16156 374.816327 1145.49248 364.510204 1144.83011 355.071429 1139.42919 346.857143 1123.22642 322.418367 1067.33199 314.05102 1044.40356 314L1043.94499 314C1033.80552 314 1023.4113 315.071429 1013.32279 316.091837 1007.61616 316.704082 1001.75667 317.367347 996.050033 317.72449 986.42009 318.387755 978.57347 321.142857 968.841622 327.214286 958.855015 333.489796 948.104126 336.5 935.111345 336.5 925.43045 336.5 915.545747 334.918367 905.151522 333.234694 902.043446 332.72449 898.73156 332.214286 895.470627 331.704082 881.81547 329.714286 867.243175 328.795918 849.460899 328.795918 838.404298 328.795918 827.245792 329.153061 816.494903 329.510204 805.794967 329.816327 794.789317 330.173469 783.936524 330.173469 764.218069 330.173469 748.270068 328.94898 733.646821 326.44898 729.366847 325.632653 724.730208 324.510204 719.838808 323.387755 709.291727 320.836735 697.317989 317.979592 685.34425 317.979592 678.720479 317.979592 672.810038 318.744898 667.205309 320.428571 639.487378 328.795918 616.304182 362.77551 612.024207 389.255102 610.444692 399.153061 610.699453 409.357143 612.737536 421.244898 615.896565 439.357143 620.17654 455.27551 624.711275 472.112245M1379.34473 911.276076C1365.75886 914.337171 1352.73481 920.867506 1340.06828 927.295805 1327.40175 933.673086 1314.3777 940.305457 1300.89397 943.162479 1266.00994 950.662161 1253.08804 920.204269 1241.74946 893.215617 1240.06399 889.33823 1238.53175 885.664917 1236.99951 882.144658 1230.51302 868.012604 1223.15826 855.104988 1215.03738 843.778937 1198.74455 820.922764 1180.00013 802.658232 1159.21272 789.546543 1140.00863 777.455219 1123.81794 770.822847 1108.3423 768.782117 1083.26462 765.465931 1065.43954 773.220704 1044.85643 782.148897 1040.41293 784.087591 1035.76514 786.12832 1031.06626 788.015995 1017.48039 793.474948 1002.05582 799.699174 991.534434 813.270027 983.668928 823.422658 977.693186 835.769073 971.972818 847.707342L970.644876 850.411309C960.021335 872.349155 952.257979 894.031909 944.03495 916.939101 942.145186 922.142962 940.306496 927.397841 938.518881 932.601702 933.564634 946.784775 928.508237 961.478029 922.277122 975.40601 917.629323 986.017805 910.529938 995.252108 903.685926 1004.1803 899.855323 1009.18009 895.92257 1014.33293 892.500564 1019.63883 883.664639 1033.10765 869.823391 1044.84184 856.441816 1056.21891 851.589718 1060.35139 846.992994 1064.22878 842.702718 1068.15718 839.995758 1070.55504 837.186649 1073.05493 834.071092 1075.65686 820.229844 1087.59513 804.498832 1101.16598 800.361781 1118.35913 799.799959 1120.65495 799.340286 1122.89976 798.829539 1125.09354 794.386039 1144.32742 790.504361 1161.01039 771.249194 1173.05069 753.015521 1184.42776 730.90017 1188.15209 711.389629 1191.36624 702.145106 1192.94781 692.798434 1194.12123 683.758209 1195.34567 667.005703 1197.48843 651.223617 1199.58018 636.922697 1203.35553 604.183805 1212.07965 584.264667 1234.73175 577.624954 1270.85267 571.18954 1306.05526 577.727104 1349.06364 584.979713 1366.66493 591.517276 1382.48059 602.549415 1394.87802 615.777765 1406L616.850334 1406C603.417685 1394.87802 592.232322 1382.32753 585.59261 1366.35882 578.391075 1348.91058 571.802437 1306.05526 578.237851 1270.9547 584.877564 1235.1399 604.592403 1212.58983 637.075921 1204.01877 651.376841 1200.1924 667.158927 1198.15167 683.860359 1195.95788 692.900583 1194.83548 702.247256 1193.61105 711.491779 1192.0805 731.053394 1188.76431 753.21982 1185.091 771.606717 1173.61189 791.117257 1161.36751 794.947861 1144.63353 799.442436 1125.2466 799.953183 1123.05281 800.515005 1120.75699 801.025752 1118.51219 805.111729 1101.52311 820.740591 1088.10531 834.530764 1076.16704 837.595247 1073.56511 840.506505 1071.06522 843.162391 1068.61634 847.452667 1064.73896 851.998316 1060.81055 856.901489 1056.72909 870.283064 1045.30101 884.175386 1033.56681 893.011311 1019.99596 896.484392 1014.69006 900.417145 1009.58823 904.196673 1004.58845 911.040685 995.609235 918.191145 986.323915 922.890019 975.71212 929.172208 961.784139 934.228605 947.039866 939.182852 932.805775 940.970467 927.652933 942.809157 922.347035 944.647847 917.143174 952.870876 894.287 960.685307 872.655264 971.308847 850.666401L972.53464 847.962434C978.255008 836.024164 984.23075 823.779785 992.14733 813.627155 1002.5155 800.260374 1017.83791 794.087167 1031.32164 788.679233 1036.07158 786.689521 1040.66831 784.699809 1045.11181 782.761116 1065.59277 773.832923 1083.31569 766.07815 1108.29123 769.394336 1123.66472 771.486084 1139.75325 778.016419 1158.90627 790.107743 1179.54045 803.168414 1198.28487 821.33091 1214.52663 844.238102 1222.59644 855.462116 1229.90012 868.369732 1236.33554 882.450767 1237.91885 885.920008 1239.50217 889.593322 1241.13656 893.470708 1246.65263 906.480361 1252.83267 921.224634 1261.97504 931.479301 1272.49643 943.162479 1285.26511 947.243939 1301.09827 943.876735 1314.53092 940.968695 1327.65712 934.285305 1340.37473 927.857006 1352.99018 921.530743 1366.06531 914.898371 1379.49796 911.990331 1401.66438 907.041562 1421.94105 912.755605 1439 918.775758L1439 918.112521C1421.88997 912.092368 1401.61331 906.429343 1379.34473 911.276076"/>
    <path fill="#000000" d="M1344.33573,1163.26922 C1328.51582,1178.5736 1313.56346,1193.06446 1294.01822,1198.70826 C1266.76716,1206.69095 1246.20128,1186.75966 1226.29882,1167.38767 C1225.07405,1166.21824 1223.84929,1164.99795 1222.62452,1163.82852 C1212.52019,1154.06626 1200.42562,1146.69371 1188.68827,1139.5754 C1180.31903,1134.49089 1171.59257,1129.15215 1163.78468,1123.05074 C1157.916,1118.42383 1151.69011,1114.15284 1145.6173,1110.03439 C1141.53475,1107.13622 1137.35013,1104.28889 1133.36963,1101.39072 C1126.68445,1096.56043 1122.09157,1088.88282 1117.54973,1081.45944 C1115.1002,1077.49352 1112.59963,1073.27337 1109.74184,1069.76506 C1102.08705,1059.95195 1091.26827,1052.47772 1080.75569,1045.25772 C1061.51665,1032.03799 1043.34927,1019.53009 1042.02244,993.599084 C1041.30799,978.14217 1044.77816,958.973563 1051.61645,940.974393 C1058.14854,923.941281 1070.44724,905.484506 1085.45063,890.281817 C1095.65702,879.96026 1106.01651,875.129974 1116.2229,875.994341 C1134.39027,877.519694 1149.90399,896.637456 1161.43721,913.162117 C1168.22446,922.873534 1170.92915,932.229034 1173.68488,942.143831 C1175.3179,947.940174 1177.05299,953.787361 1179.60458,960.092155 C1182.20721,966.346104 1185.37119,972.498362 1188.28002,978.447241 C1193.07702,987.853586 1197.92506,997.514157 1200.93594,1007.88656 C1206.03914,1025.22474 1207.05977,1050.34223 1199.14982,1064.83308 C1191.49503,1078.86634 1195.1183,1102.66185 1203.18135,1115.1189 C1210.52995,1126.40651 1228.85042,1133.62652 1243.59865,1139.42286 C1246.96676,1140.74484 1250.02868,1142.01596 1252.83544,1143.13456 C1254.11124,1143.7447 1255.4891,1144.30399 1256.71386,1144.91414 C1261.51087,1146.99879 1265.54239,1148.88005 1270.1863,1149.79527 C1293.04862,1154.47302 1308.86852,1143.54132 1318.36046,1116.44087 C1328.41376,1087.96761 1321.47341,1062.0366 1298.81523,1043.42729 C1291.97694,1037.78349 1284.06699,1033.46165 1276.46323,1029.29235 C1273.04409,1027.41108 1269.42082,1025.42812 1266.00168,1023.39432 C1265.0831,1022.83502 1264.21556,1022.37742 1263.29699,1021.76728 C1253.34576,1015.86924 1240.99602,1008.4967 1234.15774,999.954723 C1223.95135,987.141755 1215.58211,973.311884 1209.25415,958.719337 C1206.03914,951.245106 1203.48754,943.669184 1200.83388,935.533966 C1198.89466,929.737624 1196.90442,923.788746 1194.60798,917.738177 C1189.40272,903.908307 1181.44173,891.654635 1175.72616,883.824488 C1164.95841,869.231941 1145.56627,849.605728 1126.32723,842.436567 C1095.81012,831.199798 1054.7294,861.198413 1034.57177,884.027869 C1023.24268,896.840837 1015.89408,912.806202 1010.1785,926.737762 C1008.64754,930.5003 1007.16762,934.364529 1005.58563,938.076222 C997.267417,958.922718 989.357464,978.650621 976.19122,996.853171 C971.955568,1002.70036 968.485395,1008.95431 965.066255,1015.00488 C962.667753,1019.32671 960.167187,1023.90277 957.36043,1028.2246 C950.266988,1039.25799 939.499246,1045.76617 928.8846,1051.25744 C924.036564,1053.7997 918.933369,1056.13857 914.034302,1058.4266 C899.898451,1064.98562 885.303312,1071.84971 873.361835,1083.03563 C865.809106,1090.2048 862.798221,1097.72987 864.431244,1105.50917 C867.033873,1118.42383 881.424884,1128.13525 894.029776,1132.76215 C920.158136,1142.52442 950.471116,1138.96526 977.160827,1135.81286 L980.579968,1135.45694 C982.72331,1135.20272 984.81562,1134.99934 986.90793,1134.74511 C998.696311,1133.57568 1009.82128,1132.45708 1020.99727,1126.10144 C1022.78339,1125.08454 1024.51848,1124.06764 1026.3046,1123.10158 C1043.19617,1113.49186 1057.79131,1105.15326 1077.18345,1100.88227 C1089.32906,1098.18748 1107.39437,1098.4417 1118.41727,1105.30579 C1123.92872,1108.71242 1126.27619,1113.84777 1128.72573,1119.33904 C1130.25669,1122.69482 1131.83868,1126.15229 1134.13511,1129.25384 C1143.3719,1141.30413 1155.92576,1150.81217 1168.02033,1160.06598 C1179.85974,1169.01472 1192.20948,1178.37022 1201.44626,1190.11544 C1207.00874,1197.13206 1211.60162,1205.82658 1216.14346,1214.16518 C1220.63427,1222.55462 1225.32921,1231.19829 1230.63654,1237.859 C1241.65944,1251.3838 1256.6118,1256.06155 1272.99306,1251.02788 C1287.12891,1246.60436 1302.84675,1234.60491 1318.00324,1223.06307 C1320.35071,1221.28349 1322.59612,1219.50391 1324.84152,1217.82603 C1332.75147,1211.87715 1340.50833,1205.6232 1347.959,1199.57263 C1368.52487,1182.94628 1387.91702,1167.18429 1409.80972,1158.33724 C1418.48515,1154.87978 1428.38535,1152.33752 1439,1150.30372 L1439,1149.59189 C1428.28329,1151.67654 1418.28103,1154.16795 1409.55456,1157.77795 C1387.61082,1166.57415 1368.11662,1182.43783 1347.49971,1199.06418 C1340.04904,1205.11475 1332.39425,1211.31785 1324.43327,1217.26673 C1322.18786,1218.99546 1319.89142,1220.7242 1317.69705,1222.50378 C1302.54056,1234.04562 1286.87375,1245.99422 1272.78893,1250.3669 C1256.71386,1255.34972 1241.96563,1250.77366 1231.19789,1237.40139 C1225.9416,1230.84237 1221.45079,1222.60547 1216.75585,1213.91095 C1212.214,1205.47066 1207.46803,1196.7253 1201.95658,1189.75952 C1192.5667,1177.91261 1180.31903,1168.55711 1168.42859,1159.50668 C1156.33401,1150.30372 1143.88222,1140.84653 1134.69647,1128.79624 C1132.45106,1125.84722 1130.86907,1122.38975 1129.33811,1119.08482 C1126.78651,1113.5427 1124.38801,1108.30566 1118.82553,1104.7465 C1107.5985,1097.72987 1089.27803,1097.47565 1077.03036,1100.22128 C1057.53615,1104.59396 1042.88998,1112.88172 1025.94737,1122.54229 C1024.21229,1123.50834 1022.37514,1124.4744 1020.64005,1125.59299 C1009.61715,1131.7961 998.594247,1132.86384 986.805866,1134.08413 C984.764588,1134.33835 982.621246,1134.59258 980.477904,1134.74511 L977.109795,1135.20272 C950.420084,1138.30427 920.2602,1141.81258 894.233904,1132.15201 C878.618127,1126.35567 867.135937,1115.83073 865.043627,1105.35664 C863.512668,1097.83156 866.472522,1090.45902 873.872155,1083.54409 C885.660536,1072.45985 900.255674,1065.59576 914.289461,1058.9859 C919.239561,1056.74871 924.342756,1054.35899 929.241824,1051.86758 C939.85647,1046.37631 950.777308,1039.7156 957.972813,1028.52968 C960.677507,1024.20784 963.229104,1019.73347 965.678638,1015.36079 C969.046747,1009.31022 972.567952,1003.05627 976.752572,997.259932 C990.020879,979.006537 997.8798,959.227788 1006.24904,938.330448 C1007.72897,934.567909 1009.25993,930.805371 1010.84192,926.941143 C1016.55749,913.111272 1023.85506,897.247598 1035.03106,884.485475 C1055.08662,861.75771 1095.86115,831.911629 1126.07207,843.097554 C1145.20905,850.165024 1164.49913,869.740392 1175.1648,884.282094 C1180.93141,892.061396 1188.84137,904.213378 1194.04663,917.992403 C1196.34306,923.992126 1198.33331,929.991849 1200.22149,935.737347 C1202.87515,943.872565 1205.37572,951.499331 1208.64177,958.922718 C1214.96973,973.616955 1223.39,987.49767 1233.59639,1000.36148 C1240.53674,1009.00515 1252.9375,1016.37769 1262.88873,1022.37742 C1263.85834,1022.83502 1264.72588,1023.39432 1265.69549,1024.00446 C1269.0636,1026.03826 1272.7379,1027.97038 1276.15704,1029.90249 C1283.7608,1034.02095 1291.56869,1038.29194 1298.40697,1043.8849 C1320.75897,1062.34167 1327.64828,1088.01846 1317.74808,1116.23749 C1308.3582,1143.03287 1292.79346,1153.76118 1270.28836,1149.18512 C1265.79755,1148.21907 1261.715,1146.43949 1256.96902,1144.30399 C1255.74426,1143.7447 1254.36639,1143.13456 1253.0906,1142.52442 C1250.33487,1141.35498 1247.17089,1140.18554 1243.85381,1138.86357 C1229.15661,1133.01638 1210.9382,1125.89806 1203.7427,1114.76298 C1195.83274,1102.45847 1192.20948,1079.06972 1199.71117,1065.189 C1207.62113,1050.59645 1206.65152,1025.1739 1201.54832,1007.68318 C1198.58847,997.310777 1193.63837,987.599361 1188.94343,978.14217 C1185.93255,972.193292 1182.87063,966.041033 1180.268,959.787085 C1177.66537,953.583981 1175.98132,947.685948 1174.34829,941.94045 C1171.54154,931.974809 1168.88787,922.619308 1161.99856,912.755356 C1150.36328,896.17985 1134.69647,876.858708 1116.27393,875.333354 C1105.86341,874.418142 1095.35083,879.299273 1084.99134,889.773366 C1069.88589,905.077745 1057.53615,923.63621 1051.00406,940.720168 C1044.11475,958.821027 1040.64458,978.14217 1041.35902,993.649929 C1042.68585,1019.88601 1061.82284,1033.00405 1080.34744,1045.76617 C1090.80899,1052.98617 1101.62776,1060.46041 1109.28255,1070.17182 C1112.03828,1073.62929 1114.43678,1077.59521 1116.98838,1081.81535 C1121.53022,1089.23874 1126.22516,1096.91635 1132.91035,1101.89917 C1136.9929,1104.84819 1141.22856,1107.74636 1145.26008,1110.54284 C1151.23082,1114.71214 1157.45672,1119.03397 1163.32539,1123.55919 C1171.18431,1129.71145 1179.91078,1134.99934 1188.33105,1140.08385 C1200.0684,1147.25301 1212.11194,1154.57471 1222.1142,1164.33697 C1223.44103,1165.50641 1224.56373,1166.625 1225.83953,1167.89613 C1245.84406,1187.31896 1266.61406,1207.45362 1294.22235,1199.36925 C1313.86965,1193.6746 1328.92408,1179.1329 1344.84605,1163.77767 C1359.90047,1149.18512 1375.51625,1134.03328 1396.54142,1125.23708 C1410.01385,1119.64412 1424.66002,1116.39003 1439,1113.49186 L1439,1112.78002 C1424.55796,1115.6782 1409.86075,1118.98313 1396.28626,1124.67778 C1375.15903,1133.47399 1359.54325,1148.62583 1344.33573,1163.26922"/>
    <path fill="#000000" d="M1368.83659,964.779501 C1358.01867,967.072812 1346.94561,972.525796 1335.26021,978.284554 C1315.81857,987.814536 1295.76459,997.701254 1277.29248,991.942495 C1244.07329,981.597115 1231.31631,946.331088 1220.03914,915.243984 C1217.69185,908.873676 1215.54868,902.911067 1213.2014,897.152308 C1208.0986,884.36073 1201.61805,872.435512 1194.01489,861.937244 C1182.22744,845.52733 1167.73551,835.3858 1152.3761,824.683682 C1150.02881,823.103845 1147.73256,821.422084 1145.33424,819.791285 C1131.81184,810.210341 1115.32982,800.731323 1096.2964,803.483296 C1090.32613,804.349658 1084.10072,807.509331 1078.13046,810.618041 C1074.35439,812.605577 1070.73141,814.389264 1067.26151,815.663325 C1064.65908,816.631612 1062.00563,817.599899 1059.35218,818.619148 C1038.941,825.906781 1017.86647,833.602113 1003.37453,850.06299 C999.241271,854.802499 995.669316,860.968958 992.199416,866.829641 C990.413438,869.989314 988.729517,872.843212 986.994567,875.646148 C979.7486,886.65404 973.574221,898.783107 968.420399,911.727574 C962.96041,925.793214 959.694623,940.878104 956.632947,955.504332 C953.214075,971.302697 949.744176,987.661648 943.416712,1002.49173 C936.885136,1017.7295 919.637695,1028.68643 904.380343,1038.26738 C900.24708,1040.91743 896.31793,1043.41459 892.84803,1045.91175 C882.48936,1053.09745 873.457415,1061.81204 864.833695,1070.27181 C859.169594,1075.82671 853.250354,1081.58547 847.024946,1086.83461 C832.635069,1098.96367 826.205549,1119.7054 830.1347,1140.95675 C837.125527,1178.15935 851.61746,1184.3258 882.999639,1189.52398 C906.93174,1193.44809 934.792991,1192.53076 968.063204,1186.72104 C987.249707,1183.35752 1005.51771,1170.97364 1023.12234,1159.09938 C1029.55186,1154.71661 1035.57316,1150.58865 1041.4924,1147.07224 C1066.18992,1132.14024 1095.58201,1135.29991 1119.92233,1155.37912 C1123.08607,1157.92725 1126.19877,1160.47537 1129.3625,1162.92157 C1147.88564,1177.75165 1165.43925,1191.71536 1174.72633,1213.98596 C1178.8596,1223.66883 1181.56408,1234.01421 1184.21753,1244.05381 C1186.76893,1253.88957 1189.37135,1264.0311 1193.40256,1273.66301 C1199.37283,1288.08539 1211.05822,1304.03664 1223.96829,1315.3503 C1235.09238,1325.1351 1251.9316,1335.68433 1268.97493,1330.74097 C1284.84461,1326.10339 1294.1317,1308.11363 1304.03112,1289.10463 C1310.35858,1277.02653 1316.89016,1264.59169 1325.51388,1254.24631 C1336.74002,1240.74125 1351.74223,1228.56123 1362.04988,1220.56012 L1363.12146,1219.69376 C1385.21656,1202.57037 1406.03596,1186.3643 1433.69309,1180.86036 C1435.42804,1180.45266 1437.21402,1180.19784 1439,1179.94303 L1439,1179.22956 C1437.16299,1179.53533 1435.37702,1179.84111 1433.48898,1180.19784 C1405.72979,1185.70179 1384.80833,1201.95882 1362.76427,1219.13317 L1361.59063,1219.99953 C1351.28298,1228.00064 1336.28077,1240.28259 1325.0036,1253.78765 C1316.32885,1264.18399 1309.8483,1276.72076 1303.46981,1288.79886 C1293.62142,1307.70593 1284.33433,1325.5428 1268.77081,1330.07846 C1252.08468,1335.02182 1235.44957,1324.57451 1224.42754,1314.89164 C1211.77261,1303.78183 1199.78105,1287.5248 1194.01489,1273.4082 C1190.03471,1263.82725 1187.38126,1253.68572 1184.88089,1243.95189 C1182.22744,1233.86132 1179.52296,1223.46498 1175.3897,1213.73115 C1165.94953,1191.30766 1147.52845,1176.63047 1129.66867,1162.41194 C1126.65802,1159.96575 1123.44326,1157.41762 1120.38158,1154.8695 C1095.68406,1134.58644 1066.08786,1131.47773 1041.1352,1146.46069 C1035.16494,1150.07903 1029.14364,1154.15602 1022.81618,1158.48783 C1005.16051,1170.41305 986.994567,1182.69501 967.961148,1186.05853 C934.741963,1191.91921 906.982768,1192.83654 883.101695,1188.8105 C852.076711,1183.71426 837.737862,1177.59876 830.798063,1140.80386 C826.868912,1119.80732 833.298432,1099.32041 847.433169,1087.34423 C853.658577,1082.04414 859.628845,1076.28538 865.343974,1070.73047 C873.967695,1062.32166 882.897583,1053.55612 893.205226,1046.42137 C896.675125,1043.97517 900.655304,1041.47801 904.737539,1038.82796 C920.045918,1029.19606 937.395416,1018.23913 944.029047,1002.7975 C950.407539,987.865498 953.877438,971.455584 957.29631,955.65722 C960.409014,941.030992 963.572746,925.997064 969.083762,912.033349 C974.186556,899.139845 980.360936,887.010778 987.504846,876.002885 C989.341852,873.250912 991.025774,870.295089 992.811751,867.186378 C996.230623,861.325695 999.802578,855.261161 1003.93584,850.521652 C1018.32572,834.1627 1039.2982,826.569293 1059.55629,819.230698 C1062.20974,818.211449 1064.86319,817.243162 1067.56767,816.325837 C1071.0886,815.000813 1074.76261,813.013277 1078.3856,811.178628 C1084.35586,808.12088 1090.53024,804.961207 1096.39846,804.145808 C1115.22776,801.444797 1131.50567,810.821891 1144.97705,820.351872 C1147.37536,822.033634 1149.62059,823.562508 1151.96788,825.193306 C1167.32728,835.946387 1181.76819,845.985993 1193.45359,862.293982 C1201.05675,872.79225 1207.43524,884.666504 1212.58906,897.458083 C1214.88532,903.114917 1217.02849,909.128488 1219.37578,915.498796 C1230.70398,946.738788 1243.51199,982.157702 1277.1394,992.605007 C1295.81562,998.414729 1316.07371,988.477048 1335.56638,978.845142 C1347.25178,973.086383 1358.27381,967.735324 1368.93865,965.442013 C1384.09394,962.180415 1412.05725,960.906354 1439,961.568866 L1439,960.855391 C1412.00622,960.294804 1383.99189,961.568866 1368.83659,964.779501"/>
    <g transform="translate(316)">
      <mask id="b" fill="white">
        <use xlink:href="#a"/>
      </mask>
      <path fill="#000000" d="M75.0958984,65.0057748 C76.2201235,74.4032276 77.7020565,91.7680861 74.4315836,103.463829 C69.0659642,122.718393 53.4801172,139.266081 38.4563828,155.354112 C17.1983095,177.928428 -4.7240785,201.319914 1.97017053,232.576659 C5.64945243,249.430787 14.6943538,259.900775 29.9224928,264.650574 C43.1065863,268.787496 59.3056469,268.225692 77.5998542,267.255303 C110.917796,265.416671 133.5556,270.881494 146.637491,275.886659 C159.923787,280.993971 172.085858,289.369961 183.992423,297.541659 C199.833775,308.471305 214.85751,318.839147 231.823087,321.137438 C238.619539,322.00568 244.240664,321.801388 250.628306,320.371341 C266.469659,316.898369 278.427325,308.87989 291.151508,300.401754 C312.665087,286.101282 334.945183,271.239006 378.176746,279.870362 C387.630456,281.708994 397.084166,284.569088 407.048888,287.480256 C438.884897,296.928782 471.845131,306.5816 508.63795,287.122744 C541.955892,270.370763 562.907358,239.726895 583.092307,210.053416 C592.546018,196.212603 602.306335,181.861058 613.088675,169.297072 C626.937083,153.260114 645.742302,131.247603 668.840016,138.857496 C678.140423,141.87081 687.696336,143.35193 696.996743,144.781978 C711.713871,147.131341 726.890909,149.531777 740.534912,158.11206 C750.346331,164.240834 757.909299,172.974336 765.318964,181.452473 C768.74274,185.385103 772.370921,189.522025 776.101304,193.301435 C784.379688,201.626353 791.073937,211.43239 797.563782,220.931989 C803.082705,229.001541 808.754931,237.275386 815.44918,244.73206 C824.44298,252.648393 832.312555,259.594336 841.51076,267.86818 C852.599707,277.980657 862.717732,289.982838 872.47805,301.576435 C891.283268,323.844313 908.913161,344.835362 932.061976,351.628086 C948.363239,356.480032 965.226614,355.816081 986.740193,349.636235 C998.186848,346.316482 1013.36389,339.88127 1024.04402,334.978251 C1045.71091,325.172213 1070.13725,311.688912 1089.24908,299.073853 C1104.17061,289.216742 1115.51506,275.324855 1122.46481,258.726093 L1122.46481,256.989607 C1115.66836,274.150173 1104.11951,288.450645 1088.94247,298.460975 C1069.77954,311.076034 1045.4043,324.559336 1023.73742,334.365374 C1013.10838,339.21732 998.033545,345.703605 986.58689,349.023357 C965.124412,355.152131 948.41434,355.765008 932.215279,351.066282 C909.32197,344.324631 891.692077,323.384654 872.989061,301.16785 C863.228744,289.574254 853.110718,277.520999 841.919569,267.408522 C832.721365,259.083605 824.90289,252.086588 815.90909,244.221329 C809.265942,236.866801 803.644817,228.541883 798.074793,220.523404 C791.584949,211.023805 784.839599,201.217768 776.612315,192.841777 C772.77973,189.062367 769.253752,184.976518 765.829975,180.992815 C758.42031,172.463605 750.806241,163.730103 740.89262,157.550256 C727.146414,148.9189 711.867174,146.518463 697.098945,144.220173 C687.798538,142.68798 678.242626,141.20686 669.095522,138.244619 C645.537898,130.481506 626.477173,152.647237 612.628765,168.837414 C601.795324,181.503546 592.035006,195.804018 582.581296,209.644831 C562.345245,239.31831 541.495981,269.962178 508.382444,286.509867 C471.79403,305.91765 438.935998,296.213758 407.202192,286.867379 C397.23747,283.905138 387.783759,281.096117 378.278948,279.206412 C334.842981,270.575055 312.460683,285.437331 290.7938,299.891022 C278.171819,308.318086 266.214153,316.234419 250.423902,319.70739 C244.189563,321.137438 238.619539,321.34173 231.92529,320.422414 C215.164117,318.22627 200.140382,307.909501 184.350131,296.928782 C172.494667,288.808157 160.179293,280.33002 146.841896,275.222709 C133.708903,270.268617 111.019998,264.701647 77.548753,266.540279 C46.2748568,268.276765 10.7084651,270.31969 2.58338418,232.42344 C-4.00866257,201.524206 17.8115232,178.234867 38.916293,155.711624 C54.0422297,139.623593 69.6791779,123.024831 75.0447973,103.617048 C78.2130678,92.4831097 77.1910451,76.4461521 75.8113144,64.9036285 C73.5117632,46.4151616 68.0439414,27.4159634 62.2695129,7.34422995 C61.6562992,5.1991592 61.0941867,3.05408844 60.4298719,0.857944575 L59.714456,0.857944575 C60.3787708,3.10516156 61.0430856,5.30130542 61.6562992,7.54852241 C67.4307278,27.6202559 72.8985495,46.5173078 75.0958984,65.0057748" mask="url(#b)"/>
    </g>
    <mask id="d" fill="white">
      <use xlink:href="#c"/>
    </mask>
    <path fill="#000000" d="M368.157312,1316.02247 C373.364552,1299.13316 382.145387,1288.92814 396.031359,1273.62061 C398.175516,1271.17141 400.574931,1268.77323 403.127499,1266.11993 C412.980413,1255.91491 424.211714,1244.33221 426.662179,1232.23926 C431.665214,1208.15542 416.758214,1193.97044 401.442804,1183.40825 C393.887201,1178.20369 385.412674,1174.07065 377.193404,1170.0907 C366.57472,1164.88614 355.547624,1159.5285 346.460481,1151.67064 C336.811772,1143.30252 328.490399,1131.41367 321.649516,1116.2082 C318.535383,1109.47288 317.208047,1102.17629 315.82966,1095.13483 C314.502325,1088.24644 313.174989,1081.15396 310.265061,1074.62274 C296.889603,1044.72204 279.481086,1010.94342 250.943372,987.26778 C238.537889,976.96071 222.865119,960.73473 218.729959,941.396219 C216.075287,928.69097 219.802037,917.567499 222.814068,908.689133 L223.324582,907.05633 C230.114414,886.952442 250.330755,838.886802 292.70339,826.793855 C300.310044,824.599775 309.652445,823.017997 319.454307,821.283144 C331.808738,819.191115 344.622631,816.946011 353.91398,813.476305 C368.46362,808.11867 378.827048,800.669006 389.854143,792.249865 L391.436736,791.076288 C401.953317,783.014323 415.073519,772.962379 432.175727,774.289031 C446.980624,775.513634 463.929678,783.218423 478.530369,795.566496 C493.335266,808.016619 503.239231,823.120048 505.740748,836.998874 C507.374392,845.97929 508.089111,853.224854 508.80383,860.164267 C509.467498,866.236253 509.92696,871.900039 511.101142,878.176126 C516.563638,909.556559 531.623792,934.609881 555.924243,952.51969 C575.630071,967.061842 601.921525,977.266861 634.134938,982.828596 C675.894957,990.07416 711.426709,976.450459 724.649013,970.276423 C745.784279,960.377554 768.451087,936.650885 788.00376,915.16932 C807.40328,893.789805 817.715657,881.135581 820.012968,847.203893 C820.727687,836.284522 819.859814,825.773353 818.991941,815.466283 C818.685633,811.486326 818.277222,807.404318 818.073016,803.322311 C817.919862,800.362855 817.664605,797.352374 817.358297,794.137793 C816.388321,783.830724 815.520448,773.166479 817.358297,762.196084 C821.289252,739.591966 834.358402,729.591048 857.433621,731.836152 C887.502876,734.591507 913.794331,754.542319 924.413015,782.606122 C932.836491,804.904089 926.046659,828.222557 920.635214,847.101842 L919.767341,850.163348 C910.833351,881.288656 898.683126,905.576602 882.652996,924.404862 C873.514801,935.018082 863.508733,945.019001 853.757922,954.713769 C850.082224,958.2345 846.406525,961.959332 842.832929,965.633139 C837.727793,970.735649 832.112142,975.480983 826.598595,980.022216 C819.808763,985.686002 812.712622,991.706963 806.688561,998.493301 C798.162983,1008.13704 791.832613,1019.05641 786.676425,1028.39401 C769.982628,1059.11111 758.342916,1086.20544 751.093622,1111.00364 C744.559047,1133.45468 726.537914,1151.26244 702.850079,1158.7121 C672.27031,1168.25379 628.519288,1167.13124 572.771194,1155.44649 C545.458712,1149.62963 529.122275,1134.01595 524.4766,1108.80956 C519.116207,1080.13345 499.665635,1065.84643 479.194037,1050.743 C473.884695,1046.86509 468.47325,1042.83411 463.163907,1038.59903 C441.416025,1020.74024 452.238915,1003.85094 463.725472,985.941127 C468.881661,977.930187 474.139952,969.715147 476.386212,961.296006 C480.010859,948.131531 475.365184,934.252705 470.872664,920.78208 C468.524301,913.740617 466.329092,907.15838 465.205962,900.627168 C459.947671,869.60391 454.638329,845.111864 438.863456,835.008895 C430.388929,829.65126 419.514988,828.885883 405.526913,832.814816 C403.280653,833.376092 400.830187,834.141468 398.175516,834.906845 C392.764071,836.539648 386.637907,838.325526 381.634873,839.397053 C372.905089,841.387032 363.817946,842.560609 354.220289,843.683161 C343.958964,845.009814 333.442382,846.285441 321.853721,848.734646 C304.241,852.357427 288.721384,860.827593 277.081672,873.175666 C265.595114,885.319639 258.34582,900.627168 255.946406,917.516474 C254.925378,924.711013 254.61907,930.885049 256.610073,937.620362 C262.429929,957.265023 280.246857,971.092824 295.970678,983.287822 C299.595325,986.094202 303.066818,988.747507 306.334106,991.502862 L306.895671,991.911063 C322.108978,1004.51426 341.049036,1020.12794 340.334317,1041.60951 C339.568546,1063.7544 342.427423,1079.77628 349.77882,1095.33893 C361.316429,1119.72893 377.652866,1134.57723 406.037427,1146.46608 C408.181584,1147.28248 410.27469,1148.20093 412.418848,1149.06836 C422.22071,1153.09934 432.226779,1157.23237 441.569179,1162.48796 C449.226884,1166.77407 454.332021,1172.18273 459.743466,1177.84651 C462.755496,1181.01007 465.818579,1184.22465 469.341123,1187.33718 C473.578386,1191.01099 477.662496,1195.90939 481.899759,1201.11395 C492.620547,1214.38048 504.770772,1229.38186 523.557675,1225.75908 C533.155333,1223.92217 542.650887,1217.28891 552.708006,1210.3495 C561.488842,1204.22649 570.575985,1197.89937 580.786259,1193.81737 C598.092672,1187.08205 622.444175,1185.44925 648.276167,1183.7144 C663.948937,1182.69389 680.183272,1181.57134 694.988168,1179.27521 C728.682071,1173.9686 751.502033,1162.13078 764.673285,1143.14945 C768.604241,1137.58771 771.207861,1131.2606 773.607275,1125.13759 C775.496175,1120.34123 777.487179,1115.44282 780.039747,1110.95261 C781.928648,1107.53393 784.940678,1104.88062 787.850606,1102.27834 C789.433199,1100.84964 791.117894,1099.31889 792.547332,1097.68609 C795.253055,1094.67561 797.856674,1091.56307 800.409243,1088.45054 C803.166017,1085.08289 806.075945,1081.51113 809.190078,1078.1945 C813.937855,1072.93891 819.400352,1068.19358 824.607591,1063.44825 C829.457471,1059.06009 834.511557,1054.51886 839.10618,1049.62045 C842.883981,1045.64049 845.896012,1041.30336 848.856991,1037.1193 C852.17533,1032.32294 855.54472,1027.52658 860.139343,1023.0874 C867.797048,1015.43363 875.812113,1007.11654 882.244585,997.880999 C887.758133,989.921085 890.208599,982.16527 892.914321,974.001255 C893.680092,971.45 894.547965,968.84772 895.517941,966.194415 C897.559996,960.224479 901.286746,954.611719 904.911393,949.152033 C907.05555,945.886427 909.199708,942.620821 910.986505,939.30419 C917.827389,926.803042 923.647245,914.301893 928.395022,902.15792 C929.671306,898.688214 930.845487,895.218507 932.121772,891.850851 C932.632285,890.371123 933.142799,888.993446 933.653313,887.564743 C936.001676,881.084556 938.503193,874.502319 940.953658,868.124182 C947.896644,849.602072 955.19699,830.518686 958.92374,813.119129 C961.323154,801.995658 963.41626,790.106811 960.863692,778.422064 C952.184959,738.214289 913.232766,696.27166 877.496808,688.617896 C860.956165,685.14819 840.127207,685.35229 818.838787,689.332248 C783.51124,695.96551 770.44209,713.007892 772.228888,750.205186 C772.637299,758.879453 773.454121,767.655769 774.16884,776.125935 C775.853535,794.443944 777.487179,811.792476 775.496175,828.528708 C774.424097,838.172451 771.207861,846.795692 768.910549,852.357427 C763.703309,864.858576 751.859392,886.238091 737.054495,909.403484 C722.453804,932.211702 702.90113,948.794858 683.246354,955.019919 C645.978855,966.806716 596.101669,955.121969 567.053441,927.721493 C552.503801,913.995743 537.035237,890.524199 545.662918,856.949686 C546.173431,854.908682 547.041305,852.867678 547.960229,850.673599 C549.185462,848.071319 550.308592,845.315964 550.97226,842.356509 C555.46478,834.549669 561.080431,827.610256 566.593979,820.823918 C578.94841,805.51639 590.588121,791.127313 586.146652,770.513174 C585.32983,766.686292 583.645135,762.65531 581.858337,758.318176 C578.182639,749.43981 574.455889,740.357343 578.846307,734.897658 C586.504012,725.355965 596.969542,715.406071 608.098741,704.843877 C627.294055,686.627917 647.204088,667.697607 652.819739,649.940874 C658.537492,632.184141 646.846729,614.478433 641.843695,606.977744 C636.483301,598.864753 630.306085,590.496638 623.822562,581.516221 C618.768476,574.678858 613.561237,567.535345 608.609254,560.442857 C604.525145,554.523945 600.543138,548.86016 596.612183,543.196374 C587.525039,530.184975 578.94841,517.887927 570.116523,504.774477 C566.64503,499.518893 563.122486,493.906132 559.702044,488.497472 C553.984291,479.415005 548.062332,470.128438 542.140373,462.219548 C529.173326,444.871015 514.572635,437.727502 498.593557,440.993108 C482.716581,444.207689 465.51227,456.453712 450.605271,467.628208 C448.563216,469.107936 446.572213,470.638689 444.58121,472.169441 C416.758214,493.038706 385.157417,516.663325 376.836045,542.941249 C369.790956,565.290241 382.809055,575.69936 396.592924,586.720781 C398.073414,587.894358 399.553903,589.11896 401.034393,590.343562 C410.172588,597.895277 417.217676,605.702116 422.833327,612.284353 C430.542083,621.315795 437.331915,632.133116 443.917542,642.59326 C448.563216,649.940874 452.953634,657.033362 457.344052,662.748173 C472.455256,682.54591 492.058982,691.271201 510.947988,699.792392 C529.530686,708.058458 548.674948,716.528623 563.173537,735.509959 C563.173537,736.22431 563.224588,736.836611 563.224588,737.550963 C563.27564,739.540941 563.377742,741.53092 562.816177,743.367824 C545.611866,762.043008 524.221343,766.635267 497.419375,757.7569 C489.251156,755.001545 481.18504,750.664412 472.60841,745.970103 C453.464148,735.612009 433.656217,724.947764 410.887307,731.887177 C394.499818,736.785586 383.115363,748.368283 372.088267,759.542779 C361.214326,770.615224 350.034076,781.993821 333.74869,787.708631 C324.253136,790.923212 314.400222,791.892689 300.616352,792.964216 C265.79932,795.617521 249.00342,799.597479 234.709037,817.711388 C215.871082,841.693182 192.64271,883.992986 185.495518,901.494594 C182.687693,908.485032 180.951946,913.689592 180.135125,917.516474 C174.060012,948.029481 192.795864,971.858201 209.744918,989.308783 C213.880079,993.441816 218.372599,997.319723 222.711965,1000.99353 C226.642921,1004.36119 230.675979,1007.77987 234.402729,1011.40265 C241.958331,1019.00539 248.033444,1027.98581 253.904351,1036.7111 C256.916382,1041.15028 259.928412,1045.69151 263.144649,1050.02865 C286.526175,1081.15396 293.571264,1108.35033 286.066713,1138.14899 C280.553165,1159.5285 268.096631,1186.5718 239.456814,1193.91942 C228.889181,1196.62375 217.555777,1198.00142 205.558706,1199.32808 C194.480559,1200.65473 182.891898,1201.98138 171.609546,1204.53264 C161.756632,1206.77774 152.414232,1209.68617 143.429191,1212.5946 C130.819503,1216.47251 118.873483,1220.24837 106.570104,1221.77912 C84.9753751,1224.68755 65.8311122,1220.14631 47.2994657,1215.91123 C30.963028,1212.08435 15.3923608,1208.51259 0.0769504815,1210.5536 L0.0769504815,1211.21692 C15.3413094,1209.12489 30.8098739,1212.74768 47.1463116,1216.52353 C65.7290094,1220.86067 84.9243237,1225.29985 106.672206,1222.44244 C119.077689,1220.86067 130.972657,1217.13583 143.633397,1213.15588 C152.567386,1210.3495 161.960838,1207.44107 171.813752,1205.19596 C183.096104,1202.64471 194.53161,1201.31805 205.609757,1200.04243 C217.65788,1198.61372 228.991284,1197.3381 239.558917,1194.58274 C262.532032,1188.66383 278.817418,1169.22327 286.628278,1138.35309 C294.285983,1108.29931 287.189843,1081.00088 263.706214,1049.56942 C260.541029,1045.28331 257.477947,1040.74208 254.465916,1036.40495 C248.543957,1027.62863 242.468845,1018.54616 234.811139,1010.99445 C231.08439,1007.26962 227.051332,1003.85094 223.171428,1000.5343 C218.832061,996.809472 214.339541,992.98259 210.255432,988.798532 C193.40848,971.55205 174.774731,947.876406 180.849844,917.618524 C181.615614,913.842667 183.351361,908.689133 186.159186,901.74972 C193.204275,884.299137 216.381596,842.050358 235.21955,818.170613 C249.309728,800.260805 266.105628,796.178797 300.667404,793.576517 C314.502325,792.50499 324.355238,791.586539 334.003947,788.218882 C350.391436,782.606122 361.673788,771.07445 372.598781,760.05303 C384.034287,748.368283 394.806126,737.346862 411.040461,732.499478 C433.605166,725.713141 453.310993,736.32636 472.302102,746.582405 C480.929783,751.225688 488.9959,755.664872 497.164118,758.369202 C524.323446,767.400643 545.918175,762.65531 563.428794,743.827049 L563.479845,743.673974 C564.04141,741.63297 563.990359,739.540941 563.837205,737.550963 L563.837205,735.407909 L563.837205,735.305858 L563.735102,735.203808 C549.185462,716.069398 529.888045,707.446156 511.254296,699.129066 C492.416341,690.76095 472.863667,681.984634 457.905617,662.339972 C453.56625,656.625161 449.124781,649.583698 444.479107,642.185059 C437.89348,631.724915 431.052597,620.95862 423.343841,611.825128 C417.72819,605.24289 410.683101,597.436051 401.442804,589.833311 C399.962314,588.557684 398.481824,587.435132 397.001335,586.21053 C383.421671,575.291159 370.556726,564.98409 377.499712,543.145349 C385.770034,517.071525 417.217676,493.548956 444.938569,472.730718 C446.980624,471.199965 449.022679,469.669212 451.013682,468.138459 C465.818579,456.963963 482.971838,444.81999 498.695659,441.605409 C514.368429,438.441853 528.815966,445.432291 541.62986,462.576724 C547.60287,470.485613 553.422726,479.823206 559.140479,488.854648 C562.56092,494.263308 566.032413,499.825043 569.554958,505.080628 C578.335793,518.245103 586.963474,530.542151 596.050618,543.604575 C599.981573,549.217336 603.96358,554.983171 608.098741,560.851057 C612.999672,567.943546 618.15586,575.087059 623.260997,581.924422 C629.795572,590.853813 635.972787,599.272954 641.333181,607.334919 C646.234112,614.835608 657.822773,632.286191 652.207122,649.736773 C646.591472,667.391456 626.73249,686.117667 607.588227,704.384651 C596.51008,714.946845 585.993498,724.896739 578.284742,734.489457 C573.690119,740.255293 577.518971,749.54186 581.296772,758.573302 C583.032519,762.85941 584.717214,766.941418 585.482985,770.615224 C589.924454,790.923212 578.284742,805.210239 566.032413,820.364693 C560.569917,827.202055 554.852164,834.243518 550.359644,842.050358 L550.308592,842.203433 C549.695976,845.111864 548.521794,847.816194 547.347613,850.418474 C546.428688,852.663578 545.509764,854.704582 544.99925,856.745586 C538.209418,883.278635 545.867123,908.638108 566.696081,928.180719 C595.795361,955.734271 645.978855,967.470043 683.501611,955.683246 C703.207439,949.305109 722.964318,932.619902 737.513958,909.811685 C752.369906,886.544241 764.366977,865.164726 769.472114,852.612553 C771.820477,846.999792 775.036713,838.325526 776.159843,828.630758 C778.099795,811.792476 776.517203,794.443944 774.883559,776.07491 C774.066737,767.604744 773.300967,758.828427 772.892556,750.205186 C771.973631,731.376926 774.883559,718.161426 781.928648,708.823834 C789.177942,699.384191 800.919757,693.36323 818.940889,689.995574 C840.178258,686.015616 860.905114,685.760491 877.343654,689.332248 C912.875406,696.883962 951.572343,738.62249 960.200024,778.575139 C962.701541,790.106811 960.608435,801.893608 958.311123,812.966054 C954.533322,830.365611 947.284028,849.397972 940.289991,867.818031 C937.890576,874.247193 935.389059,880.829431 933.040696,887.309618 C932.530183,888.73832 932.019669,890.167023 931.458104,891.646751 C930.334974,895.014407 929.007638,898.484114 927.731354,901.95382 C923.034628,914.046768 917.265824,926.496891 910.42494,938.947014 C908.638143,942.263645 906.442934,945.529252 904.349828,948.794858 C900.776232,954.254543 896.947379,959.918328 894.854273,965.990315 C893.935349,968.64362 893.067475,971.296925 892.250653,973.797154 C889.647034,981.910145 887.145517,989.665959 881.785123,997.472799 C875.301599,1006.70834 867.286535,1015.02543 859.628829,1022.57715 C855.085258,1027.01633 851.664816,1031.96576 848.295426,1036.66007 C845.436549,1040.89515 842.373467,1045.18126 838.646717,1049.21225 C834.103146,1054.0086 828.998009,1058.60086 824.148129,1062.938 C818.889838,1067.68333 813.529444,1072.53071 808.628513,1077.7863 C805.616482,1081.10293 802.655503,1084.62366 799.847678,1088.04234 C797.346161,1091.10385 794.742541,1094.21638 792.08787,1097.22686 C790.60738,1098.80864 788.973736,1100.33939 787.391144,1101.81912 C784.430165,1104.47242 781.520237,1107.12573 779.529233,1110.69749 C776.823511,1115.18769 774.883559,1120.0861 772.994658,1124.83144 C770.544193,1130.95445 767.991624,1137.28156 764.162772,1142.79227 C751.093622,1161.67156 728.477866,1173.30528 694.886066,1178.61189 C680.13222,1180.95904 663.948937,1182.03057 648.225116,1183.1021 C622.342072,1184.83695 597.939518,1186.41873 580.531002,1193.25609 C570.269677,1197.28707 561.080431,1203.61418 552.299596,1209.7372 C542.344579,1216.72763 532.951127,1223.30987 523.455573,1225.09575 C505.07708,1228.61648 493.028958,1213.8192 482.359222,1200.70575 C478.070907,1195.50119 474.0889,1190.50073 469.800585,1186.82693 C466.278041,1183.7144 463.163907,1180.55084 460.253979,1177.33626 C454.740432,1171.62145 449.686346,1166.21279 441.926538,1161.87566 C432.533087,1156.62007 422.373865,1152.43601 412.674105,1148.45606 C410.529947,1147.58863 408.436841,1146.7212 406.292684,1145.85378 C378.061277,1134.06698 361.826942,1119.37175 350.391436,1095.08381 C343.09109,1079.6232 340.283265,1063.65235 341.049036,1041.60951 C341.712704,1019.87282 322.619492,1004.10606 307.304082,991.400812 L306.742517,990.992612 C303.475229,988.237256 300.054787,985.532926 296.43014,982.777571 C279.9916,970.021297 262.991494,956.805798 257.22269,937.416261 C255.333789,930.834024 255.589046,924.711013 256.610073,917.618524 C261.408902,882.972485 286.475124,856.745586 322.006876,849.346947 C333.544485,846.948767 344.112118,845.67314 354.27134,844.397512 C363.868997,843.17291 373.007192,841.999333 381.788027,840.060379 C386.791061,838.937827 392.917225,837.151949 398.379722,835.570171 C400.983342,834.753769 403.433807,834.039418 405.731119,833.427117 C419.514988,829.600235 430.235775,830.314586 438.557148,835.621196 C454.127815,845.418014 459.335055,869.91006 464.593346,900.729218 C465.665424,907.311455 467.911685,913.995743 470.260048,921.037206 C474.701517,934.405781 479.347191,948.182556 475.824647,961.091906 C473.527335,969.460021 468.269044,977.624037 463.163907,985.583951 C451.575247,1003.74889 440.548152,1020.89332 462.806548,1039.00723 C468.064839,1043.34436 473.476284,1047.37534 478.785626,1051.25325 C499.206173,1066.25463 518.50359,1080.49063 523.812932,1108.96263 C528.611761,1134.37313 544.99925,1150.24193 572.669091,1156.00777 C628.468236,1167.84559 672.372413,1168.91712 703.003233,1159.37543 C726.946325,1151.82371 745.171663,1133.9139 751.706238,1111.25876 C758.904481,1086.40954 770.544193,1059.46829 787.289041,1028.70016 C792.394178,1019.41359 798.775599,1008.59627 807.199075,998.952526 C813.121033,992.166189 820.217174,986.247278 827.109108,980.532467 C832.571605,975.940208 838.187255,971.2459 843.292392,966.14339 C846.865988,962.418558 850.592737,958.693726 854.217384,955.172995 C863.968196,945.478226 874.076367,935.426283 883.16351,924.813063 C899.244691,905.933777 911.445968,881.543782 920.328906,850.316424 L921.24783,847.203893 C926.710327,828.375632 933.449107,804.904089 924.97458,782.350996 C914.304844,754.134119 887.860236,734.030231 857.484672,731.121801 C834.052094,728.927722 820.625584,739.03069 816.745681,762.145059 C814.805729,773.115454 815.775705,783.830724 816.694629,794.188819 C816.949886,797.4034 817.205143,800.41388 817.409348,803.373336 C817.715657,807.506368 818.021965,811.537351 818.328273,815.517308 C819.196146,825.773353 820.115071,836.335547 819.400352,847.152868 C817.051989,880.829431 806.841715,893.483654 787.544298,914.710094 C767.991624,936.140634 745.42692,959.867303 724.444808,969.613097 C711.222503,975.787133 675.843906,989.410834 634.237041,982.16527 C562.816177,969.817197 521.668775,934.813981 511.713758,878.074075 C510.641679,871.849014 510.029063,866.134203 509.518549,860.113242 C508.752779,853.122804 508.03806,845.928265 506.404416,836.845798 C503.851848,822.813897 493.896831,807.608419 478.989831,795.00522 C464.235986,782.657147 447.235881,774.850307 432.226779,773.625705 C414.869314,772.299053 401.647009,782.350996 391.028325,790.515012 L389.496784,791.739614 C378.418637,800.158755 368.106261,807.557394 353.709775,812.915029 C344.469477,816.282685 331.655584,818.476764 319.301153,820.670843 C309.49929,822.354671 300.15689,823.987474 292.601288,826.130528 C249.922344,838.376551 229.501797,886.646291 222.660914,906.801204 L222.201452,908.485032 C219.087318,917.465449 215.360568,928.58892 218.117342,941.549294 C222.252503,961.091906 238.027376,977.470961 250.534961,987.778031 C278.919521,1011.3006 296.43014,1044.97716 309.652445,1074.92889 C312.511321,1081.35806 313.889708,1088.39952 315.165992,1095.23688 C316.544379,1102.32937 317.922766,1109.67698 321.0369,1116.51435 C327.877783,1131.77085 336.301259,1143.76175 346.001018,1152.18089 C355.088162,1160.08978 366.21736,1165.44741 376.887096,1170.60095 C385.106366,1174.63193 393.580893,1178.76496 401.085444,1183.96952 C416.145598,1194.42967 430.950494,1208.41054 425.998512,1232.13721 C423.548046,1244.02606 412.469899,1255.50671 402.616985,1265.6607 C400.064417,1268.26298 397.716054,1270.76321 395.469794,1273.21241 C381.583822,1288.46892 372.802986,1298.72496 367.544696,1315.81837 C363.664792,1328.57464 363.358483,1351.38286 366.932079,1367.81294 C369.739904,1380.97742 373.262449,1393.68266 376.784993,1405.92869 L377.499712,1405.92869 C373.926117,1393.63164 370.454624,1380.92639 367.544696,1367.65987 C364.073203,1351.33184 364.328459,1328.67669 368.157312,1316.02247" mask="url(#d)"/>
  </g>
</svg>
