<svg xmlns="http://www.w3.org/2000/svg" width="330" height="544" viewBox="0 0 330 544" xmlns:xlink="http://www.w3.org/1999/xlink">
  <defs>
    <polygon id="a" points="0 752.463 0 .835 513.79 .835 513.79 752.463"/>
    <polygon id="c" points=".078 .797 499.143 .797 499.143 285.972 .078 285.972 .078 .797"/>
    <polygon id="e" points=".427 .798 392.317 .798 392.317 248.962 .427 248.962 .427 .798"/>
    <polygon id="g" points="0 368.697 0 .887 348.786 .887 348.786 368.697"/>
    <polygon id="i" points="0 325.001 0 .797 176.899 .797 176.899 325.001 0 325.001"/>
    <polygon id="k" points=".024 .797 246.365 .797 246.365 223.118 .024 223.118 .024 .797"/>
    <polygon id="m" points=".744 .873 1122.465 .873 1122.465 354.829 .744 354.829 .744 .873"/>
    <polygon id="o" points="962.029 1405.918 1438.505 1405.918 1438.505 .84 .082 .84 .082 1405.918 962.029 1405.918 962.029 440.224 .077 440.224 .077 1405.929 962.029 1405.929"/>
  </defs>
  <g fill="none" fill-rule="evenodd" transform="translate(-173 -201)" opacity=".073">
    <mask id="b" fill="white">
      <use xlink:href="#a"/>
    </mask>
    <path fill="#000000" d="M66.6001194,424.697083 C89.7929201,433.978779 118.656207,445.402406 129.639582,468.861638 C130.405864,481.66222 125.910343,492.575863 121.10831,504.101486 C114.416114,520.216959 106.753294,538.474361 111.044473,567.084426 C114.365028,588.809715 127.136394,602.73226 141.951179,618.898731 C148.081435,625.528514 154.313861,632.413289 160.29086,640.267032 C175.923012,660.768361 186.599874,683.921604 194.87572,703.91295 C203.20265,723.751301 209.74159,739.458787 231.555083,744.660617 C244.632962,747.822514 262.921558,750.015442 275.437496,751.2904 C282.385119,752.055375 288.821888,752.463362 294.594545,752.463362 C304.198613,752.463362 312.474458,751.392397 319.473166,749.352464 C334.287951,744.966607 343.738762,732.931001 355.590589,717.6825 C359.166572,713.143648 362.79364,708.5028 366.931562,703.60696 C369.741263,700.190072 373.419416,696.518192 377.352997,692.540322 C385.526671,684.329591 393.955773,675.812869 396.305704,668.979093 C397.174157,666.327179 396.91873,663.930258 396.714388,661.227346 C396.510046,659.136415 396.305704,656.84149 396.561132,654.08758 L396.612217,653.934585 L396.510046,653.832588 C388.591799,643.37793 378.936646,635.014204 369.639092,626.854471 C353.802598,612.982924 338.783472,599.97835 333.164071,578.508052 C330.150028,567.186422 331.273908,555.099818 336.43354,541.483263 C342.001856,527.152732 354.875393,511.343249 372.806391,497.114714 C380.877894,490.688924 389.460252,484.008143 398.553465,476.868377 C440.188118,444.484436 487.442172,407.714639 513.240331,375.687686 L513.291417,375.483693 C514.15987,371.556821 513.853357,367.068968 512.678391,362.12213 C509.357836,348.709569 498.83423,332.696092 483.764019,318.263565 C469.409003,304.596012 453.061655,294.294349 440.085947,290.724465 C439.013152,290.418475 436.969734,289.857494 434.773059,289.449507 C417.404001,285.522635 399.421917,288.225547 382.05286,290.826462 C367.033733,293.070389 352.780889,295.212319 338.936728,293.427377 C309.051732,289.500505 287.544751,269.509159 279.984103,238.655168 C269.971352,198.111495 297.557502,172.663327 324.2752,147.980134 C343.943104,129.77373 364.326204,111.006344 369.690177,86.1701563 C374.747638,62.8129203 368.106528,37.6197443 363.713178,20.9432898 C361.976272,14.21151 359.830683,7.47973022 357.531837,0.798948743 L356.867726,0.798948743 C359.217657,7.53072855 361.312161,14.3135067 363.100153,21.1472832 C367.442417,37.721741 374.083527,62.8129203 369.026066,86.0171613 C363.713178,110.649356 343.432249,129.365743 323.764345,147.470151 C296.995562,172.25534 269.256155,197.856503 279.319992,238.757165 C286.931726,269.917146 308.745219,290.061487 338.885643,293.988359 C352.780889,295.824298 367.033733,293.733367 382.155031,291.48944 C399.473003,288.888525 417.352915,286.236612 434.619802,290.061487 C436.765392,290.520472 438.859896,291.081454 439.93269,291.387444 C465.73085,298.425213 504.862315,333.308072 512.01428,362.224127 C513.240331,367.119966 513.444673,371.505823 512.678391,375.2797 C486.931317,407.255654 439.779434,444.025451 398.144781,476.409392 C389.051568,483.447161 380.46921,490.127943 372.346622,496.553733 C354.364538,510.884264 341.38883,526.744745 335.8716,541.27927 C330.609797,554.997821 329.485917,567.186422 332.49996,578.661047 C338.221532,600.28434 353.240658,613.492908 369.179323,627.415452 C378.425792,635.473189 387.978774,643.836915 395.89702,654.138578 C395.641593,656.892488 395.845935,659.187413 395.999191,661.278345 C396.305704,663.930258 396.510046,666.225183 395.641593,668.724101 C393.342747,675.404882 385.015817,683.921604 376.842142,692.081337 C372.959647,696.008209 369.230408,699.782085 366.420708,703.147975 C362.282785,708.043815 358.604632,712.684663 355.028649,717.274513 C343.227907,732.421017 333.879267,744.405625 319.268824,748.740484 C308.183279,752.004377 293.828263,752.667355 275.539667,750.67842 C262.972643,749.301465 244.735132,747.108537 231.708339,744.048637 C210.252444,738.948804 203.713505,723.343314 195.43766,703.657958 C187.110729,683.615614 176.484953,660.411373 160.852801,639.808047 C154.875801,631.954304 148.541204,625.120527 142.462033,618.439746 C127.698334,602.375271 114.978054,588.503725 111.75967,566.982429 C107.468491,538.576358 115.029139,520.420952 121.721335,504.356477 C126.523369,492.728858 131.12106,481.764216 130.354779,468.759642 L130.303693,468.606647 C119.115976,444.943421 90.1505183,433.366799 66.8555468,424.136101 C60.5209492,421.586185 53.9820098,419.036268 46.8300449,417.45532 C30.3805254,413.936435 14.697288,411.998498 -0.0153256392,411.386518 L-0.0153256392,412.100495 C14.6462025,412.610478 30.2783545,414.650412 46.6767885,418.118298 C53.777668,419.59725 60.3166074,422.198165 66.6001194,424.697083" mask="url(#b)"/>
    <g transform="translate(361)">
      <mask id="d" fill="white">
        <use xlink:href="#c"/>
      </mask>
      <path fill="#000000" d="M43.3159217,20.1653773 C45.098389,27.0515612 47.1864222,33.9377451 49.2235277,40.6198939 C53.6033046,55.412437 57.7284433,69.4398486 59.3581277,81.9369971 C60.6313187,90.8635317 60.6313187,100.04511 59.4090554,106.472215 C55.9969036,125.804539 43.0103559,140.852126 30.4821569,155.440634 C16.1205629,172.120501 1.24969256,189.463483 0.0783568844,213.539622 C1.65711367,234.963305 25.7458865,238.07484 51.2606333,241.339401 C55.945976,242.002515 60.8350292,242.563612 65.520372,243.328743 C84.2108152,246.338261 105.753206,252.306287 127.753946,260.569708 C135.494947,263.528216 142.879454,267.149839 150.111179,270.669444 C163.810714,277.504619 176.797261,283.982733 191.973698,285.666022 C193.908948,285.870057 195.844198,285.972075 197.881304,285.972075 C208.168687,285.972075 217.131951,283.064575 224.771097,280.36111 C232.563025,277.606637 239.234546,274.648128 245.702356,271.740628 C259.554673,265.619576 272.643076,259.804576 292.810421,258.019269 C296.426284,257.611199 300.093073,257.458173 303.708936,257.458173 C325.658748,257.458173 343.992698,263.273172 361.817371,268.833128 C377.14659,273.72997 391.711895,278.269751 406.786475,278.269751 C409.740278,278.269751 412.745009,278.116724 415.596957,277.708654 C438.463466,274.801154 456.033502,262.96712 469.274688,241.39041 C480.988044,222.364139 487.710493,198.288 493.312533,175.130019 C494.942217,168.345852 497.845093,155.644669 498.812718,146.46309 C499.83127,137.7916 498.507152,131.466512 494.636651,127.079758 C487.76142,119.020372 473.858175,118.561294 457.815969,118.051206 C450.482389,117.796162 442.996026,117.541118 435.458736,116.571952 C403.832672,112.49125 377.350301,108.35954 347.965053,96.0664262 C323.825353,86.0176986 299.634725,73.4185326 283.592519,64.696033 C256.60087,49.9034899 226.095215,31.6423505 204.552824,0.782044975 L203.737982,0.782044975 C225.382228,31.8973943 256.091594,50.4645864 283.286953,65.3081383 C299.278231,74.0816466 323.468859,86.6298039 347.710415,96.7295402 C377.095662,108.971645 403.67989,113.103355 435.356881,117.235066 C442.894171,118.204232 450.431461,118.459276 457.765041,118.765329 C473.654464,119.224408 487.455854,119.683486 494.22923,127.487828 C497.845093,131.772565 499.169211,137.944626 498.201586,146.412082 C497.132106,155.542651 494.280158,168.192826 492.650473,174.976992 C481.497321,221.037911 465.506042,270.771461 415.495102,277.04554 C412.643154,277.402601 409.689351,277.555628 406.786475,277.555628 C391.81375,277.555628 377.350301,273.015847 361.970154,268.170014 C344.145481,262.610058 325.760603,256.846067 303.708936,256.846067 C300.093073,256.846067 296.426284,256.999094 292.759494,257.305146 C272.490294,259.141462 259.350963,265.00747 245.447718,271.179532 C238.979908,274.036023 232.308387,276.994531 224.618314,279.749005 C216.979168,282.45247 208.015904,285.257952 197.881304,285.257952 C195.895126,285.257952 193.959875,285.155934 192.075553,284.951899 C177.0519,283.319619 164.116279,276.892514 150.416745,270.108347 C143.18502,266.537734 135.749585,262.865102 128.008584,259.957602 C105.905989,251.643173 84.3635981,245.675147 65.6222272,242.665629 C60.9368845,241.951507 56.0478313,241.288393 51.3624885,240.727296 C26.1533076,237.462735 2.26824533,234.3512 0.740416181,213.488613 C1.91175186,189.769536 16.7316946,172.528572 30.9914333,155.848704 C43.6214875,141.260196 56.6080353,126.059583 60.1220423,106.625241 C61.3443056,100.096119 61.2424504,90.8635317 60.0711147,81.8349796 C58.3905026,69.2358135 54.2144363,55.2594107 49.8346594,40.4668676 C47.8484815,33.7847188 45.811376,26.7965174 43.9270534,19.9613423 C42.7047901,15.5235793 41.4825267,10.9837989 40.1584081,6.59704469 C39.6491318,4.70972022 39.1398554,2.72037821 38.5287237,0.782044975 L37.8666644,0.782044975 C38.4268684,2.82239575 39.0380001,4.81173776 39.5472765,6.80107976 C40.8204674,11.1878339 42.0936584,15.6766056 43.3159217,20.1653773" mask="url(#d)"/>
    </g>
    <g transform="translate(413)">
      <mask id="f" fill="white">
        <use xlink:href="#e"/>
      </mask>
      <path fill="#000000" d="M34.6852679,60.5931816 C38.7250866,69.6847261 42.9694531,78.9294988 44.3501506,88.6850325 C48.3388323,115.295677 34.5318571,132.610472 21.2362513,149.414507 C12.133875,160.855551 3.59400512,171.632607 0.934883959,184.912391 C0.218966724,188.232337 0.423514505,190.275381 0.576925341,192.931338 C0.679199232,194.310392 0.781473123,195.791599 0.781473123,197.885719 L0.781473123,197.936795 C4.15651152,207.385872 14.3327637,214.025764 22.2589902,217.907547 C50.8956796,232.055624 97.5837108,238.746593 131.640916,243.649898 C136.805748,244.364963 141.919442,244.722495 147.186548,244.722495 C160.431017,244.722495 172.703884,242.526223 185.692668,240.176723 C199.601917,237.673995 213.971398,235.018038 230.539769,235.018038 C234.937546,235.018038 239.437597,235.222342 243.784238,235.579875 C244.653566,235.682027 247.159276,235.835255 250.380904,236.03956 C255.085503,236.243864 260.966251,236.550321 265.108344,236.907853 C278.966456,237.980451 289.960899,240.432104 300.546247,242.781604 C314.762318,245.948322 328.006787,248.961811 347.745648,248.961811 C349.791125,248.961811 351.938877,248.910735 354.086629,248.859659 C369.785671,246.408007 384.155153,229.859353 389.882491,207.743404 C394.638227,189.407087 393.564351,165.094867 376.280063,151.610779 C355.927559,135.828266 296.710976,121.935569 264.903796,119.381764 C258.102582,118.819927 252.477518,118.768851 247.005865,118.768851 C240.920569,118.717775 234.681861,118.666699 226.49995,117.951634 C204.562201,115.959666 186.459722,107.327806 165.800396,89.0936413 C140.28306,66.4158562 126.476085,48.8967564 106.686087,14.2671656 C104.538335,10.5386108 102.543994,5.9417625 100.703064,0.783077146 L99.9360102,0.783077146 C101.879214,6.04391469 103.924692,10.7429152 106.123581,14.5736222 C125.913578,49.3053651 139.771691,66.8244649 165.442437,89.5533261 C186.101763,107.940719 204.357653,116.623655 226.448813,118.615623 C234.630724,119.330688 240.920569,119.381764 247.005865,119.381764 C252.733203,119.43284 258.051445,119.483916 264.852659,120.045753 C296.557565,122.650634 355.5696,136.390103 375.922105,152.172616 C392.89957,165.401324 393.871172,189.458163 389.268847,207.590176 C383.592646,229.450744 369.376576,245.744017 353.984355,248.19567 C351.88774,248.246746 349.791125,248.297822 347.745648,248.297822 C328.160198,248.297822 314.813455,245.233256 300.699658,242.168691 C290.063173,239.768114 279.06873,237.316462 265.159481,236.243864 C261.017388,235.988484 255.13664,235.579875 250.432041,235.324494 C247.210413,235.171266 244.704703,235.018038 243.835375,234.966962 C239.437597,234.507277 234.988683,234.354049 230.539769,234.354049 C213.920262,234.354049 199.499643,236.958929 185.590394,239.512734 C172.60161,241.862234 160.37988,244.058506 147.186548,244.058506 C141.919442,244.058506 136.856885,243.75205 131.74319,242.985908 C97.7371216,238.13368 51.1002274,231.493787 22.5658119,217.294634 C14.7418592,213.515003 4.77015486,206.977263 1.49739036,197.783566 C1.44625341,195.740523 1.34397952,194.259316 1.29284258,192.880261 C1.03715785,190.275381 0.883747014,188.283413 1.59966425,185.014543 C4.20764846,171.99014 12.6963814,161.213084 21.7476207,149.823115 C35.1966374,132.968005 49.0036126,115.499981 45.0149309,88.5828803 C43.5830964,78.7762706 39.3898669,69.3782695 35.2989113,60.3378011 C33.662529,56.8135507 31.9750098,53.1360721 30.5431753,49.4075173 C25.27607,36.3831137 19.1396365,18.91509 15.2532287,0.783077146 L14.5884484,0.783077146 C18.5771301,19.0172422 24.7135636,36.6384942 29.929532,49.7139739 C31.4125034,53.3403764 33.0488857,57.0689312 34.6852679,60.5931816" mask="url(#f)"/>
    </g>
    <mask id="h" fill="white">
      <use xlink:href="#g"/>
    </mask>
    <path fill="#000000" d="M69.0389115,328.990156 C78.2713038,318.744891 86.4325346,307.786025 95.1038423,296.215502 C108.824912,277.916745 123.056058,259.006331 141.367819,243.35809 C142.643012,242.185747 143.969212,240.860488 145.142388,239.586202 C146.264558,238.413858 147.437735,237.190543 148.661919,236.120142 C160.597719,225.569048 174.267781,217.107785 187.478773,209.003321 C196.660158,203.294517 206.147588,197.48377 215.073935,190.90845 C222.164004,185.658389 229.305081,180.204442 236.089104,174.954381 C246.494673,166.849918 257.257296,158.59254 268.121935,151.150706 C273.273712,147.582703 278.578512,144.218586 284.291373,140.650584 C311.98855,122.963484 343.358281,102.931698 348.153004,66.7419558 C350.652381,47.6276556 345.653627,23.0084368 334.942012,0.886819973 L334.227904,0.886819973 C344.939519,22.9574654 349.989281,47.5766841 347.489904,66.6909844 C342.695181,102.625869 311.478473,122.504741 283.883312,140.038926 C278.272465,143.606929 272.916658,147.072988 267.764881,150.539048 C256.900242,158.031854 246.137619,166.391175 235.783058,174.393695 C228.897019,179.643756 221.80695,185.148675 214.614865,190.347764 C205.790535,196.872112 196.303104,202.733831 187.121719,208.391664 C173.910727,216.59807 160.189658,225.059334 148.253858,235.610427 C146.927658,236.680828 145.805488,238.006086 144.632312,239.127459 C143.459135,240.401745 142.285958,241.727003 140.90875,242.848376 C122.545981,258.496616 108.314835,277.458002 94.5937654,295.80773 C85.9224577,307.378253 77.7102192,318.286147 68.5288346,328.480441 C50.3190885,348.818056 26.19245,362.529381 -0.0255038462,368.0343 L-0.0255038462,368.696929 C26.3964808,363.141039 50.72715,349.327771 69.0389115,328.990156" mask="url(#h)"/>
    <mask id="j" fill="white">
      <use xlink:href="#i"/>
    </mask>
    <path fill="#000000" d="M28.1625773,303.181342 C37.0796227,290.181588 37.1305773,266.578115 36.1624409,247.460831 C35.4490773,232.014066 35.6528955,202.547959 45.79285,178.077835 C53.5888955,159.368387 72.0853955,142.698115 90.0213955,126.639597 C92.7729409,124.141605 95.4225773,121.694593 98.0722136,119.29856 C133.944214,86.5697695 151.778305,57.154642 167.42135,23.1513663 C168.797123,20.2455391 169.918123,17.1867737 171.090077,14.1789877 C172.46585,10.4574897 173.943532,6.68501235 175.777895,2.9635144 C176.134577,2.24980247 176.542214,1.48511111 176.898895,0.771399177 L176.134577,0.771399177 C175.82885,1.43413169 175.523123,2.04588477 175.166441,2.60665844 C173.332077,6.3791358 171.854395,10.2025926 170.478623,13.9240905 C169.357623,16.9318765 168.185668,19.9396626 166.809895,22.8454897 C151.16685,56.8487654 133.434668,86.1619342 97.6136227,118.839745 C95.0149409,121.286757 92.2633955,123.68279 89.5628045,126.078823 C71.6268045,142.2393 52.9774409,158.909572 45.1813955,177.822938 C35.0414409,202.395021 34.7866682,232.014066 35.5509864,247.460831 C36.4681682,266.527136 36.3662591,289.977671 27.6020773,302.824486 C21.2327591,312.051761 11.0928045,318.628107 -0.0152863636,324.235844 L-0.0152863636,325.000535 C11.2966227,319.23986 21.6403955,312.663514 28.1625773,303.181342" mask="url(#j)"/>
    <g transform="translate(77)">
      <mask id="l" fill="white">
        <use xlink:href="#k"/>
      </mask>
      <path fill="#000000" d="M138.842371,11.3373509 C129.307145,22.499794 122.386416,37.7398419 115.670746,52.4701892 C114.594189,54.7128719 113.62016,56.9045844 112.594867,59.096297 C102.803318,80.1469317 90.6535949,106.294572 77.3247846,124.185063 C70.0964682,133.920345 58.2030682,140.954213 45.5919631,148.344872 C27.7005985,158.895674 9.24532273,169.752297 2.01700638,189.783531 C-0.597491023,197.021279 -0.648755678,204.921638 1.91447707,214.80983 C4.42644517,220.365566 8.78394084,223.11795 14.7819055,223.11795 C24.6759839,223.11795 36.4155899,215.523411 41.2344674,211.445806 C50.7696933,203.443507 59.1770967,192.332034 67.2769122,181.526381 C71.5831432,175.817734 76.0431682,169.752297 80.6569871,164.298501 C82.9126319,161.749998 90.6535949,152.983147 97.1129414,149.211363 C112.389809,140.240632 132.024171,133.410644 152.786357,126.121926 C181.699622,116.080824 211.484387,105.682932 230.042192,88.7608719 C239.987535,79.8920814 245.831705,65.926285 246.344352,50.6352671 C246.754469,34.1719377 241.064093,18.6260695 230.093456,6.64810539 C228.1454,4.55833293 226.043549,2.51953054 223.787904,0.786548503 L222.711346,0.786548503 C225.120785,2.67244072 227.478959,4.81318323 229.632075,7.15780599 C240.397652,18.8809198 246.139293,34.3248479 245.626647,50.584297 C245.21653,65.6714347 239.372359,79.484321 229.632075,88.2511713 C211.125534,105.020321 181.34077,115.418213 152.632563,125.459315 C131.767848,132.748034 112.133485,139.628992 96.8053535,148.599722 C90.1409483,152.575387 82.3999854,161.291267 80.1956052,163.89074 C75.5305216,169.344537 71.0704966,175.359004 66.713001,181.16959 C58.6644501,191.873303 50.3083114,202.933806 40.8243502,210.885135 C36.0567373,214.91177 24.5221899,222.506309 14.7819055,222.506309 C9.04026411,222.506309 4.93909172,219.855866 2.52965293,214.55498 C0.0689494917,204.921638 0.120214147,197.123219 2.6834469,189.987411 C9.75796928,170.211028 28.1619804,159.405375 45.9508157,148.956513 C58.6131855,141.514884 70.5578501,134.430046 77.9399604,124.541854 C91.1662414,106.651363 103.367229,80.401782 113.210043,59.4021174 C114.235336,57.1594347 115.209365,54.9167521 116.285922,52.7250395 C122.950327,37.9946922 129.922321,22.9075545 139.406282,11.7960814 C142.943543,7.56556647 147.09598,3.89572216 151.658534,0.786548503 L150.530712,0.786548503 C146.224481,3.8447521 142.225838,7.36168623 138.842371,11.3373509" mask="url(#l)"/>
    </g>
    <path fill="#000000" d="M184.349158,428.611669 C182.345467,420.649785 180.239021,412.381673 179.211487,402.684506 C178.54359,396.253753 178.183953,387.475264 179.211487,382.065266 C182.037206,368.029892 199.248406,350.983292 217.487139,334.498107 C228.379003,324.698864 242.66173,313.113301 256.019675,311.020754 C257.715107,310.765566 259.564669,310.66349 261.671114,310.66349 C271.638197,310.66349 284.276868,313.725754 296.504527,316.73698 C305.598205,318.931602 314.28087,321.024148 321.16535,321.636601 C324.556213,321.942827 328.101206,322.09594 331.697576,322.09594 C346.237186,322.09594 360.263029,319.595092 373.775105,317.094244 C386.311024,314.899621 398.076291,312.756037 409.481922,312.756037 C422.788491,312.756037 433.526224,315.716225 443.236424,321.942827 C460.242116,332.915938 464.86602,348.176217 467.332103,363.181308 C463.478849,394.722621 440.205197,415.699125 419.654512,434.276857 C405.988305,446.52591 391.705579,456.274116 377.885243,465.767132 C364.989687,474.494583 351.734495,483.579298 338.736186,494.807597 C308.115664,521.092025 292.70265,558.19645 297.583438,594.075969 C298.867855,603.313797 302.258719,612.908889 305.546828,622.29983 C308.886315,631.639734 312.277178,641.285863 313.458842,650.421616 C315.668041,666.600574 312.739568,679.25793 304.930308,688.087456 C297.943075,695.998303 287.153964,700.33651 274.412539,700.33651 C261.773867,700.33651 248.672805,695.947265 239.37362,688.699909 C232.95153,683.545099 227.813859,677.114345 223.652345,671.551234 C205.619118,647.359353 190.719871,614.440021 178.029823,570.802767 C176.437144,545.896358 180.393151,529.104947 184.246405,512.977026 C186.712487,502.667406 188.973063,492.919201 189.79509,481.384676 C191.644652,457.703172 187.945528,442.902232 184.349158,428.611669 M183.527131,512.772876 C179.725254,529.002872 175.769247,545.84532 177.361925,570.95588 C190.051974,614.69521 205.053974,647.665579 223.087201,671.959535 C227.300092,677.573685 232.48914,684.004438 238.962606,689.159248 C248.313168,696.610756 261.619737,701 274.412539,701 C287.308095,701 298.354088,696.610756 305.444075,688.495758 C313.407466,679.564156 316.284562,666.70265 314.12674,650.319541 C312.893698,641.13275 309.554212,631.486621 306.214726,622.095679 C302.926616,612.755776 299.484376,603.160684 298.302712,593.973894 C293.421924,558.349563 308.783561,521.398251 339.198576,495.266936 C352.094132,484.089675 365.400701,475.055998 378.193503,466.328547 C392.116592,456.835531 406.450696,446.98525 420.065525,434.736196 C440.718965,416.158465 464.09537,395.028847 468,363.181308 L468,363.079232 L468,363.028195 C465.533918,347.972066 460.80726,332.456598 443.544684,321.381412 C433.731731,315.052735 422.942621,312.143584 409.481922,312.143584 C397.973538,312.143584 386.20827,314.287169 373.672352,316.532829 C360.160276,318.931602 346.18581,321.381412 331.697576,321.381412 C328.152583,321.381412 324.607589,321.228299 321.268103,321.024148 C314.383623,320.360658 305.700958,318.268111 296.658657,316.022451 C284.379622,313.062263 271.689573,310 261.671114,310 C259.564669,310 257.66373,310.153113 255.916922,310.45934 C242.353469,312.500848 228.019366,324.137449 217.024749,334.038768 C198.683262,350.57499 181.420686,367.774703 178.594966,381.912152 C177.464679,387.424227 177.824316,396.30479 178.54359,402.735544 C179.519747,412.534787 181.677569,420.802898 183.681261,428.764783 C187.277631,443.004308 190.976755,457.75421 189.17857,481.333638 C188.253789,492.817126 185.993213,502.565331 183.527131,512.772876"/>
    <path fill="#000000" d="M225.273003,436.603465 C227.216363,410.741097 234.324971,391.510106 247.468225,376.002887 C265.93015,354.119346 283.522676,352.384986 315.485842,349.069297 C317.78719,348.865255 320.088538,348.610202 322.492168,348.40616 C334.203472,347.130895 345.710211,345.039461 355.938424,343.20308 C365.041534,341.570741 373.735515,339.887392 381.355534,339.224254 C384.781985,338.86718 388.157296,338.663138 391.276901,338.663138 C414.597226,338.663138 423.956041,347.896054 427.689339,355.598653 C433.51942,367.841193 429.530417,385.643888 417.358844,400.794033 C414.443803,403.038499 412.193596,405.844081 409.99453,408.598653 C407.130631,412.373436 404.420154,415.893167 400.175446,417.93359 L400.073164,417.984601 C386.520781,430.635226 371.229603,441.041386 355.017885,452.008662 C331.953265,467.668912 308.172669,483.839269 286.949127,508.27334 C283.164689,512.558229 279.635955,517.557267 276.209504,522.403272 C266.748407,535.666025 257.79872,548.26564 243.786068,549.285852 C232.33047,543.266603 230.387109,530.973051 228.443749,519.087584 C227.932338,515.822907 227.472068,512.762271 226.807235,509.905679 C226.704952,503.12127 226.295824,495.520693 225.886695,487.46102 C225.017297,471.443696 224.045617,453.181906 225.273003,436.603465 M226.142401,509.956689 C226.807235,512.915303 227.267504,515.924928 227.830056,519.189605 C229.619993,530.666987 231.767918,543.776708 243.530363,549.948989 L243.632645,550 L243.734927,550 C258.105567,548.979788 267.106394,536.227141 276.720914,522.760346 C280.147366,518.016362 283.676099,513.017324 287.460538,508.681424 C308.581798,484.349374 332.413534,468.179018 355.427014,452.518768 C371.58759,441.551492 386.92991,431.145332 400.482292,418.545717 C404.829283,416.403272 407.744324,412.628489 410.557082,409.057748 C412.705007,406.354187 414.904073,403.497594 417.819113,401.304139 C430.195251,385.847931 434.286536,367.739172 428.251891,355.292589 C424.467452,347.436959 414.955214,338 391.276901,338 C388.106154,338 384.730844,338.204042 381.304393,338.510106 C373.684374,339.275265 364.939252,340.856593 355.836142,342.539942 C345.65907,344.376323 334.10119,346.467757 322.441027,347.743022 C320.037397,347.998075 317.736049,348.202117 315.434701,348.45717 C284.340933,351.568816 265.623303,353.558229 246.956814,375.492782 C233.660137,391.153032 226.551529,410.537055 224.557028,436.552454 C223.380783,453.181906 224.301322,471.443696 225.170721,487.46102 C225.63099,495.520693 226.040119,503.172281 226.142401,509.956689"/>
    <path fill="#000000" d="M298.118627 404.577973C311.464104 390.578947 333.792114 385.67154 350.268646 385.67154 353.245714 385.67154 356.222782 385.826511 358.994535 386.136452 359.713138 386.962963 360.534398 387.789474 361.253001 388.512671 362.382233 389.545809 363.408808 390.578947 364.230069 391.818713 362.792863 400.083821 355.606837 406.747563 349.498715 411.603314 333.792114 424.104288 312.336693 433.97076 293.499038 437.380117 292.369806 436.708577 291.394559 435.727096 290.470642 434.6423 289.598053 433.712476 288.725464 432.834308 287.750217 432.059454 287.390916 421.469786 290.778614 412.223197 298.118627 404.577973zM287.031615 432.421053L287.185601 432.524366C288.212176 433.195906 289.033436 434.125731 289.906025 435.055556 290.9326 436.140351 292.010504 437.32846 293.293723 437.948343L293.345052 438 293.499038 438C312.490679 434.6423 334.100087 424.724172 349.909345 412.119883 356.171453 407.160819 363.460137 400.342105 364.948671 391.818713L365 391.663743 364.897342 391.508772C364.024754 390.269006 362.844192 389.132554 361.766288 388.047758 360.945028 387.221248 360.123768 386.446394 359.353836 385.619883L359.302508 385.464912 359.148521 385.464912C356.376768 385.154971 353.297043 385 350.268646 385 333.689457 385 311.156132 390.062378 297.605339 404.11306 290.213998 411.964912 286.620985 421.366472 287.031615 432.266082L287.031615 432.421053zM558.882055 680.286914C532.004891 680.286914 500.477875 667.655107 482.389441 649.573286 474.878143 642.187754 469.155248 633.223246 463.483451 624.004064 450.862425 603.324573 439.314442 580.862368 429.146085 557.07586 429.299377 554.936603 428.839502 552.950149 428.328529 551.1165 428.021945 549.894067 427.766459 548.671634 427.613167 547.55107 429.861447 522.338391 464.658688 493.713086 493.017674 493.713086 495.52144 493.713086 497.923012 493.916825 500.171292 494.375237 510.544037 496.514495 524.084814 504.714982 540.487038 518.823896 564.349463 539.503387 597.307203 575.972636 611.307855 610.811975 613.045162 614.988621 615.089053 620.234896 615.753318 624.61528 618.51257 642.187754 611.716633 657.264427 595.67209 669.335952 586.065803 676.568681 573.700264 680.286914 558.882055 680.286914M616.366485 624.513411C615.70222 620.082092 613.65833 614.784882 611.97212 610.557302 597.92037 575.616093 564.860436 539.044974 540.844719 518.314549 524.391398 504.154701 510.748427 495.852344 500.273486 493.764021 498.025206 493.254674 495.572537 493 493.017674 493 464.352105 493 429.197183 522.083717 427 547.55107 427.102195 548.773503 427.408778 550.046871 427.766459 551.269304 428.12414 553.153888 428.635113 555.038472 428.430724 557.07586L428.430724 557.17773 428.481821 557.228664C438.650178 581.117041 450.300355 603.630182 462.921381 624.258737 468.593178 633.630723 474.36717 642.595232 481.878469 650.082633 500.120194 668.266323 531.851599 681 558.882055 681 573.853556 681 586.372387 677.179897 596.131966 669.896234 612.380898 657.62097 619.227932 642.340558 616.366485 624.513411"/>
    <path fill="#000000" d="M579.533458,626.95122 C575.876988,641.185741 563.5364,649.290807 545.558754,649.290807 C530.475814,649.290807 513.666207,643.465291 502.646011,634.499062 C485.328561,620.365854 479.488366,600.305816 473.698954,575.534709 C473.241895,564.896811 476.085817,555.879925 481.621307,550.003752 C486.293463,545.19137 492.793855,542.709193 500.817776,542.709193 C503.001502,542.709193 505.388364,542.91182 507.876795,543.317073 C535.351108,547.724203 575.166008,581.968105 579.888949,612.412758 C580.49836,616.617261 580.650713,622.746717 579.533458,626.95122 M552.617773,567.227017 C538.296598,554.157598 521.233069,544.73546 507.978364,542.658537 C505.489933,542.202627 503.10307,542 500.817776,542 C492.590718,542 485.988757,544.58349 481.164248,549.649156 C475.425621,555.525328 472.632484,564.744841 473.038758,575.636023 C478.878954,600.559099 484.71915,620.771107 502.290521,635.005629 C513.310717,644.123827 530.374245,650 545.558754,650 C563.790322,650 576.435615,641.641651 580.244439,627.153846 C581.310909,622.84803 581.107772,616.617261 580.49836,612.311445 C578.314635,597.874296 568.106988,581.461538 552.617773,567.227017"/>
    <g transform="translate(316)">
      <mask id="n" fill="white">
        <use xlink:href="#m"/>
      </mask>
      <path fill="#000000" d="M75.0958984,65.0057748 C76.2201235,74.4032276 77.7020565,91.7680861 74.4315836,103.463829 C69.0659642,122.718393 53.4801172,139.266081 38.4563828,155.354112 C17.1983095,177.928428 -4.7240785,201.319914 1.97017053,232.576659 C5.64945243,249.430787 14.6943538,259.900775 29.9224928,264.650574 C43.1065863,268.787496 59.3056469,268.225692 77.5998542,267.255303 C110.917796,265.416671 133.5556,270.881494 146.637491,275.886659 C159.923787,280.993971 172.085858,289.369961 183.992423,297.541659 C199.833775,308.471305 214.85751,318.839147 231.823087,321.137438 C238.619539,322.00568 244.240664,321.801388 250.628306,320.371341 C266.469659,316.898369 278.427325,308.87989 291.151508,300.401754 C312.665087,286.101282 334.945183,271.239006 378.176746,279.870362 C387.630456,281.708994 397.084166,284.569088 407.048888,287.480256 C438.884897,296.928782 471.845131,306.5816 508.63795,287.122744 C541.955892,270.370763 562.907358,239.726895 583.092307,210.053416 C592.546018,196.212603 602.306335,181.861058 613.088675,169.297072 C626.937083,153.260114 645.742302,131.247603 668.840016,138.857496 C678.140423,141.87081 687.696336,143.35193 696.996743,144.781978 C711.713871,147.131341 726.890909,149.531777 740.534912,158.11206 C750.346331,164.240834 757.909299,172.974336 765.318964,181.452473 C768.74274,185.385103 772.370921,189.522025 776.101304,193.301435 C784.379688,201.626353 791.073937,211.43239 797.563782,220.931989 C803.082705,229.001541 808.754931,237.275386 815.44918,244.73206 C824.44298,252.648393 832.312555,259.594336 841.51076,267.86818 C852.599707,277.980657 862.717732,289.982838 872.47805,301.576435 C891.283268,323.844313 908.913161,344.835362 932.061976,351.628086 C948.363239,356.480032 965.226614,355.816081 986.740193,349.636235 C998.186848,346.316482 1013.36389,339.88127 1024.04402,334.978251 C1045.71091,325.172213 1070.13725,311.688912 1089.24908,299.073853 C1104.17061,289.216742 1115.51506,275.324855 1122.46481,258.726093 L1122.46481,256.989607 C1115.66836,274.150173 1104.11951,288.450645 1088.94247,298.460975 C1069.77954,311.076034 1045.4043,324.559336 1023.73742,334.365374 C1013.10838,339.21732 998.033545,345.703605 986.58689,349.023357 C965.124412,355.152131 948.41434,355.765008 932.215279,351.066282 C909.32197,344.324631 891.692077,323.384654 872.989061,301.16785 C863.228744,289.574254 853.110718,277.520999 841.919569,267.408522 C832.721365,259.083605 824.90289,252.086588 815.90909,244.221329 C809.265942,236.866801 803.644817,228.541883 798.074793,220.523404 C791.584949,211.023805 784.839599,201.217768 776.612315,192.841777 C772.77973,189.062367 769.253752,184.976518 765.829975,180.992815 C758.42031,172.463605 750.806241,163.730103 740.89262,157.550256 C727.146414,148.9189 711.867174,146.518463 697.098945,144.220173 C687.798538,142.68798 678.242626,141.20686 669.095522,138.244619 C645.537898,130.481506 626.477173,152.647237 612.628765,168.837414 C601.795324,181.503546 592.035006,195.804018 582.581296,209.644831 C562.345245,239.31831 541.495981,269.962178 508.382444,286.509867 C471.79403,305.91765 438.935998,296.213758 407.202192,286.867379 C397.23747,283.905138 387.783759,281.096117 378.278948,279.206412 C334.842981,270.575055 312.460683,285.437331 290.7938,299.891022 C278.171819,308.318086 266.214153,316.234419 250.423902,319.70739 C244.189563,321.137438 238.619539,321.34173 231.92529,320.422414 C215.164117,318.22627 200.140382,307.909501 184.350131,296.928782 C172.494667,288.808157 160.179293,280.33002 146.841896,275.222709 C133.708903,270.268617 111.019998,264.701647 77.548753,266.540279 C46.2748568,268.276765 10.7084651,270.31969 2.58338418,232.42344 C-4.00866257,201.524206 17.8115232,178.234867 38.916293,155.711624 C54.0422297,139.623593 69.6791779,123.024831 75.0447973,103.617048 C78.2130678,92.4831097 77.1910451,76.4461521 75.8113144,64.9036285 C73.5117632,46.4151616 68.0439414,27.4159634 62.2695129,7.34422995 C61.6562992,5.1991592 61.0941867,3.05408844 60.4298719,0.857944575 L59.714456,0.857944575 C60.3787708,3.10516156 61.0430856,5.30130542 61.6562992,7.54852241 C67.4307278,27.6202559 72.8985495,46.5173078 75.0958984,65.0057748" mask="url(#n)"/>
    </g>
    <g>
      <mask id="p" fill="white">
        <use xlink:href="#o"/>
      </mask>
      <path fill="#000000" d="M368.157312,1316.02247 C373.364552,1299.13316 382.145387,1288.92814 396.031359,1273.62061 C398.175516,1271.17141 400.574931,1268.77323 403.127499,1266.11993 C412.980413,1255.91491 424.211714,1244.33221 426.662179,1232.23926 C431.665214,1208.15542 416.758214,1193.97044 401.442804,1183.40825 C393.887201,1178.20369 385.412674,1174.07065 377.193404,1170.0907 C366.57472,1164.88614 355.547624,1159.5285 346.460481,1151.67064 C336.811772,1143.30252 328.490399,1131.41367 321.649516,1116.2082 C318.535383,1109.47288 317.208047,1102.17629 315.82966,1095.13483 C314.502325,1088.24644 313.174989,1081.15396 310.265061,1074.62274 C296.889603,1044.72204 279.481086,1010.94342 250.943372,987.26778 C238.537889,976.96071 222.865119,960.73473 218.729959,941.396219 C216.075287,928.69097 219.802037,917.567499 222.814068,908.689133 L223.324582,907.05633 C230.114414,886.952442 250.330755,838.886802 292.70339,826.793855 C300.310044,824.599775 309.652445,823.017997 319.454307,821.283144 C331.808738,819.191115 344.622631,816.946011 353.91398,813.476305 C368.46362,808.11867 378.827048,800.669006 389.854143,792.249865 L391.436736,791.076288 C401.953317,783.014323 415.073519,772.962379 432.175727,774.289031 C446.980624,775.513634 463.929678,783.218423 478.530369,795.566496 C493.335266,808.016619 503.239231,823.120048 505.740748,836.998874 C507.374392,845.97929 508.089111,853.224854 508.80383,860.164267 C509.467498,866.236253 509.92696,871.900039 511.101142,878.176126 C516.563638,909.556559 531.623792,934.609881 555.924243,952.51969 C575.630071,967.061842 601.921525,977.266861 634.134938,982.828596 C675.894957,990.07416 711.426709,976.450459 724.649013,970.276423 C745.784279,960.377554 768.451087,936.650885 788.00376,915.16932 C807.40328,893.789805 817.715657,881.135581 820.012968,847.203893 C820.727687,836.284522 819.859814,825.773353 818.991941,815.466283 C818.685633,811.486326 818.277222,807.404318 818.073016,803.322311 C817.919862,800.362855 817.664605,797.352374 817.358297,794.137793 C816.388321,783.830724 815.520448,773.166479 817.358297,762.196084 C821.289252,739.591966 834.358402,729.591048 857.433621,731.836152 C887.502876,734.591507 913.794331,754.542319 924.413015,782.606122 C932.836491,804.904089 926.046659,828.222557 920.635214,847.101842 L919.767341,850.163348 C910.833351,881.288656 898.683126,905.576602 882.652996,924.404862 C873.514801,935.018082 863.508733,945.019001 853.757922,954.713769 C850.082224,958.2345 846.406525,961.959332 842.832929,965.633139 C837.727793,970.735649 832.112142,975.480983 826.598595,980.022216 C819.808763,985.686002 812.712622,991.706963 806.688561,998.493301 C798.162983,1008.13704 791.832613,1019.05641 786.676425,1028.39401 C769.982628,1059.11111 758.342916,1086.20544 751.093622,1111.00364 C744.559047,1133.45468 726.537914,1151.26244 702.850079,1158.7121 C672.27031,1168.25379 628.519288,1167.13124 572.771194,1155.44649 C545.458712,1149.62963 529.122275,1134.01595 524.4766,1108.80956 C519.116207,1080.13345 499.665635,1065.84643 479.194037,1050.743 C473.884695,1046.86509 468.47325,1042.83411 463.163907,1038.59903 C441.416025,1020.74024 452.238915,1003.85094 463.725472,985.941127 C468.881661,977.930187 474.139952,969.715147 476.386212,961.296006 C480.010859,948.131531 475.365184,934.252705 470.872664,920.78208 C468.524301,913.740617 466.329092,907.15838 465.205962,900.627168 C459.947671,869.60391 454.638329,845.111864 438.863456,835.008895 C430.388929,829.65126 419.514988,828.885883 405.526913,832.814816 C403.280653,833.376092 400.830187,834.141468 398.175516,834.906845 C392.764071,836.539648 386.637907,838.325526 381.634873,839.397053 C372.905089,841.387032 363.817946,842.560609 354.220289,843.683161 C343.958964,845.009814 333.442382,846.285441 321.853721,848.734646 C304.241,852.357427 288.721384,860.827593 277.081672,873.175666 C265.595114,885.319639 258.34582,900.627168 255.946406,917.516474 C254.925378,924.711013 254.61907,930.885049 256.610073,937.620362 C262.429929,957.265023 280.246857,971.092824 295.970678,983.287822 C299.595325,986.094202 303.066818,988.747507 306.334106,991.502862 L306.895671,991.911063 C322.108978,1004.51426 341.049036,1020.12794 340.334317,1041.60951 C339.568546,1063.7544 342.427423,1079.77628 349.77882,1095.33893 C361.316429,1119.72893 377.652866,1134.57723 406.037427,1146.46608 C408.181584,1147.28248 410.27469,1148.20093 412.418848,1149.06836 C422.22071,1153.09934 432.226779,1157.23237 441.569179,1162.48796 C449.226884,1166.77407 454.332021,1172.18273 459.743466,1177.84651 C462.755496,1181.01007 465.818579,1184.22465 469.341123,1187.33718 C473.578386,1191.01099 477.662496,1195.90939 481.899759,1201.11395 C492.620547,1214.38048 504.770772,1229.38186 523.557675,1225.75908 C533.155333,1223.92217 542.650887,1217.28891 552.708006,1210.3495 C561.488842,1204.22649 570.575985,1197.89937 580.786259,1193.81737 C598.092672,1187.08205 622.444175,1185.44925 648.276167,1183.7144 C663.948937,1182.69389 680.183272,1181.57134 694.988168,1179.27521 C728.682071,1173.9686 751.502033,1162.13078 764.673285,1143.14945 C768.604241,1137.58771 771.207861,1131.2606 773.607275,1125.13759 C775.496175,1120.34123 777.487179,1115.44282 780.039747,1110.95261 C781.928648,1107.53393 784.940678,1104.88062 787.850606,1102.27834 C789.433199,1100.84964 791.117894,1099.31889 792.547332,1097.68609 C795.253055,1094.67561 797.856674,1091.56307 800.409243,1088.45054 C803.166017,1085.08289 806.075945,1081.51113 809.190078,1078.1945 C813.937855,1072.93891 819.400352,1068.19358 824.607591,1063.44825 C829.457471,1059.06009 834.511557,1054.51886 839.10618,1049.62045 C842.883981,1045.64049 845.896012,1041.30336 848.856991,1037.1193 C852.17533,1032.32294 855.54472,1027.52658 860.139343,1023.0874 C867.797048,1015.43363 875.812113,1007.11654 882.244585,997.880999 C887.758133,989.921085 890.208599,982.16527 892.914321,974.001255 C893.680092,971.45 894.547965,968.84772 895.517941,966.194415 C897.559996,960.224479 901.286746,954.611719 904.911393,949.152033 C907.05555,945.886427 909.199708,942.620821 910.986505,939.30419 C917.827389,926.803042 923.647245,914.301893 928.395022,902.15792 C929.671306,898.688214 930.845487,895.218507 932.121772,891.850851 C932.632285,890.371123 933.142799,888.993446 933.653313,887.564743 C936.001676,881.084556 938.503193,874.502319 940.953658,868.124182 C947.896644,849.602072 955.19699,830.518686 958.92374,813.119129 C961.323154,801.995658 963.41626,790.106811 960.863692,778.422064 C952.184959,738.214289 913.232766,696.27166 877.496808,688.617896 C860.956165,685.14819 840.127207,685.35229 818.838787,689.332248 C783.51124,695.96551 770.44209,713.007892 772.228888,750.205186 C772.637299,758.879453 773.454121,767.655769 774.16884,776.125935 C775.853535,794.443944 777.487179,811.792476 775.496175,828.528708 C774.424097,838.172451 771.207861,846.795692 768.910549,852.357427 C763.703309,864.858576 751.859392,886.238091 737.054495,909.403484 C722.453804,932.211702 702.90113,948.794858 683.246354,955.019919 C645.978855,966.806716 596.101669,955.121969 567.053441,927.721493 C552.503801,913.995743 537.035237,890.524199 545.662918,856.949686 C546.173431,854.908682 547.041305,852.867678 547.960229,850.673599 C549.185462,848.071319 550.308592,845.315964 550.97226,842.356509 C555.46478,834.549669 561.080431,827.610256 566.593979,820.823918 C578.94841,805.51639 590.588121,791.127313 586.146652,770.513174 C585.32983,766.686292 583.645135,762.65531 581.858337,758.318176 C578.182639,749.43981 574.455889,740.357343 578.846307,734.897658 C586.504012,725.355965 596.969542,715.406071 608.098741,704.843877 C627.294055,686.627917 647.204088,667.697607 652.819739,649.940874 C658.537492,632.184141 646.846729,614.478433 641.843695,606.977744 C636.483301,598.864753 630.306085,590.496638 623.822562,581.516221 C618.768476,574.678858 613.561237,567.535345 608.609254,560.442857 C604.525145,554.523945 600.543138,548.86016 596.612183,543.196374 C587.525039,530.184975 578.94841,517.887927 570.116523,504.774477 C566.64503,499.518893 563.122486,493.906132 559.702044,488.497472 C553.984291,479.415005 548.062332,470.128438 542.140373,462.219548 C529.173326,444.871015 514.572635,437.727502 498.593557,440.993108 C482.716581,444.207689 465.51227,456.453712 450.605271,467.628208 C448.563216,469.107936 446.572213,470.638689 444.58121,472.169441 C416.758214,493.038706 385.157417,516.663325 376.836045,542.941249 C369.790956,565.290241 382.809055,575.69936 396.592924,586.720781 C398.073414,587.894358 399.553903,589.11896 401.034393,590.343562 C410.172588,597.895277 417.217676,605.702116 422.833327,612.284353 C430.542083,621.315795 437.331915,632.133116 443.917542,642.59326 C448.563216,649.940874 452.953634,657.033362 457.344052,662.748173 C472.455256,682.54591 492.058982,691.271201 510.947988,699.792392 C529.530686,708.058458 548.674948,716.528623 563.173537,735.509959 C563.173537,736.22431 563.224588,736.836611 563.224588,737.550963 C563.27564,739.540941 563.377742,741.53092 562.816177,743.367824 C545.611866,762.043008 524.221343,766.635267 497.419375,757.7569 C489.251156,755.001545 481.18504,750.664412 472.60841,745.970103 C453.464148,735.612009 433.656217,724.947764 410.887307,731.887177 C394.499818,736.785586 383.115363,748.368283 372.088267,759.542779 C361.214326,770.615224 350.034076,781.993821 333.74869,787.708631 C324.253136,790.923212 314.400222,791.892689 300.616352,792.964216 C265.79932,795.617521 249.00342,799.597479 234.709037,817.711388 C215.871082,841.693182 192.64271,883.992986 185.495518,901.494594 C182.687693,908.485032 180.951946,913.689592 180.135125,917.516474 C174.060012,948.029481 192.795864,971.858201 209.744918,989.308783 C213.880079,993.441816 218.372599,997.319723 222.711965,1000.99353 C226.642921,1004.36119 230.675979,1007.77987 234.402729,1011.40265 C241.958331,1019.00539 248.033444,1027.98581 253.904351,1036.7111 C256.916382,1041.15028 259.928412,1045.69151 263.144649,1050.02865 C286.526175,1081.15396 293.571264,1108.35033 286.066713,1138.14899 C280.553165,1159.5285 268.096631,1186.5718 239.456814,1193.91942 C228.889181,1196.62375 217.555777,1198.00142 205.558706,1199.32808 C194.480559,1200.65473 182.891898,1201.98138 171.609546,1204.53264 C161.756632,1206.77774 152.414232,1209.68617 143.429191,1212.5946 C130.819503,1216.47251 118.873483,1220.24837 106.570104,1221.77912 C84.9753751,1224.68755 65.8311122,1220.14631 47.2994657,1215.91123 C30.963028,1212.08435 15.3923608,1208.51259 0.0769504815,1210.5536 L0.0769504815,1211.21692 C15.3413094,1209.12489 30.8098739,1212.74768 47.1463116,1216.52353 C65.7290094,1220.86067 84.9243237,1225.29985 106.672206,1222.44244 C119.077689,1220.86067 130.972657,1217.13583 143.633397,1213.15588 C152.567386,1210.3495 161.960838,1207.44107 171.813752,1205.19596 C183.096104,1202.64471 194.53161,1201.31805 205.609757,1200.04243 C217.65788,1198.61372 228.991284,1197.3381 239.558917,1194.58274 C262.532032,1188.66383 278.817418,1169.22327 286.628278,1138.35309 C294.285983,1108.29931 287.189843,1081.00088 263.706214,1049.56942 C260.541029,1045.28331 257.477947,1040.74208 254.465916,1036.40495 C248.543957,1027.62863 242.468845,1018.54616 234.811139,1010.99445 C231.08439,1007.26962 227.051332,1003.85094 223.171428,1000.5343 C218.832061,996.809472 214.339541,992.98259 210.255432,988.798532 C193.40848,971.55205 174.774731,947.876406 180.849844,917.618524 C181.615614,913.842667 183.351361,908.689133 186.159186,901.74972 C193.204275,884.299137 216.381596,842.050358 235.21955,818.170613 C249.309728,800.260805 266.105628,796.178797 300.667404,793.576517 C314.502325,792.50499 324.355238,791.586539 334.003947,788.218882 C350.391436,782.606122 361.673788,771.07445 372.598781,760.05303 C384.034287,748.368283 394.806126,737.346862 411.040461,732.499478 C433.605166,725.713141 453.310993,736.32636 472.302102,746.582405 C480.929783,751.225688 488.9959,755.664872 497.164118,758.369202 C524.323446,767.400643 545.918175,762.65531 563.428794,743.827049 L563.479845,743.673974 C564.04141,741.63297 563.990359,739.540941 563.837205,737.550963 L563.837205,735.407909 L563.837205,735.305858 L563.735102,735.203808 C549.185462,716.069398 529.888045,707.446156 511.254296,699.129066 C492.416341,690.76095 472.863667,681.984634 457.905617,662.339972 C453.56625,656.625161 449.124781,649.583698 444.479107,642.185059 C437.89348,631.724915 431.052597,620.95862 423.343841,611.825128 C417.72819,605.24289 410.683101,597.436051 401.442804,589.833311 C399.962314,588.557684 398.481824,587.435132 397.001335,586.21053 C383.421671,575.291159 370.556726,564.98409 377.499712,543.145349 C385.770034,517.071525 417.217676,493.548956 444.938569,472.730718 C446.980624,471.199965 449.022679,469.669212 451.013682,468.138459 C465.818579,456.963963 482.971838,444.81999 498.695659,441.605409 C514.368429,438.441853 528.815966,445.432291 541.62986,462.576724 C547.60287,470.485613 553.422726,479.823206 559.140479,488.854648 C562.56092,494.263308 566.032413,499.825043 569.554958,505.080628 C578.335793,518.245103 586.963474,530.542151 596.050618,543.604575 C599.981573,549.217336 603.96358,554.983171 608.098741,560.851057 C612.999672,567.943546 618.15586,575.087059 623.260997,581.924422 C629.795572,590.853813 635.972787,599.272954 641.333181,607.334919 C646.234112,614.835608 657.822773,632.286191 652.207122,649.736773 C646.591472,667.391456 626.73249,686.117667 607.588227,704.384651 C596.51008,714.946845 585.993498,724.896739 578.284742,734.489457 C573.690119,740.255293 577.518971,749.54186 581.296772,758.573302 C583.032519,762.85941 584.717214,766.941418 585.482985,770.615224 C589.924454,790.923212 578.284742,805.210239 566.032413,820.364693 C560.569917,827.202055 554.852164,834.243518 550.359644,842.050358 L550.308592,842.203433 C549.695976,845.111864 548.521794,847.816194 547.347613,850.418474 C546.428688,852.663578 545.509764,854.704582 544.99925,856.745586 C538.209418,883.278635 545.867123,908.638108 566.696081,928.180719 C595.795361,955.734271 645.978855,967.470043 683.501611,955.683246 C703.207439,949.305109 722.964318,932.619902 737.513958,909.811685 C752.369906,886.544241 764.366977,865.164726 769.472114,852.612553 C771.820477,846.999792 775.036713,838.325526 776.159843,828.630758 C778.099795,811.792476 776.517203,794.443944 774.883559,776.07491 C774.066737,767.604744 773.300967,758.828427 772.892556,750.205186 C771.973631,731.376926 774.883559,718.161426 781.928648,708.823834 C789.177942,699.384191 800.919757,693.36323 818.940889,689.995574 C840.178258,686.015616 860.905114,685.760491 877.343654,689.332248 C912.875406,696.883962 951.572343,738.62249 960.200024,778.575139 C962.701541,790.106811 960.608435,801.893608 958.311123,812.966054 C954.533322,830.365611 947.284028,849.397972 940.289991,867.818031 C937.890576,874.247193 935.389059,880.829431 933.040696,887.309618 C932.530183,888.73832 932.019669,890.167023 931.458104,891.646751 C930.334974,895.014407 929.007638,898.484114 927.731354,901.95382 C923.034628,914.046768 917.265824,926.496891 910.42494,938.947014 C908.638143,942.263645 906.442934,945.529252 904.349828,948.794858 C900.776232,954.254543 896.947379,959.918328 894.854273,965.990315 C893.935349,968.64362 893.067475,971.296925 892.250653,973.797154 C889.647034,981.910145 887.145517,989.665959 881.785123,997.472799 C875.301599,1006.70834 867.286535,1015.02543 859.628829,1022.57715 C855.085258,1027.01633 851.664816,1031.96576 848.295426,1036.66007 C845.436549,1040.89515 842.373467,1045.18126 838.646717,1049.21225 C834.103146,1054.0086 828.998009,1058.60086 824.148129,1062.938 C818.889838,1067.68333 813.529444,1072.53071 808.628513,1077.7863 C805.616482,1081.10293 802.655503,1084.62366 799.847678,1088.04234 C797.346161,1091.10385 794.742541,1094.21638 792.08787,1097.22686 C790.60738,1098.80864 788.973736,1100.33939 787.391144,1101.81912 C784.430165,1104.47242 781.520237,1107.12573 779.529233,1110.69749 C776.823511,1115.18769 774.883559,1120.0861 772.994658,1124.83144 C770.544193,1130.95445 767.991624,1137.28156 764.162772,1142.79227 C751.093622,1161.67156 728.477866,1173.30528 694.886066,1178.61189 C680.13222,1180.95904 663.948937,1182.03057 648.225116,1183.1021 C622.342072,1184.83695 597.939518,1186.41873 580.531002,1193.25609 C570.269677,1197.28707 561.080431,1203.61418 552.299596,1209.7372 C542.344579,1216.72763 532.951127,1223.30987 523.455573,1225.09575 C505.07708,1228.61648 493.028958,1213.8192 482.359222,1200.70575 C478.070907,1195.50119 474.0889,1190.50073 469.800585,1186.82693 C466.278041,1183.7144 463.163907,1180.55084 460.253979,1177.33626 C454.740432,1171.62145 449.686346,1166.21279 441.926538,1161.87566 C432.533087,1156.62007 422.373865,1152.43601 412.674105,1148.45606 C410.529947,1147.58863 408.436841,1146.7212 406.292684,1145.85378 C378.061277,1134.06698 361.826942,1119.37175 350.391436,1095.08381 C343.09109,1079.6232 340.283265,1063.65235 341.049036,1041.60951 C341.712704,1019.87282 322.619492,1004.10606 307.304082,991.400812 L306.742517,990.992612 C303.475229,988.237256 300.054787,985.532926 296.43014,982.777571 C279.9916,970.021297 262.991494,956.805798 257.22269,937.416261 C255.333789,930.834024 255.589046,924.711013 256.610073,917.618524 C261.408902,882.972485 286.475124,856.745586 322.006876,849.346947 C333.544485,846.948767 344.112118,845.67314 354.27134,844.397512 C363.868997,843.17291 373.007192,841.999333 381.788027,840.060379 C386.791061,838.937827 392.917225,837.151949 398.379722,835.570171 C400.983342,834.753769 403.433807,834.039418 405.731119,833.427117 C419.514988,829.600235 430.235775,830.314586 438.557148,835.621196 C454.127815,845.418014 459.335055,869.91006 464.593346,900.729218 C465.665424,907.311455 467.911685,913.995743 470.260048,921.037206 C474.701517,934.405781 479.347191,948.182556 475.824647,961.091906 C473.527335,969.460021 468.269044,977.624037 463.163907,985.583951 C451.575247,1003.74889 440.548152,1020.89332 462.806548,1039.00723 C468.064839,1043.34436 473.476284,1047.37534 478.785626,1051.25325 C499.206173,1066.25463 518.50359,1080.49063 523.812932,1108.96263 C528.611761,1134.37313 544.99925,1150.24193 572.669091,1156.00777 C628.468236,1167.84559 672.372413,1168.91712 703.003233,1159.37543 C726.946325,1151.82371 745.171663,1133.9139 751.706238,1111.25876 C758.904481,1086.40954 770.544193,1059.46829 787.289041,1028.70016 C792.394178,1019.41359 798.775599,1008.59627 807.199075,998.952526 C813.121033,992.166189 820.217174,986.247278 827.109108,980.532467 C832.571605,975.940208 838.187255,971.2459 843.292392,966.14339 C846.865988,962.418558 850.592737,958.693726 854.217384,955.172995 C863.968196,945.478226 874.076367,935.426283 883.16351,924.813063 C899.244691,905.933777 911.445968,881.543782 920.328906,850.316424 L921.24783,847.203893 C926.710327,828.375632 933.449107,804.904089 924.97458,782.350996 C914.304844,754.134119 887.860236,734.030231 857.484672,731.121801 C834.052094,728.927722 820.625584,739.03069 816.745681,762.145059 C814.805729,773.115454 815.775705,783.830724 816.694629,794.188819 C816.949886,797.4034 817.205143,800.41388 817.409348,803.373336 C817.715657,807.506368 818.021965,811.537351 818.328273,815.517308 C819.196146,825.773353 820.115071,836.335547 819.400352,847.152868 C817.051989,880.829431 806.841715,893.483654 787.544298,914.710094 C767.991624,936.140634 745.42692,959.867303 724.444808,969.613097 C711.222503,975.787133 675.843906,989.410834 634.237041,982.16527 C562.816177,969.817197 521.668775,934.813981 511.713758,878.074075 C510.641679,871.849014 510.029063,866.134203 509.518549,860.113242 C508.752779,853.122804 508.03806,845.928265 506.404416,836.845798 C503.851848,822.813897 493.896831,807.608419 478.989831,795.00522 C464.235986,782.657147 447.235881,774.850307 432.226779,773.625705 C414.869314,772.299053 401.647009,782.350996 391.028325,790.515012 L389.496784,791.739614 C378.418637,800.158755 368.106261,807.557394 353.709775,812.915029 C344.469477,816.282685 331.655584,818.476764 319.301153,820.670843 C309.49929,822.354671 300.15689,823.987474 292.601288,826.130528 C249.922344,838.376551 229.501797,886.646291 222.660914,906.801204 L222.201452,908.485032 C219.087318,917.465449 215.360568,928.58892 218.117342,941.549294 C222.252503,961.091906 238.027376,977.470961 250.534961,987.778031 C278.919521,1011.3006 296.43014,1044.97716 309.652445,1074.92889 C312.511321,1081.35806 313.889708,1088.39952 315.165992,1095.23688 C316.544379,1102.32937 317.922766,1109.67698 321.0369,1116.51435 C327.877783,1131.77085 336.301259,1143.76175 346.001018,1152.18089 C355.088162,1160.08978 366.21736,1165.44741 376.887096,1170.60095 C385.106366,1174.63193 393.580893,1178.76496 401.085444,1183.96952 C416.145598,1194.42967 430.950494,1208.41054 425.998512,1232.13721 C423.548046,1244.02606 412.469899,1255.50671 402.616985,1265.6607 C400.064417,1268.26298 397.716054,1270.76321 395.469794,1273.21241 C381.583822,1288.46892 372.802986,1298.72496 367.544696,1315.81837 C363.664792,1328.57464 363.358483,1351.38286 366.932079,1367.81294 C369.739904,1380.97742 373.262449,1393.68266 376.784993,1405.92869 L377.499712,1405.92869 C373.926117,1393.63164 370.454624,1380.92639 367.544696,1367.65987 C364.073203,1351.33184 364.328459,1328.67669 368.157312,1316.02247" mask="url(#p)"/>
    </g>
  </g>
</svg>
