<svg xmlns="http://www.w3.org/2000/svg" xmlns:xlink="http://www.w3.org/1999/xlink" width="330" height="384" viewBox="0 0 330 384">
    <defs>
        <path id="a" d="M0 0h330v384H0z"/>
        <path id="c" d="M0 334.761V.371h228.906v334.39z"/>
        <path id="e" d="M.035.354h221.584v126.634H.035V.354z"/>
        <path id="g" d="M.19.356h174.506v110.627H.19V.356z"/>
        <path id="i" d="M236.774.363v143.602H.282V.363z"/>
        <path id="k" d="M.011.355h134.797v130.588H.011V.355z"/>
        <path id="m" d="M204.765.268v207.654H.115V.268z"/>
        <path id="o" d="M.33.389h498.432v157.535H.331V.389z"/>
        <path id="q" d="M427.866 625.964H639.78V.374H.036v625.59h427.83V196.003H.034v429.965h427.832z"/>
    </defs>
    <g fill="none" fill-rule="evenodd">
        <mask id="b" fill="#fff">
            <use xlink:href="#a"/>
        </mask>
        <use fill="#F8F7F7" transform="matrix(1 0 0 -1 0 384)" xlink:href="#a"/>
        <g mask="url(#b)" opacity=".149">
            <g transform="translate(-177 -81)">
                <mask id="d" fill="#fff">
                    <use xlink:href="#c"/>
                </mask>
                <path fill="#000" d="M29.672 188.942c10.333 4.13 23.192 9.212 28.086 19.649.341 5.694-1.662 10.55-3.801 15.677-2.982 7.17-6.396 15.292-4.484 28.02 1.48 9.666 7.17 15.86 13.77 23.052 2.731 2.95 5.508 6.013 8.17 9.507 6.965 9.12 11.722 19.42 15.41 28.315 3.709 8.826 6.622 15.814 16.34 18.128 5.827 1.407 13.975 2.382 19.551 2.95 3.096.34 5.963.521 8.535.521 4.28 0 7.966-.476 11.084-1.384 6.6-1.951 10.811-7.305 16.092-14.09 1.593-2.019 3.209-4.083 5.052-6.261 1.252-1.52 2.89-3.154 4.643-4.924 3.642-3.653 7.397-7.442 8.444-10.482.387-1.18.273-2.246.182-3.448-.09-.93-.182-1.952-.068-3.177l.023-.068-.046-.045c-3.528-4.651-7.83-8.372-11.971-12.003-7.056-6.17-13.747-11.956-16.251-21.508-1.343-5.037-.842-10.414 1.457-16.472 2.48-6.376 8.216-13.409 16.205-19.74 3.596-2.858 7.42-5.83 11.47-9.006 18.55-14.408 39.603-30.766 51.097-45.014l.022-.091c.387-1.747.25-3.744-.273-5.945-1.48-5.967-6.168-13.09-12.882-19.512-6.395-6.08-13.679-10.663-19.46-12.251a26.593 26.593 0 0 0-2.367-.568c-7.738-1.747-15.75-.544-23.488.613-6.691.998-13.041 1.951-19.21 1.157-13.314-1.747-22.896-10.64-26.264-24.367-4.46-18.038 7.83-29.36 19.733-40.34 8.762-8.1 17.844-16.45 20.233-27.499 2.254-10.391-.705-21.6-2.663-29.019-.773-2.994-1.73-5.99-2.754-8.962h-.295a118.337 118.337 0 0 1 2.776 9.053c1.935 7.374 4.894 18.537 2.64 28.86-2.367 10.958-11.402 19.285-20.165 27.34-11.926 11.026-24.285 22.416-19.8 40.612 3.39 13.863 13.109 22.825 26.537 24.572 6.19.816 12.54-.114 19.278-1.112 7.715-1.157 15.681-2.337 23.374-.635.956.204 1.89.453 2.367.59 11.494 3.13 28.928 18.65 32.114 31.514.547 2.178.638 4.13.296 5.808-11.47 14.226-32.478 30.584-51.027 44.991a1382.116 1382.116 0 0 0-11.494 8.962c-8.012 6.376-13.793 13.432-16.25 19.898-2.345 6.103-2.846 11.526-1.503 16.63 2.55 9.62 9.24 15.497 16.342 21.691 4.12 3.585 8.375 7.306 11.903 11.889-.114 1.225-.023 2.246.046 3.176.136 1.18.227 2.201-.16 3.313-1.024 2.972-4.734 6.76-8.375 10.391-1.73 1.747-3.392 3.426-4.643 4.923a199.019 199.019 0 0 0-5.076 6.285c-5.257 6.739-9.422 12.07-15.932 13.999-4.939 1.452-11.334 1.747-19.482.862-5.599-.612-13.724-1.588-19.528-2.95-9.56-2.268-12.472-9.21-16.16-17.969-3.71-8.916-8.443-19.24-15.408-28.406-2.663-3.494-5.485-6.534-8.194-9.506-6.577-7.147-12.244-13.318-13.678-22.893-1.912-12.637 1.456-20.714 4.438-27.861 2.14-5.173 4.188-10.051 3.846-15.837l-.022-.068c-4.985-10.527-17.89-15.678-28.268-19.784-2.822-1.135-5.736-2.27-8.922-2.973-7.329-1.565-14.316-2.427-20.87-2.7v.318c6.531.227 13.496 1.135 20.802 2.677 3.163.658 6.077 1.816 8.876 2.927" mask="url(#d)"/>
            </g>
            <g transform="translate(-16 -81)">
                <mask id="f" fill="#fff">
                    <use xlink:href="#e"/>
                </mask>
                <path fill="#000" d="M19.232 8.955c.792 3.057 1.719 6.115 2.623 9.083 1.945 6.568 3.776 12.797 4.5 18.347.565 3.963.565 8.04.023 10.895-1.515 8.584-7.281 15.266-12.844 21.744-6.376 7.407-12.98 15.108-13.5 25.8.702 9.513 11.397 10.895 22.726 12.344 2.08.295 4.25.544 6.331.884 8.299 1.336 17.863 3.986 27.632 7.656 3.437 1.313 6.715 2.921 9.926 4.484 6.083 3.036 11.849 5.912 18.587 6.66.86.09 1.719.136 2.623.136 4.568 0 8.548-1.291 11.94-2.492 3.459-1.223 6.421-2.537 9.293-3.828 6.15-2.718 11.962-5.3 20.916-6.093a43.278 43.278 0 0 1 4.839-.25c9.745 0 17.886 2.583 25.8 5.052 6.806 2.174 13.273 4.19 19.966 4.19 1.312 0 2.646-.068 3.912-.249 10.153-1.29 17.954-6.546 23.833-16.127 5.2-8.449 8.185-19.14 10.673-29.423.723-3.013 2.012-8.653 2.442-12.73.452-3.85-.136-6.66-1.854-8.607-3.053-3.58-9.226-3.783-16.349-4.01-3.256-.113-6.58-.226-9.926-.657-14.042-1.812-25.8-3.646-38.848-9.105-10.718-4.462-21.458-10.057-28.58-13.93C113.93 22.159 100.385 14.05 90.82.347h-.361C100.07 14.164 113.705 22.41 125.78 29c7.1 3.896 17.84 9.468 28.603 13.953 13.047 5.437 24.85 7.271 38.915 9.106 3.347.43 6.694.544 9.95.68 7.055.203 13.182.407 16.19 3.873 1.605 1.902 2.193 4.643 1.764 8.403-.475 4.055-1.742 9.672-2.465 12.685-4.952 20.453-12.052 42.538-34.257 45.324a31.361 31.361 0 0 1-3.867.226c-6.648 0-13.07-2.016-19.898-4.168-7.914-2.468-16.077-5.028-25.868-5.028-1.606 0-3.234.068-4.862.204-9 .815-14.833 3.42-21.006 6.16-2.872 1.27-5.834 2.583-9.248 3.806-3.392 1.2-7.372 2.446-11.872 2.446-.882 0-1.74-.045-2.577-.135-6.671-.725-12.414-3.58-18.497-6.592-3.21-1.585-6.512-3.216-9.95-4.507-9.813-3.692-19.378-6.342-27.699-7.679-2.08-.317-4.25-.611-6.331-.86C11.612 105.446 1.007 104.064.329 94.8c.52-10.533 7.1-18.189 13.431-25.595 5.608-6.479 11.374-13.228 12.934-21.858.543-2.9.498-7-.022-11.009-.747-5.594-2.6-11.8-4.545-18.37a480.691 480.691 0 0 1-2.623-9.105c-.543-1.97-1.086-3.987-1.674-5.935-.226-.838-.452-1.721-.723-2.582h-.294c.249.906.52 1.79.746 2.673a372.1 372.1 0 0 1 1.673 5.935" mask="url(#f)"/>
            </g>
            <g transform="translate(7 -81)">
                <mask id="h" fill="#fff">
                    <use xlink:href="#g"/>
                </mask>
                <path fill="#000" d="M15.445 27.011c1.799 4.053 3.689 8.174 4.304 12.523 1.776 11.863-4.372 19.582-10.293 27.072-4.053 5.1-7.856 9.905-9.04 15.825-.318 1.48-.227 2.39-.16 3.575.046.614.092 1.275.092 2.208v.023c1.503 4.212 6.034 7.172 9.564 8.903 12.751 6.306 33.541 9.29 48.707 11.475 2.3.319 4.577.478 6.922.478 5.898 0 11.363-.979 17.147-2.026 6.193-1.116 12.592-2.3 19.97-2.3 1.958 0 3.962.091 5.897.25.387.046 1.503.114 2.938.205 2.095.092 4.713.228 6.558.388 6.17.478 11.066 1.57 15.78 2.618 6.33 1.412 12.228 2.755 21.018 2.755.91 0 1.867-.023 2.823-.046 6.99-1.092 13.39-8.47 15.94-18.328 2.117-8.175 1.64-19.012-6.057-25.023-9.063-7.036-35.432-13.23-49.595-14.368-3.029-.25-5.534-.273-7.97-.273-2.71-.023-5.488-.045-9.131-.364-9.769-.888-17.83-4.736-27.03-12.865C62.468 29.607 56.32 21.797 47.508 6.36 46.55 4.698 45.662 2.65 44.842.35h-.341c.865 2.344 1.776 4.439 2.755 6.147C56.068 21.98 62.239 29.789 73.67 39.92 82.87 48.118 91 51.99 100.836 52.877c3.643.319 6.444.341 9.154.341 2.55.023 4.918.046 7.947.296 14.118 1.162 40.396 7.286 49.458 14.322 7.56 5.897 7.993 16.621 5.944 24.704-2.528 9.745-8.858 17.009-15.712 18.101-.934.023-1.868.046-2.778.046-8.722 0-14.665-1.366-20.95-2.732-4.736-1.07-9.632-2.163-15.825-2.641-1.845-.114-4.464-.296-6.558-.41-1.435-.069-2.55-.137-2.938-.16-1.958-.205-3.94-.273-5.92-.273-7.4 0-13.822 1.161-20.016 2.3-5.784 1.047-11.226 2.026-17.1 2.026-2.346 0-4.6-.136-6.878-.478-15.142-2.163-35.91-5.123-48.616-11.453-3.484-1.685-7.924-4.599-9.381-8.697-.023-.911-.069-1.571-.091-2.186-.114-1.161-.182-2.05.136-3.507 1.162-5.806 4.942-10.61 8.972-15.687 5.989-7.514 12.137-15.301 10.36-27.3-.637-4.372-2.504-8.561-4.326-12.591-.728-1.571-1.48-3.21-2.117-4.873C11.255 16.219 8.523 8.432 6.792.349h-.296c1.776 8.129 4.509 15.984 6.831 21.813.66 1.616 1.39 3.278 2.118 4.85" mask="url(#h)"/>
            </g>
            <path fill="#000" d="M50.943-13.686c4.426 1.167 8.448 2.512 9.55 6.707.538 2.221.089 4.42-1.416 6.326-2.472 3.208-7.618 5.361-12.74 5.361-3.596 0-6.741-1.099-8.831-3.028l-.045-.112c-.292-.763-.607-1.57-1.123-2.154-.764-8.524 9.212-12.292 14.605-13.1zM36.045-.451l.023.045c.517.538.831 1.3 1.123 2.064l.068.134.045.09C39.438 3.878 42.65 5 46.336 5c5.236 0 10.449-2.22 12.988-5.473 1.528-1.997 2.022-4.263 1.438-6.573-1.101-4.33-5.258-5.765-9.774-6.932L50.965-14l-.022.022c-7.685 1.122-15.617 5.81-14.898 13.482v.045zM131.792-6.702c6.612 0 12.627 1.926 15.635 4.976 1.538 1.605 2.296 3.44 2.273 5.503-2.067 6.054-10.01 6.948-14.556 6.948-6.956 0-14.83-1.995-19.652-4.976l-.046-.138c-.321-.756-.597-1.559-1.148-2.155.161-6.97 9.184-10.158 17.494-10.158M115.148 5.75l.115.206.046.023c4.82 3.027 12.81 5.022 19.835 5.022 4.66 0 12.742-.917 14.854-7.154v-.023c.046-2.178-.735-4.105-2.388-5.755C144.58-5.074 138.496-7 131.792-7 123.298-7 114.115-3.721 114 3.525v.046l.069.046c.505.573.826 1.375 1.079 2.132M-94.742 109.784c-.888-3.543-1.822-7.223-2.278-11.538-.296-2.862-.455-6.769 0-9.176 1.253-6.246 8.883-13.832 16.968-21.168 4.828-4.36 11.16-9.517 17.081-10.448.752-.113 1.572-.159 2.506-.159 4.418 0 10.02 1.363 15.441 2.703 4.031.977 7.88 1.908 10.932 2.18a51.97 51.97 0 0 0 4.67.205c6.445 0 12.662-1.113 18.652-2.226 5.557-.977 10.773-1.93 15.829-1.93 5.899 0 10.659 1.317 14.963 4.088 7.539 4.883 9.589 11.674 10.682 18.351-1.708 14.037-12.025 23.371-21.136 31.639-6.058 5.45-12.39 9.789-18.516 14.013-5.716 3.884-11.592 7.927-17.355 12.924-13.574 11.697-20.406 28.209-18.242 44.175.569 4.111 2.072 8.381 3.53 12.56 1.48 4.157 2.983 8.45 3.507 12.515.98 7.2-.319 12.833-3.78 16.762-3.098 3.52-7.88 5.45-13.53 5.45-5.602 0-11.41-1.953-15.532-5.178-2.847-2.294-5.124-5.155-6.97-7.631-7.993-10.766-14.598-25.415-20.223-44.834-.707-11.084 1.047-18.556 2.755-25.734 1.094-4.588 2.096-8.926 2.46-14.059.82-10.538-.82-17.125-2.414-23.484m-.365 37.453c-1.685 7.222-3.439 14.717-2.733 25.892 5.626 19.464 12.276 34.137 20.27 44.948 1.868 2.498 4.168 5.36 7.038 7.654 4.145 3.316 10.044 5.269 15.715 5.269 5.716 0 10.613-1.953 13.756-5.565 3.53-3.974 4.806-9.698 3.85-16.988-.547-4.089-2.028-8.381-3.508-12.56-1.458-4.157-2.984-8.427-3.508-12.515-2.163-15.853 4.647-32.297 18.13-43.926 5.716-4.974 11.615-8.994 17.286-12.878 6.172-4.224 12.526-8.608 18.562-14.059C18.906 104.242 29.269 94.84 31 80.666v-.068c-1.093-6.7-3.189-13.605-10.841-18.533-4.35-2.816-9.133-4.111-15.1-4.111-5.102 0-10.317.954-15.874 1.953-5.99 1.068-12.185 2.158-18.608 2.158a75.95 75.95 0 0 1-4.623-.16c-3.052-.294-6.901-1.226-10.91-2.225-5.443-1.317-11.068-2.68-15.51-2.68-.933 0-1.776.068-2.55.204-6.013.909-12.367 6.087-17.241 10.494-8.13 7.358-15.783 15.012-17.036 21.304-.501 2.453-.342 6.405-.023 9.267.433 4.36 1.39 8.04 2.278 11.583 1.594 6.337 3.234 12.9 2.437 23.394-.41 5.11-1.412 9.448-2.506 13.99"/>
            <path fill="#000" d="M-76.434 112.72c.863-11.467 4.023-19.994 9.864-26.87 8.206-9.703 16.025-10.472 30.23-11.942 1.023-.09 2.046-.203 3.114-.294 5.205-.565 10.32-1.493 14.865-2.307 4.046-.724 7.91-1.47 11.297-1.764a43.235 43.235 0 0 1 4.41-.249c10.364 0 14.523 4.094 16.183 7.51 2.59 5.427.818 13.321-4.592 20.039-1.295.995-2.295 2.239-3.273 3.46-1.273 1.674-2.477 3.235-4.364 4.14l-.045.022c-6.024 5.61-12.82 10.223-20.025 15.086-10.25 6.944-20.82 14.114-30.253 24.948-1.682 1.9-3.25 4.116-4.773 6.265-4.205 5.88-8.182 11.467-14.41 11.92-5.092-2.67-5.955-8.12-6.819-13.39-.227-1.448-.432-2.805-.727-4.072-.046-3.008-.228-6.378-.41-9.952-.386-7.102-.818-15.199-.272-22.55m.386 32.525c.296 1.312.5 2.646.75 4.094.796 5.089 1.75 10.902 6.978 13.638l.046.023h.045c6.387-.452 10.387-6.107 14.66-12.078 1.523-2.103 3.092-4.32 4.774-6.243 9.387-10.788 19.979-17.958 30.207-24.902 7.182-4.863 14.001-9.477 20.025-15.063 1.932-.95 3.227-2.624 4.477-4.207.955-1.199 1.932-2.466 3.228-3.438 5.5-6.853 7.319-14.883 4.637-20.402C12.097 73.184 7.869 69-2.655 69c-1.409 0-2.91.09-4.432.226-3.387.34-7.273 1.04-11.32 1.787-4.522.814-9.66 1.742-14.841 2.307-1.069.113-2.092.204-3.114.317-13.82 1.38-22.139 2.261-30.435 11.987-5.91 6.944-9.069 15.539-9.955 27.074-.523 7.373-.114 15.47.272 22.572.205 3.574.387 6.967.432 9.975M123.881 75.961c2.692-1.8 7.71-2.665 15.352-2.665 7.117 0 15.671.775 23.199 1.458 4.79.433 9.353.843 13.185 1.025 16.173.797 31.434 1.594 43.09 11.685 7.505 6.468 13.55 13.188 11.634 29.838-.867 7.562-4.357 16.741-8.053 26.467-.638 1.708-1.3 3.416-1.938 5.147a69.509 69.509 0 0 0-1.118 3.053c-3.33 8.951-6.205 16.695-11.816 23.324-6.41 7.584-14.919 11.434-25.32 11.434-17.064 0-34.97-10.205-46.01-19.771-16.448-14.167-18.546-34.097-20.805-55.166l-.296-2.483c-1.095-7.517-2.441-25.852 8.896-33.346zm-8.92 35.851c2.282 21.138 4.426 41.113 20.919 55.395C146.989 176.796 164.918 187 182.095 187c10.47 0 19.07-3.872 25.571-11.525 5.612-6.651 8.51-14.418 11.817-23.415.365-1.002.752-2.005 1.117-3.052.685-1.731 1.323-3.44 1.962-5.148 3.696-9.726 7.209-18.905 8.075-26.536 1.94-16.786-4.174-23.551-11.725-30.088-11.77-10.159-27.076-10.91-43.272-11.753-3.833-.183-8.395-.592-13.185-1.025-7.55-.706-16.082-1.458-23.222-1.458-7.71 0-12.774.866-15.512 2.688-11.496 7.607-10.105 26.102-9.01 33.664l.25 2.46z"/>
            <path fill="#000" d="M133.852 90.88c4.892-7.586 14.52-8.585 22.322-8.585 2.728 0 5.434.136 8.207.318 12.492.681 24.33 1.295 33.597 7.79 10.034 7.062 15.513 20.302 14.61 35.359-.766 13.08-5.704 31.499-17.045 40.333-3.946 3.066-8.974 4.655-14.95 4.655-12.04 0-24.239-6.359-31.026-11.764-14.475-11.582-16.099-26.48-18.083-45.306-.022-1.158-.045-2.316-.113-3.497-.157-6.631-.338-13.49 2.48-19.303m-2.683 22.823c1.962 18.19 3.63 33.883 18.242 45.533 6.787 5.428 19.053 11.764 31.183 11.764 6.043 0 11.116-1.567 15.153-4.7 11.409-8.88 16.37-27.39 17.158-40.515.902-15.17-4.622-28.501-14.768-35.587-9.313-6.54-21.173-7.221-33.755-7.903-2.75-.136-5.479-.295-8.207-.295-7.87 0-17.61 1-22.593 8.743-2.864 5.882-2.683 12.786-2.48 19.44l.067 3.52"/>
            <path fill="#000" d="M160.27 95.83a39.208 39.208 0 0 1 6.396-.516c8.882 0 15.095 3.188 18.753 5.883 6.374 4.737 10.976 12.842 12.632 22.249 1.611 9.227-.023 18.185-4.394 24.067-3.981 5.366-9.641 8.173-16.314 8.173-5.085 0-10.654-1.684-15.578-4.805-13.115-8.307-15.324-25.033-15.439-34.26-.184-12.057 4.67-19.264 13.944-20.79m1.357 55.297c4.97 3.166 10.562 4.872 15.716 4.872 6.81 0 12.517-2.874 16.59-8.33 9.434-12.707 5.154-36.707-8.353-46.698C181.9 98.233 175.64 95 166.666 95c-2.093 0-4.256.18-6.442.539-9.457 1.571-14.381 8.868-14.22 21.082.138 9.272 2.347 26.11 15.623 34.507M72 221.681c-12.024 0-26.128-5.644-34.22-13.723-3.36-3.3-5.921-7.305-8.458-11.424-5.647-9.24-10.813-19.276-15.362-29.904.069-.956-.137-1.844-.366-2.663a15.104 15.104 0 0 1-.32-1.593c1.006-11.265 16.573-24.055 29.26-24.055 1.12 0 2.195.09 3.2.295 4.641.956 10.699 4.62 18.037 10.924 10.675 9.24 25.42 25.535 31.683 41.101.777 1.867 1.691 4.21 1.988 6.168 1.235 7.851-1.806 14.588-8.983 19.981-4.298 3.232-9.83 4.893-16.46 4.893m25.718-24.92c-.298-1.98-1.212-4.346-1.966-6.235-6.287-15.612-21.077-31.953-31.82-41.215-7.361-6.327-13.465-10.037-18.15-10.97a14.79 14.79 0 0 0-3.247-.341C29.71 138 13.983 150.995 13 162.374c.046.546.183 1.115.343 1.661.16.842.388 1.684.297 2.595v.045l.023.023c4.549 10.673 9.76 20.733 15.407 29.95 2.537 4.187 5.12 8.192 8.48 11.538C45.713 216.31 59.908 222 72 222c6.698 0 12.298-1.707 16.664-4.961 7.27-5.485 10.333-12.312 9.053-20.278"/>
            <path fill="#000" d="M80.348 197.756c-1.625 6.327-7.11 9.929-15.1 9.929-6.703 0-14.174-2.59-19.072-6.574-7.697-6.282-10.292-15.197-12.865-26.207-.203-4.728 1.06-8.735 3.52-11.347 2.077-2.139 4.966-3.242 8.532-3.242.971 0 2.032.09 3.138.27 12.21 1.96 29.906 17.179 32.005 30.71.271 1.868.339 4.592-.158 6.461m-11.962-26.544c-6.365-5.809-13.95-9.996-19.84-10.92a17.62 17.62 0 0 0-3.183-.292c-3.656 0-6.59 1.148-8.734 3.4-2.55 2.611-3.792 6.709-3.612 11.55 2.596 11.076 5.192 20.06 13.001 26.386C50.916 205.388 58.5 208 65.248 208c8.103 0 13.723-3.715 15.416-10.154.474-1.914.384-4.683.113-6.596-.97-6.417-5.507-13.712-12.391-20.038M144.367 279.188c-1.129 2.57-2.303 5.23-3.386 8.396-1.866 5.39-2.626 10.805-3.386 16.035-.852 5.987-1.658 11.607-4.008 16.264l-.322.55c-2.534 3.762-4.699 6.997-7.97 9.474-4.146 3.143-9.674 4.772-15.962 4.772-9.628 0-19.302-4.038-24.576-10.254-3.685-4.404-5.16-9.635-4.17-15.163 1.682-7.8 8.224-12.365 15.11-17.182 6.358-4.427 12.876-9.015 15.364-16.287 1.612-4.771.83-10.14 0-15.805-.921-6.102-1.843-12.388.368-18.008 3.133-8.051 12.623-16.172 22.043-18.902 1.82-.527 3.455-.757 5.16-.757.737 0 1.497.023 2.326.138 5.897 4.702 7.601 16.172 8.407 25.646 1.36 16.562-1.566 23.284-4.998 31.083m-3.248-56.982l-.046-.022-.069-.023a17.18 17.18 0 0 0-2.372-.161c-1.728 0-3.386.275-5.229.78-9.513 2.753-19.094 10.988-22.25 19.086-2.257 5.712-1.313 12.02-.415 18.145.83 5.666 1.613 10.988.046 15.667-2.441 7.203-8.96 11.745-15.248 16.15-6.656 4.657-13.543 9.45-15.225 17.388-1.013 5.62.461 10.942 4.216 15.37C89.847 330.893 99.59 335 109.333 335c6.358 0 11.932-1.72 16.147-4.863 3.293-2.5 5.597-5.919 7.992-9.52l.392-.596c2.372-4.703 3.178-10.346 4.03-16.38.738-5.207 1.498-10.597 3.363-15.965 1.106-3.166 2.28-5.827 3.41-8.35 3.431-7.823 6.38-14.613 4.975-31.244-.83-9.543-2.511-21.127-8.523-25.876"/>
            <g transform="translate(226 -81)">
                <mask id="j" fill="#fff">
                    <use xlink:href="#i"/>
                </mask>
                <path fill="#000" d="M1.611 23.64c1.968 4.806 6.289 7.129 13.233 7.129 3.507 0 7.149-.592 10.09-1.07h.09c.633-.115 1.335-.16 2.058-.16 2.76 0 5.588.82 8.302 1.617 1.403.433 2.873.843 4.298 1.139 1.131.273 2.262.455 3.393.706 4.66.91 9.501 1.867 13.867 3.894 1.72.798 3.506 1.572 5.225 2.324 8.529 3.712 17.328 7.561 23.051 15.032.362.455.679.933.996 1.389 4.003 5.967 7.464 12.367 10.79 18.585 3.755 6.992 7.646 14.19 12.328 20.772 4.524 6.423 10.61 13.529 16.513 20.384 2.059 2.414 3.982 4.67 5.86 6.901 9.364 11.16 18.21 21.683 34.496 21.683h.023c4.185 0 8.596-.66 13.572-2.004 14.116-3.827 39.044-13.393 47.55-34.119 2.262-5.489 3.777-13.164 5.36-21.25 1.222-6.126 2.466-12.458 4.072-17.742v-1.002c-1.764 5.489-3.076 12.208-4.343 18.676-1.606 8.108-3.121 15.738-5.338 21.204-8.483 20.658-33.321 30.133-47.369 33.96-4.954 1.343-9.365 2.004-13.504 2.004h-.023c-16.151 0-24.95-10.477-34.248-21.615a810.61 810.61 0 0 0-5.881-6.855c-5.882-6.879-11.967-14.007-16.536-20.385-4.638-6.56-8.506-13.78-12.26-20.749-3.349-6.217-6.81-12.64-10.814-18.607-.316-.456-.656-.98-1.018-1.413-5.768-7.516-14.59-11.388-23.14-15.123a225.31 225.31 0 0 1-5.226-2.323c-4.411-2.05-9.252-3.006-13.935-3.94a74.529 74.529 0 0 1-3.393-.683c-1.402-.296-2.85-.73-4.275-1.14-2.737-.796-5.565-1.64-8.393-1.64-.723 0-1.447.07-2.103.16l-.136.023c-2.896.478-6.515 1.07-9.999 1.07-6.786 0-11.039-2.277-12.939-6.923C-.085 18.766.571 10.658 1.16 3.46c.09-1.093.18-2.118.249-3.097h-.294c-.068.98-.136 2.004-.227 3.075-.61 7.22-1.244 15.373.724 20.202" mask="url(#j)"/>
            </g>
            <g transform="translate(328 -81)">
                <mask id="l" fill="#fff">
                    <use xlink:href="#k"/>
                </mask>
                <path fill="#000" d="M110.08 8.022c-.41 10.898-.752 20.343-8.045 25.928-7.567 5.813-20.786 7.493-30.426 8.673-.957.137-1.915.273-2.826.386-1.641.227-3.396.34-5.174.34-9.846 0-20.33-3.314-30.471-6.47-9.071-2.838-18.461-5.767-27.213-6.289h-.023l-.022.023C.866 32.043-.388 37.356.113 41.85c1.413 17.596 7.635 31.968 21.492 49.7 2.78 3.542 5.402 7.152 7.932 10.648C33.844 108.102 37.9 113.71 42.64 119c7.111 7.947 16 11.943 26.484 11.943 12.147 0 25.822-5.63 37.514-15.507 12.033-12.987 13.834-30.197 14.654-46.703.069-1.294.091-2.61.137-4.064.182-6.63.387-14.894 3.647-18.98 2.871-3.588 6.267-6.358 9.731-8.81v-.34c-3.555 2.474-7.02 5.267-9.982 8.99-3.305 4.133-3.51 12.442-3.715 19.117-.046 1.454-.068 2.793-.114 4.065-.82 16.437-2.621 33.625-14.586 46.543-11.624 9.786-25.207 15.416-37.286 15.416-10.393 0-19.259-3.996-26.256-11.851-4.717-5.313-8.797-10.876-13.082-16.801-2.53-3.497-5.15-7.084-7.931-10.649C8.022 73.705 1.823 59.334.41 41.806c-.479-4.336.706-9.536 5.538-10.898 8.706.5 18.05 3.406 27.098 6.244 10.165 3.178 20.672 6.47 30.563 6.47 1.778 0 3.556-.136 5.22-.317.888-.137 1.845-.25 2.803-.364 9.686-1.226 22.973-2.906 30.562-8.764 7.407-5.676 7.772-15.143 8.205-26.155.091-2.293.16-4.654.296-7.038.046-.205.046-.409.069-.636h-.296c0 .227-.023.409-.023.613-.183 2.407-.274 4.745-.365 7.061" mask="url(#l)"/>
            </g>
            <path fill="#000" d="M73.565 81.734c2.68-2.29 5.794-4.422 8.316-6.191 1.136-.794 2.113-1.475 2.908-2.064 3.545-2.608 6.817-5.42 9.975-8.097 6.112-5.239 11.906-10.183 18.382-12.564 3.203-1.157 6.566-1.77 10.293-1.77 6.793 0 13.746 1.951 20.494 3.856 3.886 1.089 7.84 2.2 11.725 2.926a85.03 85.03 0 0 0 15.223 1.383c4.09 0 8.27-.295 12.383-.907 13.838-1.996 27.948-7.258 44.444-16.488 3.476-1.95 6.884-4.196 10.179-6.35 3.385-2.268 6.93-4.56 10.52-6.555 1.477-.794 3.045-1.383 4.567-1.882 1.227-.431 2.477-.84 3.681-1.43 1.09-.498 2.159-1.088 3.158-1.632 2.386-1.293 4.59-2.518 7.317-3.04a40.422 40.422 0 0 1 7.18-.657c2.408 0 5.907.25 8.861 1.27 8.884 3.107 16.905 8.46 23.54 13.268a122.115 122.115 0 0 1 4.817 3.651c1.954 1.474 3.93 3.04 5.975 4.468 1.818 1.248 3.818 2.2 5.749 3.107 1.704.794 3.499 1.61 5.112 2.676 9.18 5.897 17.155 14.425 23.676 25.334 6.18 10.41 9.998 18.62 2.5 29.551-2.295 3.38-5.067 4.378-9.044 5.534-4.249 1.27-8.77 1.429-13.11 1.656-5.112.204-10.361.453-15.2 2.336-2.546.975-4.75 2.472-6.772 3.946-.59.386-1.113.817-1.636 1.202-2.158 1.61-4.385 3.266-6.794 4.468-3.635 1.769-7.27 3.697-10.77 5.557-2.249 1.179-4.567 2.449-6.884 3.628a2055.86 2055.86 0 0 0-15.973 8.37c-3.022 1.61-5.999 3.22-9.02 4.785l-.046.022c-.114.114-.273.272-.387.431-14.541 8.029-20.13 20.775-24.016 33.362-.296.93-.591 1.86-.864 2.767-2.635 8.8-5.135 17.1-14.132 21.682-4.408 2.29-12.338 4.49-23.585 6.486-15.837 2.88-30.72 3.765-47.943 4.785l-1.181.068c-4.431-2.834-7.112-6.94-9.952-11.362-1.364-2.11-2.773-4.31-4.408-6.328-3.386-4.218-7.59-8.391-12.02-12.768-4.635-4.672-9.475-9.435-13.406-14.402-10.36-12.973-17.495-29.166-24.38-44.792-1.136-2.563-2.295-5.194-3.408-7.711-1.34-2.926-2.886-5.874-4.408-8.732-2.5-4.808-4.885-9.299-6.249-13.699-1.59-5.17-.295-8.98 4.613-13.154m1.408 26.966c1.5 2.858 3.045 5.806 4.34 8.732 1.16 2.517 2.295 5.148 3.431 7.711 6.908 15.649 14.02 31.865 24.426 44.883 3.953 4.967 8.77 9.73 13.406 14.38 4.476 4.422 8.657 8.55 12.02 12.768 1.635 1.996 3.021 4.173 4.385 6.305 2.862 4.422 5.566 8.618 10.065 11.498l.046.023 1.295-.09c17.223-1.021 32.105-1.906 47.965-4.786 11.27-2.041 19.268-4.219 23.676-6.487 9.134-4.672 11.61-13.018 14.269-21.885.295-.908.59-1.837.84-2.767 3.863-12.542 9.453-25.243 23.95-33.203l.045-.068c.113-.137.227-.25.363-.386a1625.03 1625.03 0 0 1 8.998-4.763c5.249-2.744 10.656-5.624 15.996-8.369 2.317-1.202 4.59-2.449 6.862-3.628 3.499-1.883 7.134-3.81 10.747-5.602 2.477-1.18 4.68-2.858 6.84-4.445l1.635-1.225c2-1.452 4.204-2.948 6.749-3.901 4.748-1.882 9.997-2.087 15.064-2.336 4.385-.181 8.907-.408 13.178-1.633 4.045-1.18 6.862-2.223 9.225-5.67 7.612-11.09 3.75-19.368-2.476-29.846-6.567-10.977-14.565-19.55-23.767-25.447-1.659-1.066-3.454-1.905-5.18-2.699-1.932-.907-3.909-1.837-5.68-3.084-2.069-1.406-4.068-2.971-6-4.468-1.567-1.225-3.158-2.472-4.794-3.674-6.68-4.808-14.678-10.138-23.63-13.29C280.285 20.203 276.74 20 274.31 20c-2.454 0-5.045.227-7.226.658-2.772.521-5.021 1.746-7.407 3.039-1 .567-2.045 1.134-3.136 1.678-1.204.522-2.454.953-3.635 1.36-1.59.545-3.158 1.09-4.635 1.906-3.636 1.996-7.158 4.332-10.543 6.577-3.295 2.177-6.68 4.423-10.18 6.35-16.45 9.254-30.56 14.447-44.306 16.443-4.113.59-8.271.907-12.36.907-5.113 0-10.226-.453-15.179-1.383-3.863-.726-7.816-1.814-11.679-2.903-6.77-1.883-13.746-3.833-20.585-3.833-3.772 0-7.158.544-10.384 1.746-6.521 2.382-12.338 7.349-18.496 12.633-3.158 2.676-6.384 5.443-9.929 8.074-.795.567-1.795 1.27-2.931 2.041-2.5 1.77-5.635 3.946-8.316 6.192-4.999 4.286-6.362 8.187-4.726 13.517 1.386 4.377 3.749 8.936 6.316 13.698"/>
            <path fill="#000" d="M95.773 92.492c1.88-11.7 12.075-26.644 24.287-30.34 2.515-.726 5.097-1.111 7.997-1.111 5.302 0 10.603 1.27 15.27 2.403 2.153.522 4.237 1.02 6.163 1.361 6.502 1.156 13.616 1.678 22.407 1.678 4.825 0 9.72-.136 14.477-.295 4.78-.159 9.742-.317 14.658-.317 7.862 0 14.364.43 20.413 1.292 1.45.25 2.923.454 4.305.68 4.644.726 9.04 1.43 13.367 1.43 5.823 0 10.671-1.316 15.18-4.128 4.282-2.676 7.725-3.877 11.94-4.195a219.53 219.53 0 0 0 7.68-.703c4.463-.453 9.107-.93 13.593-.93h.204c10.15.023 34.845 3.697 41.982 14.445 2.379 3.56 2.628 7.664.747 12.177-2.537 6.077-10.33 9.796-16.221 11.11-1.133.25-2.289.5-3.444.75-8.156 1.768-15.157 3.038-21.41 3.922a95.598 95.598 0 0 1-4.848.522c-4.124.385-8.02.748-12.053 2.517-22.226 9.728-36.816 35.646-45.176 55.714-6.321 15.193-11.781 28.322-26.69 34.49-5.663 2.335-13.82 3.741-21.885 3.741h-.022c-6.05 0-11.691-.793-16.335-2.245-9.244-2.925-17.559-9.047-27.256-16.167l-.407-.34c-17.876-13.13-26.757-26.304-32.738-48.55l-.567-2.199c-2.039-7.483-3.942-14.558-5.301-22.585-.93-5.26-1.02-9.773-.317-14.127m5.324 36.78l.589 2.2c5.981 22.313 14.885 35.555 32.851 48.73l.408.34c9.674 7.075 18.034 13.243 27.346 16.19 4.644 1.497 10.33 2.268 16.403 2.268h.022c8.088 0 16.312-1.406 22-3.764 15.02-6.213 20.525-19.365 26.846-34.649 8.338-20 22.906-45.873 45.018-55.555 3.987-1.746 7.862-2.11 11.962-2.495a99.318 99.318 0 0 0 4.871-.521c6.253-.884 13.254-2.177 21.41-3.946a94.57 94.57 0 0 0 3.467-.748c5.958-1.338 13.865-5.102 16.448-11.293 1.926-4.58 1.631-8.775-.77-12.426-7.205-10.862-32.059-14.58-42.254-14.603h-.204c-4.508 0-9.13.476-13.616.93-2.537.272-5.143.567-7.68.725-4.282.295-7.771 1.52-12.099 4.218-4.44 2.79-9.22 4.127-14.998 4.127-4.305 0-8.7-.703-13.322-1.451-1.382-.227-2.854-.454-4.304-.68-6.072-.885-12.552-1.293-20.459-1.293-4.916 0-9.878.159-14.658.317-4.758.136-9.652.295-14.477.295-8.768 0-15.86-.544-22.362-1.655-1.903-.363-3.965-.862-6.14-1.36-4.69-1.134-10.013-2.404-15.338-2.404-2.945 0-5.573.34-8.065 1.088-12.325 3.719-22.633 18.821-24.537 30.59-.702 4.399-.589 8.934.318 14.217 1.404 8.05 3.307 15.125 5.324 22.608M435.845 123.24l-.045.068c-.683 1.249-1.366 2.293-1.958 3.246-2.094 3.336-3.323 5.38-3.983 10.917-.478 4.38-.296 8.897-.137 13.255.205 5.13.433 10.463-.455 15.706-3.073 18.589-17.891 37.722-34.507 44.531-1.594.658-3.801 1.498-5.304 1.77-1.206.205-2.344.341-3.414.341-9.742 0-11.996-9.578-14.158-18.816-.5-2.065-1.001-4.199-1.57-6.173-2.231-7.604-5.213-12.62-9.697-16.32-4.507-3.676-10.584-6.082-19.666-7.761-3.688-.659-7.08-.999-10.38-.999-6.328 0-12.36 1.18-20.212 3.927-.342.113-.66.226-1.002.34-4.347 1.498-8.058 2.792-10.675 6.832-5.03 7.853-9.128 20.54-7.193 29.505 1.89 8.807 8.285 10.577 15.046 12.393 1.32.363 2.64.726 3.96 1.135 2.071.68 3.71 1.362 5.167 2.179 10.22 5.72 21.487 10.917 35.531 16.319 11.928 4.584 17.71 14.707 23.286 24.399 5.44 9.441 11.04 19.224 22.216 23.877 1.707.703 3.619 1.089 5.713 1.089 2.48 0 5.212-.522 8.149-1.543 7.966-2.77 15.113-11.303 20.44-18.43 8.353-11.167 18.733-25.057 31.024-34 .342-.227.66-.454.979-.658v-.386c-.364.272-.751.545-1.138.817-12.314 8.943-22.716 22.856-31.116 34.045-5.28 7.104-12.405 15.593-20.28 18.34-2.914.998-5.623 1.497-8.058 1.497-2.049 0-3.915-.34-5.6-1.044-11.062-4.63-16.661-14.321-22.079-23.74-5.6-9.783-11.449-19.883-23.444-24.536-14.022-5.402-25.289-10.576-35.486-16.296-1.457-.817-3.119-1.543-5.236-2.202-1.297-.43-2.64-.771-3.937-1.134-6.692-1.839-12.997-3.564-14.841-12.189-1.912-8.897 2.162-21.47 7.147-29.278 2.55-3.95 6.237-5.243 10.516-6.696.342-.136.683-.25 1.024-.363 7.808-2.77 13.817-3.904 20.1-3.904 3.277 0 6.646.318 10.288.999 17.549 3.2 24.901 9.237 29.158 23.877.591 1.952 1.092 4.085 1.57 6.128 2.185 9.374 4.484 19.042 14.454 19.042 1.093 0 2.253-.09 3.46-.317 1.525-.295 3.778-1.135 5.372-1.793 8.24-3.36 16.252-9.805 22.625-18.112 6.305-8.171 10.561-17.636 12.087-26.646.842-5.266.637-10.623.432-15.752-.182-4.358-.341-8.874.16-13.232.591-5.47 1.866-7.49 3.937-10.827.546-.907 1.23-1.974 1.958-3.2 5.85-4.743 12.792-7.195 20.622-7.195 2.071 0 4.165.182 6.305.545v-.318c-2.14-.34-4.234-.499-6.305-.499-7.921 0-14.91 2.429-20.85 7.24"/>
            <path fill="#000" d="M345.546 200.898c-.428 2.33-1.69 4.234-3.652 5.511-1.33.874-2.887 1.322-4.645 1.322-7.125 0-15.265-7.124-16.956-12.949.068-5.87 5.524-8.468 10.913-8.468 4.96 0 9.56 1.994 11.995 5.287 1.962 2.643 2.886 6.273 2.345 9.297M331.206 186c-5.547 0-11.16 2.71-11.206 8.782v.045c1.714 5.937 10.034 13.173 17.249 13.173 1.804 0 3.404-.448 4.825-1.322 2.03-1.344 3.314-3.315 3.765-5.713.564-3.114-.383-6.833-2.412-9.543-2.458-3.316-7.17-5.422-12.22-5.422M328.95 359.963c-1.935 3.15-5.168 4.715-9.59 4.715-1.672 0-3.497-.207-5.521-.644a28.291 28.291 0 0 1-3.234-.874c-3.849-1.38-5.609-3.68-6.489-8.58-.946-4.968-1.078-11.017-.396-16.583.858-7.292 4.928-14.698 11.043-14.698 2.596 0 5.28 1.311 7.963 3.91 3.937 3.864 6.709 9.73 7.545 16.101.528 4.186.968 13.019-1.32 16.653m-6.027-32.984c-2.728-2.622-5.477-3.979-8.161-3.979-6.291 0-10.47 7.521-11.35 14.928-.66 5.635-.528 11.707.395 16.722.902 4.899 2.794 7.383 6.71 8.786.88.322 1.957.621 3.255.874 2.068.46 3.893.69 5.587.69 4.554 0 7.853-1.656 9.855-4.876 2.288-3.703 1.936-12.306 1.342-16.837-.858-6.44-3.63-12.42-7.633-16.308M49.27 365.121c1.248-3.164 3.335-5.204 5.626-5.456a54 54 0 0 1 5.876-.344c9.482 0 18.942 2.361 28.992 4.86 6.125 1.513 12.431 3.095 18.806 4.104 1.86.298 3.992.412 6.873.412 1.407 0 2.927-.022 4.379-.045 1.497-.046 3.04-.07 4.582-.07 7.872 0 15.743.895 19.85 7.52 5.081 8.139 3.448 17.355 1.86 26.25-.409 2.247-.84 4.54-1.112 6.74-1.406 10.408-8.915 17.584-20.643 19.716-3.222.619-6.625.871-10.118.871-6.851 0-13.815-1.146-20.077-3.324-10.934-3.829-17.74-8.185-20.28-19.143-1.86-7.955-4.696-14.03-9.505-20.38-1.86-2.476-4.855-6.007-8.348-8.598-.772-.573-1.747-1.031-2.655-1.49-1.451-.687-2.903-1.421-3.788-2.476-1.588-1.902-1.701-5.662-.318-9.147m3.948 11.921c.975.459 1.882.894 2.608 1.445 3.471 2.544 6.443 6.052 8.326 8.55 4.764 6.282 7.6 12.335 9.437 20.267 2.609 11.073 9.46 15.474 20.485 19.326 6.284 2.178 13.27 3.37 20.167 3.37 3.516 0 6.919-.321 10.163-.894 11.864-2.155 19.487-9.4 20.87-19.968.318-2.201.726-4.494 1.112-6.717 1.633-8.964 3.29-18.226-1.86-26.48-4.197-6.716-12.16-7.656-20.122-7.656-1.543 0-3.108.046-4.582.069a142.4 142.4 0 0 1-4.379.091c-2.88 0-4.99-.16-6.828-.435-6.352-1.032-12.681-2.59-18.76-4.127C79.781 361.407 70.276 359 60.771 359c-2.02 0-4.015.138-5.898.344-2.405.298-4.583 2.407-5.899 5.662-1.18 3.05-1.542 7.13.363 9.446.953 1.146 2.45 1.857 3.88 2.59"/>
            <path fill="#000" d="M436.487 324.778c-6.039 1.363-11.827 4.27-17.457 7.131-5.63 2.839-11.418 5.791-17.41 7.063-15.504 3.338-21.248-10.22-26.287-22.233-.749-1.726-1.43-3.362-2.111-4.929-2.883-6.29-6.152-12.036-9.76-17.078-7.242-10.174-15.573-18.304-24.812-24.14-8.535-5.383-15.73-8.335-22.609-9.244-11.146-1.476-19.068 1.976-28.216 5.95-1.975.863-4.04 1.772-6.129 2.612-6.038 2.43-12.893 5.2-17.57 11.242-3.495 4.519-6.151 10.015-8.694 15.329l-.59 1.204c-4.721 9.765-8.172 19.417-11.826 29.614a425.114 425.114 0 0 0-2.452 6.972c-2.202 6.313-4.45 12.854-7.219 19.054-2.065 4.724-5.22 8.834-8.262 12.809-1.703 2.225-3.45 4.519-4.972 6.88-3.927 5.996-10.078 11.22-16.026 16.284-2.156 1.84-4.2 3.566-6.106 5.314-1.203 1.068-2.452 2.18-3.836 3.339-6.152 5.314-13.144 11.355-14.982 19.008-.25 1.022-.454 2.021-.681 2.998-1.975 8.562-3.7 15.988-12.258 21.348-8.104 5.064-17.933 6.722-26.604 8.153-4.11.704-8.263 1.226-12.281 1.771-7.446.954-14.46 1.885-20.816 3.566-14.55 3.883-23.403 13.966-26.354 30.045-2.86 15.67.045 34.815 3.268 42.65 2.906 7.04 7.81 12.56 13.688 17.51h.477c-5.97-4.95-10.941-10.538-13.892-17.646-3.2-7.767-6.13-26.844-3.269-42.468 2.951-15.943 11.713-25.98 26.15-29.796 6.356-1.703 13.37-2.612 20.793-3.588 4.018-.5 8.172-1.045 12.281-1.726 8.694-1.477 18.546-3.112 26.718-8.221 8.671-5.451 10.374-12.9 12.371-21.53.227-.976.477-1.998.704-2.998 1.816-7.562 8.762-13.535 14.891-18.85 1.362-1.157 2.656-2.27 3.836-3.36a198.21 198.21 0 0 1 6.107-5.292c5.947-5.087 12.121-10.31 16.048-16.351 1.544-2.362 3.292-4.633 4.972-6.859 3.041-3.997 6.22-8.13 8.308-12.854 2.792-6.2 5.04-12.763 7.241-19.1.795-2.293 1.612-4.655 2.429-6.971 3.655-10.174 7.128-19.804 11.85-29.592l.544-1.203c2.542-5.315 5.198-10.765 8.717-15.284 4.608-5.95 11.418-8.699 17.41-11.106a450.543 450.543 0 0 0 6.13-2.634c9.102-3.975 16.98-7.426 28.08-5.95 6.832.93 13.982 3.838 22.495 9.22 9.17 5.814 17.501 13.899 24.72 24.096 3.587 4.996 6.833 10.742 9.693 17.01.704 1.544 1.407 3.18 2.134 4.905 2.451 5.791 5.198 12.355 9.261 16.92 4.676 5.2 10.351 7.017 17.388 5.518 5.97-1.295 11.804-4.27 17.457-7.131 5.606-2.816 11.418-5.769 17.388-7.063 9.851-2.203 18.863.34 26.445 3.02v-.295c-7.604-2.68-16.616-5.2-26.513-3.043"/>
            <path fill="#000" d="M420.854 437.023c-7.043 6.819-13.7 13.274-22.402 15.789-12.133 3.556-21.29-5.323-30.15-13.954-.546-.521-1.09-1.065-1.636-1.586-4.499-4.349-9.883-7.634-15.11-10.805-3.725-2.265-7.61-4.644-11.087-7.362-2.612-2.061-5.384-3.964-8.088-5.8-1.818-1.29-3.68-2.559-5.453-3.85-2.976-2.152-5.021-5.573-7.043-8.88-1.09-1.767-2.204-3.647-3.476-5.21-3.409-4.372-8.225-7.702-12.906-10.918-8.565-5.89-16.654-11.463-17.244-23.015-.318-6.887 1.227-15.427 4.271-23.446 2.908-7.588 8.384-15.811 15.064-22.584 4.544-4.599 9.156-6.75 13.7-6.366 8.088.68 14.995 9.197 20.13 16.56 3.022 4.326 4.226 8.494 5.453 12.911.727 2.583 1.5 5.188 2.636 7.997 1.158 2.786 2.567 5.527 3.862 8.177 2.136 4.19 4.294 8.495 5.635 13.116 2.272 7.724 2.726 18.915-.795 25.37-3.409 6.253-1.795 16.854 1.794 22.404 3.272 5.029 11.429 8.246 17.995 10.828 1.5.589 2.863 1.155 4.112 1.654.568.272 1.182.52 1.727.793 2.136.928 3.93 1.766 5.998 2.174 10.179 2.084 17.222-2.786 21.448-14.86 4.476-12.685 1.386-24.238-8.702-32.529-3.044-2.514-6.566-4.44-9.951-6.297-1.522-.839-3.136-1.722-4.658-2.628-.409-.25-.795-.453-1.204-.725-4.43-2.628-9.929-5.912-12.973-9.718-4.544-5.708-8.27-11.87-11.088-18.371-1.431-3.33-2.567-6.705-3.749-10.33-.863-2.582-1.75-5.232-2.772-7.928-2.317-6.162-5.861-11.62-8.406-15.11-4.794-6.5-13.428-15.244-21.993-18.438-13.587-5.007-31.877 8.358-40.851 18.53-5.044 5.708-8.316 12.82-10.86 19.027-.682 1.677-1.341 3.398-2.046 5.052-3.703 9.288-7.225 18.077-13.087 26.186-1.885 2.605-3.43 5.392-4.953 8.087-1.067 1.926-2.18 3.964-3.43 5.89-3.158 4.916-7.952 7.815-12.678 10.262-2.159 1.132-4.43 2.174-6.612 3.194-6.293 2.922-12.791 5.98-18.108 10.963-3.363 3.194-4.703 6.547-3.976 10.013 1.159 5.754 7.566 10.08 13.178 12.142 11.633 4.349 25.128 2.763 37.011 1.359l1.522-.159c.955-.113 1.886-.204 2.818-.317 5.248-.521 10.201-1.02 15.177-3.85.795-.454 1.568-.907 2.363-1.337 7.52-4.282 14.018-7.997 22.652-9.9 5.407-1.2 13.45-1.087 18.358 1.971 2.454 1.518 3.499 3.806 4.59 6.252.681 1.495 1.385 3.036 2.408 4.418 4.112 5.368 9.701 9.604 15.086 13.727 5.271 3.987 10.77 8.155 14.882 13.388 2.476 3.126 4.521 7 6.543 10.714 2 3.738 4.09 7.589 6.453 10.556 4.908 6.026 11.565 8.11 18.858 5.867 6.293-1.97 13.291-7.316 20.04-12.459 1.044-.792 2.044-1.585 3.044-2.333 3.521-2.65 6.975-5.436 10.292-8.132 9.156-7.407 17.79-14.43 27.537-18.371 3.862-1.54 8.27-2.673 12.996-3.58v-.316c-4.771.928-9.224 2.038-13.11 3.647-9.77 3.919-18.449 10.986-27.628 18.393-3.317 2.696-6.725 5.46-10.27 8.11-.999.77-2.021 1.54-2.998 2.333-6.748 5.142-13.723 10.466-19.994 12.414-7.157 2.22-13.723.181-18.517-5.776-2.34-2.923-4.34-6.592-6.43-10.466-2.022-3.76-4.135-7.657-6.589-10.76-4.18-5.278-9.633-9.446-14.927-13.478-5.385-4.1-10.929-8.314-15.018-13.682-1-1.314-1.704-2.855-2.386-4.327-1.136-2.47-2.204-4.802-4.68-6.388-4.999-3.126-13.155-3.24-18.608-2.016-8.68 1.948-15.2 5.64-22.743 9.944-.773.43-1.59.861-2.363 1.36-4.908 2.763-9.815 3.239-15.064 3.783a53.73 53.73 0 0 1-2.817.294l-1.5.204c-11.882 1.382-25.31 2.945-36.897-1.36-6.953-2.582-12.065-7.27-12.996-11.937-.682-3.353.636-6.637 3.93-9.718 5.249-4.938 11.747-7.996 17.995-10.941a161.812 161.812 0 0 0 6.657-3.172c4.726-2.446 9.588-5.414 12.791-10.397 1.205-1.926 2.34-3.919 3.431-5.867 1.5-2.696 3.067-5.482 4.93-8.064 5.908-8.133 9.407-16.945 13.133-26.255.659-1.676 1.34-3.352 2.045-5.074 2.544-6.161 5.793-13.229 10.769-18.915 8.93-10.125 27.083-23.423 40.533-18.439 8.52 3.149 17.108 11.87 21.857 18.349 2.567 3.465 6.089 8.88 8.406 15.018 1.023 2.673 1.909 5.346 2.75 7.906 1.181 3.624 2.294 7.022 3.749 10.33 2.817 6.546 6.566 12.73 11.11 18.461 3.09 3.851 8.61 7.136 13.041 9.809.432.204.818.453 1.25.725 1.5.906 3.135 1.767 4.657 2.627 3.386 1.835 6.862 3.738 9.907 6.23 9.951 8.223 13.018 19.662 8.61 32.234-4.18 11.938-11.11 16.718-21.13 14.68-1.999-.431-3.816-1.224-5.93-2.175-.545-.25-1.158-.521-1.726-.793-1.227-.521-2.636-1.042-4.112-1.631-6.544-2.605-14.655-5.777-17.859-10.737-3.521-5.482-5.134-15.903-1.795-22.087 3.522-6.5 3.09-17.827.818-25.62-1.317-4.62-3.521-8.947-5.612-13.16-1.34-2.651-2.703-5.392-3.862-8.178-1.159-2.764-1.908-5.392-2.636-7.951-1.25-4.44-2.43-8.608-5.498-13.003-5.18-7.385-12.155-15.993-20.357-16.672-4.635-.408-9.316 1.767-13.928 6.433-6.725 6.818-12.223 15.087-15.132 22.698-3.067 8.064-4.612 16.672-4.294 23.581.591 11.689 9.111 17.533 17.359 23.22 4.657 3.216 9.474 6.546 12.882 10.872 1.227 1.54 2.295 3.308 3.43 5.188 2.023 3.307 4.113 6.728 7.09 8.947 1.817 1.314 3.703 2.606 5.498 3.851 2.658 1.858 5.43 3.783 8.043 5.8 3.499 2.74 7.384 5.096 11.133 7.362 5.225 3.194 10.587 6.456 15.04 10.805.591.52 1.091 1.02 1.66 1.585 8.906 8.654 18.153 17.624 30.444 14.022 8.748-2.537 15.45-9.015 22.539-15.856 6.703-6.502 13.655-13.252 23.016-17.171 5.998-2.492 12.519-3.942 18.903-5.233v-.317c-6.43 1.291-12.973 2.764-19.017 5.3-9.406 3.92-16.359 10.67-23.13 17.194"/>
            <path fill="#000" d="M431.829 347.868c-4.806 1.019-9.725 3.441-14.917 6-8.637 4.233-17.546 8.625-25.753 6.067-14.758-4.596-20.425-20.262-25.435-34.072-1.043-2.83-1.995-5.48-3.038-8.037-2.267-5.683-5.146-10.98-8.524-15.644-5.236-7.29-11.675-11.795-18.498-16.55-1.043-.701-2.063-1.448-3.129-2.173-6.007-4.256-13.33-8.467-21.785-7.244-2.653.385-5.418 1.788-8.07 3.17-1.678.882-3.288 1.675-4.83 2.24-1.156.43-2.334.86-3.513 1.314-9.068 3.237-18.43 6.656-24.869 13.968-1.836 2.105-3.423 4.845-4.965 7.448a112.897 112.897 0 0 1-2.312 3.917c-3.22 4.89-5.962 10.278-8.252 16.029-2.425 6.248-3.876 12.95-5.236 19.447-1.52 7.018-3.06 14.285-5.872 20.873-2.902 6.77-10.564 11.637-17.342 15.893-1.837 1.177-3.582 2.286-5.124 3.396-4.602 3.192-8.614 7.063-12.445 10.821-2.517 2.468-5.146 5.026-7.912 7.358-6.393 5.388-9.25 14.602-7.504 24.043 3.106 16.527 9.544 19.266 23.486 21.575 10.632 1.743 23.01 1.336 37.79-1.245 8.524-1.494 16.64-6.995 24.461-12.27 2.857-1.947 5.532-3.781 8.161-5.343 10.973-6.634 24.03-5.23 34.844 3.69 1.405 1.132 2.788 2.264 4.194 3.35 8.229 6.589 16.027 12.792 20.153 22.685 1.836 4.302 3.038 8.897 4.217 13.357 1.133 4.37 2.29 8.875 4.08 13.154 2.653 6.407 7.844 13.493 13.58 18.519 4.942 4.346 12.423 9.033 19.994 6.837 7.05-2.06 11.176-10.052 15.574-18.497 2.811-5.365 5.713-10.89 9.544-15.485 4.988-6 11.653-11.41 16.232-14.964l.476-.385c9.816-7.607 19.065-14.806 31.352-17.251.771-.182 1.565-.295 2.358-.408v-.317c-.816.136-1.61.272-2.448.43-12.333 2.445-21.627 9.667-31.42 17.297l-.522.385c-4.58 3.554-11.244 9.01-16.254 15.01-3.854 4.618-6.733 10.187-9.567 15.553-4.375 8.399-8.501 16.322-15.415 18.337-7.413 2.196-14.804-2.445-19.7-6.746-5.623-4.935-10.95-12.157-13.512-18.428-1.768-4.257-2.947-8.762-4.058-13.086-1.178-4.483-2.38-9.101-4.216-13.425-4.194-9.961-12.378-16.481-20.312-22.798-1.338-1.087-2.766-2.218-4.126-3.35-10.972-9.01-24.12-10.392-35.206-3.736-2.653 1.607-5.328 3.419-8.139 5.343-7.844 5.298-15.914 10.754-24.37 12.248-14.758 2.603-27.09 3.01-37.7 1.222-13.783-2.264-20.153-4.98-23.236-21.326-1.746-9.327 1.11-18.428 7.39-23.749 2.766-2.354 5.418-4.912 7.957-7.38 3.831-3.735 7.799-7.63 12.378-10.799 1.542-1.087 3.31-2.196 5.123-3.373 6.801-4.279 14.509-9.146 17.456-16.006 2.834-6.633 4.375-13.923 5.894-20.941 1.383-6.498 2.789-13.176 5.237-19.38 2.267-5.727 5.01-11.116 8.184-16.006.816-1.222 1.564-2.535 2.357-3.916 1.52-2.604 3.106-5.298 4.942-7.403 6.393-7.267 15.71-10.64 24.71-13.9a95.004 95.004 0 0 1 3.56-1.291c1.564-.589 3.196-1.472 4.806-2.287 2.652-1.358 5.395-2.762 8.002-3.124 8.365-1.2 15.597 2.966 21.582 7.2 1.065.746 2.063 1.426 3.105 2.15 6.824 4.777 13.24 9.237 18.431 16.481 3.378 4.664 6.212 9.94 8.501 15.622 1.02 2.512 1.972 5.184 3.015 8.014 5.033 13.878 10.723 29.612 25.662 34.253 8.298 2.58 17.297-1.834 25.957-6.113 5.192-2.558 10.088-4.935 14.826-5.954 6.733-1.449 19.156-2.015 31.126-1.72v-.317c-11.992-.25-24.438.317-31.171 1.743"/>
            <g transform="translate(258 102)">
                <mask id="n" fill="#fff">
                    <use xlink:href="#m"/>
                </mask>
                <path fill="#000" d="M167.486 9.158c-8.083 5.605-12.942 13.57-14.418 23.599-.568 3.925-.136 8.214.318 12.343.477 4.334.954 8.827.272 13.047-.772 4.856-3.383 9.19-6.675 11.119-2.338 1.384-4.904 1.543-7.606.522-8.741-10.143-15.87-16.882-26.633-21.284-3.088-1.225-6.198-2.315-10.058-3.517-1.907-.59-3.792-1.226-5.654-1.815-11.67-3.835-23.772-7.783-43.457-6.15-9.445.772-16.552 2.519-22.773 8.782-4.087 4.152-7.197 9.144-10.15 13.954-2.156 3.472-4.381 7.08-6.924 10.302-1.317 1.634-2.838 3.245-4.337 4.81-2.202 2.338-4.495 4.72-6.176 7.398C-.28 87.78-.44 96.97.877 103.166c1.725 8.078 6.902 15.02 12.079 21.442 1.271 1.589 2.497 3.336 3.814 5.174 3.474 4.97 7.062 10.097 12.057 12.752 5.472 2.882 11.852 2.904 17.937 2.473 2.088-.136 4.223-.726 6.312-1.248 3.042-.817 6.175-1.702 9.218-1.134 10.807 1.928 23.045 9.44 30.878 15.838 4.246 3.449 8.106 7.352 11.444 11.617 2.634 3.313 5.131 6.671 7.81 10.257 4.564 6.103 9.287 12.434 14.668 18.674 4.972 5.832 11.488 11.323 21.683 7.806 5.79-2.02 10.762-5.469 15.394-8.872 6.857-5.038 13.078-12.117 19.072-18.993 5.495-6.285 10.694-12.23 15.825-15.86 1.385-.999 3.043-1.929 5.7-2.542v-.295c-2.725.613-4.474 1.589-5.881 2.587-5.177 3.676-10.354 9.598-15.871 15.952-5.971 6.807-12.17 13.909-19.004 18.924-4.768 3.517-9.582 6.83-15.326 8.804-10.058 3.494-16.461-1.952-21.388-7.692-5.336-6.24-10.081-12.571-14.622-18.675-2.68-3.585-5.222-6.966-7.833-10.256a72.739 72.739 0 0 0-11.512-11.686c-7.856-6.399-20.139-13.955-30.992-15.883-3.11-.545-6.266.295-9.354 1.134-2.066.522-4.178 1.112-6.244 1.248-6.04.409-12.374.409-17.8-2.45-4.905-2.61-8.492-7.715-11.944-12.616-1.294-1.861-2.52-3.63-3.814-5.242-5.131-6.353-10.33-13.274-12.011-21.306-1.294-6.15-1.135-15.226 2.293-20.672 1.658-2.654 3.928-5.037 6.153-7.374 1.476-1.543 3.043-3.154 4.314-4.81 2.611-3.245 4.814-6.83 6.948-10.325 2.997-4.833 6.062-9.78 10.149-13.886 6.153-6.195 13.192-7.965 22.569-8.736 19.64-1.589 31.719 2.337 43.366 6.172 1.84.59 3.746 1.202 5.631 1.815 3.86 1.202 6.97 2.269 10.013 3.517 10.74 4.334 17.869 11.073 26.542 21.216l.023.022.045.023c2.838 1.044 5.495.862 7.924-.522 3.36-1.974 6.04-6.421 6.812-11.345.68-4.243.181-8.759-.273-13.115-.431-4.13-.863-8.396-.318-12.276 1.453-9.961 6.267-17.835 14.282-23.394C176.795 3.032 189.6.082 204.767.649V.332c-15.235-.545-28.086 2.427-37.281 8.826" mask="url(#n)"/>
            </g>
            <g transform="translate(-36 -81)">
                <mask id="p" fill="#fff">
                    <use xlink:href="#o"/>
                </mask>
                <path fill="#000" d="M33.369 28.932c.5 4.183 1.158 11.911-.296 17.117-2.384 8.57-9.31 15.934-15.985 23.095C7.642 79.19-2.1 89.602.875 103.513c1.635 7.501 5.654 12.161 12.42 14.275 5.86 1.841 13.057 1.591 21.186 1.16 14.805-.819 24.864 1.613 30.677 3.841 5.903 2.273 11.308 6.001 16.598 9.638 7.04 4.864 13.715 9.479 21.254 10.502 3.02.386 5.517.295 8.356-.341 7.039-1.546 12.352-5.115 18.006-8.888 9.56-6.365 19.46-12.98 38.67-9.138 4.2.818 8.4 2.091 12.828 3.387 14.147 4.205 28.792 8.501 45.141-.16 14.805-7.455 24.114-21.094 33.083-34.3 4.201-6.16 8.538-12.548 13.33-18.14 6.153-7.137 14.509-16.935 24.772-13.548 4.133 1.342 8.379 2 12.511 2.637 6.54 1.046 13.284 2.114 19.346 5.933 4.36 2.728 7.72 6.615 11.013 10.388 1.521 1.75 3.134 3.592 4.791 5.274 3.679 3.705 6.653 8.07 9.537 12.297 2.452 3.592 4.973 7.274 7.947 10.593 3.997 3.523 7.493 6.615 11.58 10.297 4.928 4.501 9.424 9.843 13.76 15.003 8.357 9.91 16.19 19.253 26.477 22.276 7.243 2.16 14.736 1.864 24.296-.886 5.086-1.478 11.83-4.342 16.575-6.524 9.628-4.364 20.482-10.365 28.974-15.98 6.63-4.387 11.671-10.57 14.76-17.958v-.773c-3.02 7.638-8.152 14.003-14.896 18.458-8.515 5.615-19.346 11.616-28.974 15.98-4.723 2.16-11.421 5.046-16.508 6.524-9.536 2.728-16.961 3-24.16.91-10.172-3.001-18.006-12.321-26.316-22.21-4.337-5.16-8.833-10.524-13.806-15.024a868.783 868.783 0 0 0-11.557-10.32c-2.952-3.274-5.45-6.979-7.925-10.548-2.884-4.228-5.881-8.592-9.537-12.32-1.703-1.682-3.27-3.5-4.79-5.273-3.293-3.797-6.677-7.684-11.082-10.434-6.108-3.842-12.897-4.91-19.46-5.933-4.132-.682-8.378-1.341-12.442-2.66-10.468-3.455-18.938 6.41-25.091 13.617-4.814 5.637-9.15 12.002-13.352 18.162-8.991 13.207-18.256 26.845-32.97 34.21-16.257 8.638-30.858 4.319-44.959.16-4.427-1.32-8.628-2.57-12.851-3.41-19.301-3.842-29.247 2.773-38.874 9.206-5.609 3.75-10.922 7.274-17.938 8.82-2.77.636-5.245.727-8.22.318-7.448-.978-14.124-5.57-21.14-10.457-5.268-3.614-10.74-7.387-16.666-9.66-5.836-2.205-15.918-4.683-30.79-3.865-13.897.773-29.7 1.682-33.311-15.184-2.93-13.753 6.766-24.118 16.144-34.142 6.721-7.16 13.67-14.548 16.054-23.186 1.408-4.956.953-12.093.34-17.23-1.021-8.229-3.451-16.685-6.017-25.618-.272-.955-.522-1.91-.817-2.887h-.318c.295 1 .59 1.977.863 2.978 2.566 8.933 4.995 17.343 5.972 25.572" mask="url(#p)"/>
            </g>
            <g transform="translate(-177 -81)">
                <mask id="r" fill="#fff">
                    <use xlink:href="#q"/>
                </mask>
                <path fill="#000" d="M163.74 585.939c2.315-7.52 6.22-12.063 12.396-18.879.954-1.09 2.021-2.158 3.156-3.34 4.382-4.543 9.378-9.7 10.467-15.084 2.226-10.723-4.404-17.039-11.216-21.742-3.36-2.317-7.13-4.157-10.785-5.929-4.723-2.317-9.627-4.703-13.669-8.201-4.29-3.726-7.992-9.02-11.034-15.79-1.385-2.998-1.976-6.247-2.589-9.382-.59-3.067-1.18-6.225-2.475-9.133-5.948-13.312-13.69-28.352-26.383-38.893-5.517-4.59-12.488-11.814-14.327-20.424-1.18-5.657.477-10.61 1.816-14.562l.227-.727c3.02-8.951 12.011-30.351 30.857-35.736 3.383-.977 7.538-1.68 11.897-2.453 5.495-.932 11.194-1.931 15.326-3.476 6.471-2.386 11.08-5.702 15.985-9.45l.704-.523c4.677-3.59 10.512-8.065 18.119-7.475 6.584.546 14.122 3.976 20.616 9.474 6.584 5.543 10.99 12.268 12.102 18.447.726 3.998 1.044 7.224 1.362 10.314.295 2.703.5 5.225 1.022 8.02 2.43 13.971 9.127 25.126 19.935 33.1 8.764 6.474 20.458 11.018 34.785 13.494 18.573 3.226 34.375-2.84 40.256-5.588 9.4-4.408 19.481-14.972 28.177-24.536 8.628-9.519 13.215-15.153 14.236-30.26.318-4.862-.068-9.542-.454-14.131-.136-1.772-.318-3.59-.408-5.407a94.84 94.84 0 0 0-.318-4.09c-.432-4.588-.818-9.336 0-14.22 1.748-10.065 7.56-14.518 17.823-13.518 13.374 1.227 25.067 10.11 29.79 22.604 3.746 9.928.726 20.31-1.68 28.716l-.386 1.363c-3.974 13.858-9.378 24.672-16.507 33.055-4.064 4.726-8.515 9.178-12.851 13.495a196.14 196.14 0 0 0-4.86 4.861c-2.27 2.272-4.767 4.385-7.22 6.407-3.02 2.522-6.175 5.202-8.855 8.224-3.791 4.294-6.607 9.155-8.9 13.313-7.425 13.676-12.601 25.74-15.826 36.78-2.906 9.996-10.92 17.925-21.456 21.242-13.6 4.248-33.059 3.748-57.853-1.454-12.147-2.59-19.413-9.542-21.48-20.765-2.383-12.767-11.034-19.128-20.139-25.853-2.361-1.726-4.768-3.521-7.13-5.407-9.672-7.951-4.858-15.47.25-23.445 2.294-3.567 4.632-7.224 5.631-10.973 1.612-5.86-.454-12.04-2.452-18.038-1.044-3.135-2.02-6.066-2.52-8.974-2.339-13.812-4.7-24.717-11.716-29.215-3.77-2.385-8.605-2.726-14.827-.977-.999.25-2.088.59-3.27.932-2.406.726-5.13 1.522-7.356 1.999-3.882.886-7.924 1.408-12.192 1.908-4.564.59-9.241 1.159-14.395 2.25-7.834 1.612-14.736 5.383-19.913 10.881-5.109 5.407-8.333 12.222-9.4 19.742-.454 3.203-.59 5.952.295 8.951 2.589 8.747 10.513 14.903 17.506 20.333 1.612 1.25 3.156 2.43 4.61 3.657l.249.182c6.766 5.612 15.19 12.563 14.872 22.128-.34 9.86.93 16.993 4.2 23.922 5.132 10.86 12.397 17.47 25.021 22.763.954.364 1.885.773 2.839 1.16 4.36 1.794 8.81 3.634 12.964 5.974 3.406 1.908 5.677 4.316 8.083 6.838 1.34 1.409 2.702 2.84 4.269 4.226 1.885 1.635 3.701 3.816 5.586 6.134 4.768 5.906 10.171 12.585 18.527 10.972 4.269-.817 8.492-3.77 12.965-6.86 3.905-2.727 7.947-5.544 12.488-7.361 7.697-2.999 18.527-3.726 30.016-4.498 6.97-.455 14.19-.954 20.775-1.977 14.986-2.362 25.135-7.633 30.993-16.084 1.748-2.476 2.906-5.294 3.973-8.02.84-2.135 1.726-4.316 2.861-6.315.84-1.522 2.18-2.704 3.474-3.862.704-.637 1.453-1.318 2.089-2.045a119.431 119.431 0 0 0 3.497-4.112c1.226-1.5 2.52-3.09 3.905-4.566 2.112-2.34 4.541-4.453 6.857-6.566 2.157-1.954 4.405-3.976 6.448-6.157 1.68-1.772 3.02-3.703 4.337-5.565 1.476-2.136 2.974-4.272 5.018-6.248 3.406-3.408 6.97-7.11 9.831-11.223 2.452-3.544 3.542-6.997 4.746-10.632a62.31 62.31 0 0 1 1.158-3.476c.908-2.658 2.565-5.157 4.177-7.588.954-1.454 1.908-2.907 2.702-4.384 3.043-5.566 5.631-11.132 7.743-16.539.567-1.545 1.09-3.09 1.657-4.589.227-.659.454-1.272.681-1.908a487.167 487.167 0 0 1 3.247-8.656c3.088-8.247 6.335-16.743 7.992-24.49 1.068-4.953 1.999-10.246.863-15.448-3.86-17.902-21.184-36.577-37.077-39.984-7.357-1.545-16.62-1.454-26.089.318-15.712 2.953-21.524 10.54-20.73 27.102.182 3.862.545 7.77.863 11.541.75 8.156 1.476 15.88.59 23.332-.476 4.293-1.907 8.133-2.928 10.61-2.316 5.565-7.584 15.084-14.169 25.398-6.493 10.155-15.19 17.538-23.93 20.31-16.576 5.248-38.759.045-51.678-12.154-6.471-6.111-13.35-16.562-9.514-31.51.227-.909.613-1.818 1.022-2.795.545-1.158 1.045-2.385 1.34-3.703 1.998-3.476 4.495-6.565 6.948-9.587 5.494-6.815 10.671-13.222 8.696-22.4-.364-1.704-1.113-3.498-1.908-5.43-1.634-3.952-3.292-7.996-1.34-10.427 3.407-4.248 8.061-8.678 13.01-13.381 8.538-8.11 17.393-16.539 19.89-24.445 2.544-7.906-2.656-15.789-4.88-19.128-2.385-3.613-5.132-7.338-8.016-11.337a431.916 431.916 0 0 1-6.766-9.382c-1.816-2.636-3.587-5.157-5.336-7.68-4.041-5.792-7.856-11.267-11.784-17.106-1.544-2.34-3.11-4.839-4.632-7.247-2.543-4.044-5.176-8.179-7.81-11.7-5.767-7.724-12.261-10.905-19.368-9.45-7.061 1.43-14.713 6.883-21.343 11.858a118.06 118.06 0 0 0-2.679 2.022c-12.374 9.292-26.429 19.81-30.13 31.51-3.133 9.95 2.657 14.585 8.787 19.492.658.523 1.317 1.068 1.975 1.613 4.065 3.363 7.198 6.839 9.696 9.77 3.428 4.02 6.448 8.837 9.377 13.494 2.066 3.271 4.019 6.43 5.971 8.973 6.721 8.815 15.44 12.7 23.84 16.494 8.266 3.68 16.78 7.451 23.228 15.903 0 .318.023.59.023.908.023.886.068 1.772-.182 2.59-7.651 8.315-17.165 10.36-29.085 6.407-3.633-1.227-7.22-3.158-11.035-5.248-8.514-4.612-17.324-9.36-27.45-6.27-7.289 2.18-12.352 7.338-17.257 12.313-4.836 4.93-9.808 9.996-17.051 12.54-4.223 1.431-8.605 1.863-14.736 2.34-15.485 1.182-22.955 2.954-29.312 11.018-8.379 10.678-18.71 29.511-21.888 37.304-1.249 3.112-2.021 5.43-2.384 7.133-2.702 13.586 5.63 24.195 13.169 31.965 1.839 1.84 3.837 3.566 5.767 5.202 1.748 1.5 3.542 3.022 5.2 4.635 3.36 3.385 6.062 7.383 8.673 11.268 1.34 1.976 2.679 3.998 4.11 5.93 10.398 13.857 13.532 25.966 10.194 39.233-2.452 9.52-7.992 21.56-20.73 24.831-4.7 1.204-9.74 1.818-15.076 2.408-4.927.591-10.081 1.182-15.1 2.318-4.381 1-8.536 2.294-12.532 3.59-5.609 1.726-10.922 3.407-16.394 4.088-9.604 1.295-18.118-.727-26.36-2.612-7.266-1.704-14.191-3.294-21.003-2.386v.296c6.79-.932 13.669.681 20.934 2.363 8.265 1.93 16.802 3.907 26.475 2.635 5.517-.704 10.808-2.363 16.438-4.135 3.974-1.25 8.152-2.544 12.534-3.544 5.018-1.136 10.104-1.727 15.03-2.294 5.36-.637 10.4-1.205 15.1-2.431 10.217-2.636 17.46-11.291 20.934-25.036 3.406-13.38.25-25.535-10.195-39.53-1.408-1.908-2.77-3.93-4.11-5.86-2.633-3.908-5.335-7.952-8.741-11.314-1.657-1.659-3.451-3.18-5.177-4.657-1.93-1.659-3.928-3.363-5.744-5.226-7.493-7.678-15.78-18.22-13.078-31.691.34-1.682 1.112-3.976 2.36-7.066 3.134-7.77 13.442-26.58 21.82-37.212 6.267-7.974 13.737-9.792 29.109-10.95 6.153-.477 10.535-.886 14.826-2.386 7.289-2.499 12.307-7.633 17.166-12.54 5.086-5.202 9.876-10.11 17.097-12.268 10.035-3.021 18.8 1.704 27.246 6.27 3.837 2.068 7.425 4.044 11.057 5.248 12.08 4.021 21.684 1.909 29.472-6.474l.023-.069c.25-.908.227-1.84.158-2.726v-.999l-.045-.046c-6.471-8.52-15.054-12.358-23.341-16.061-8.378-3.726-17.074-7.634-23.727-16.38-1.93-2.545-3.905-5.68-5.971-8.974-2.93-4.657-5.972-9.45-9.4-13.517-2.498-2.93-5.631-6.407-9.741-9.792-.658-.568-1.317-1.067-1.975-1.613-6.04-4.861-11.762-9.45-8.674-19.174 3.678-11.609 17.665-22.082 29.994-31.35.908-.682 1.816-1.364 2.702-2.046 6.584-4.975 14.213-10.382 21.207-11.813 6.97-1.408 13.396 1.704 19.095 9.337 2.656 3.522 5.245 7.679 7.788 11.7 1.52 2.408 3.065 4.884 4.631 7.224 3.906 5.862 7.743 11.337 11.784 17.153 1.749 2.499 3.52 5.066 5.359 7.678a317.8 317.8 0 0 0 6.743 9.383c2.907 3.976 5.654 7.724 8.038 11.314 2.18 3.34 7.334 11.109 4.836 18.878-2.497 7.86-11.33 16.198-19.844 24.331-4.927 4.703-9.604 9.133-13.033 13.404-2.043 2.567-.34 6.702 1.34 10.723.772 1.908 1.52 3.726 1.861 5.362 1.976 9.041-3.201 15.403-8.65 22.15-2.43 3.044-4.973 6.18-6.97 9.655l-.023.068c-.273 1.295-.795 2.5-1.317 3.658-.409 1-.818 1.908-1.045 2.817-3.02 11.813.386 23.104 9.65 31.805 12.942 12.268 35.261 17.493 51.95 12.245 8.764-2.84 17.55-10.268 24.022-20.423 6.607-10.36 11.943-19.879 14.213-25.467 1.045-2.5 2.475-6.361 2.975-10.678.862-7.497.159-15.221-.568-23.4-.363-3.77-.704-7.678-.885-11.518-.41-8.383.885-14.267 4.018-18.424 3.224-4.203 8.447-6.884 16.462-8.383 9.445-1.772 18.663-1.886 25.974-.295 15.803 3.362 33.014 21.945 36.851 39.734 1.113 5.134.182 10.382-.84 15.312-1.68 7.747-4.904 16.22-8.015 24.422-1.067 2.862-2.18 5.793-3.224 8.678-.227.636-.454 1.272-.704 1.931-.5 1.5-1.09 3.044-1.657 4.59a138.384 138.384 0 0 1-7.698 16.47c-.794 1.476-1.77 2.93-2.701 4.384-1.59 2.431-3.293 4.953-4.224 7.656a207.66 207.66 0 0 0-1.158 3.476c-1.158 3.612-2.27 7.066-4.654 10.542-2.884 4.111-6.448 7.815-9.854 11.177-2.021 1.976-3.542 4.18-5.04 6.27-1.272 1.886-2.635 3.794-4.292 5.589-2.02 2.135-4.291 4.18-6.448 6.11-2.339 2.114-4.723 4.272-6.903 6.612-1.34 1.477-2.656 3.044-3.905 4.566a143.088 143.088 0 0 1-3.451 4.09c-.659.704-1.385 1.385-2.09 2.044-1.316 1.181-2.61 2.363-3.496 3.953-1.203 2-2.066 4.18-2.906 6.293-1.09 2.726-2.225 5.543-3.928 7.997-5.813 8.405-15.871 13.585-30.811 15.948-6.562 1.045-13.76 1.522-20.753 2-11.511.772-22.364 1.476-30.107 4.52-4.564 1.795-8.65 4.612-12.556 7.338-4.427 3.112-8.605 6.043-12.828 6.838-8.174 1.568-13.533-5.02-18.278-10.86-1.907-2.316-3.678-4.543-5.586-6.178a53.322 53.322 0 0 1-4.246-4.226c-2.452-2.544-4.7-4.953-8.15-6.884-4.178-2.34-8.697-4.202-13.01-5.975-.954-.386-1.885-.772-2.839-1.158-12.556-5.248-19.776-11.79-24.862-22.605-3.247-6.883-4.496-13.994-4.155-23.808.295-9.678-8.197-16.698-15.008-22.355l-.25-.182a115.75 115.75 0 0 0-4.587-3.657c-7.31-5.68-14.872-11.564-17.437-20.197-.84-2.93-.727-5.657-.273-8.814 2.134-15.426 13.283-27.103 29.086-30.397 5.131-1.068 9.831-1.636 14.35-2.204 4.268-.545 8.332-1.068 12.237-1.931 2.226-.5 4.95-1.295 7.38-2a78.72 78.72 0 0 1 3.27-.953c6.13-1.704 10.898-1.386 14.599.977 6.925 4.361 9.24 15.266 11.58 28.988.476 2.93 1.475 5.907 2.52 9.042 1.975 5.952 4.041 12.086 2.475 17.833-1.022 3.726-3.36 7.361-5.631 10.905-5.154 8.088-10.059 15.721-.16 23.786 2.34 1.931 4.746 3.726 7.107 5.452 9.083 6.68 17.665 13.018 20.027 25.695 2.134 11.313 9.422 18.379 21.728 20.946 24.817 5.27 44.344 5.747 57.967 1.5 10.649-3.363 18.755-11.337 21.66-21.424 3.202-11.064 8.38-23.059 15.826-36.758 2.27-4.135 5.11-8.95 8.855-13.245 2.634-3.021 5.79-5.656 8.856-8.2 2.429-2.046 4.927-4.136 7.197-6.407a197.33 197.33 0 0 1 4.859-4.885c4.337-4.316 8.832-8.792 12.874-13.517 7.152-8.406 12.579-19.265 16.53-33.169l.408-1.385c2.43-8.383 5.427-18.834 1.657-28.875-4.745-12.563-16.506-21.514-30.016-22.81-10.422-.976-16.393 3.522-18.119 13.813-.862 4.885-.431 9.656-.022 14.267.113 1.432.227 2.772.318 4.09.136 1.84.272 3.635.408 5.407.386 4.566.795 9.269.477 14.085-1.044 14.994-5.585 20.628-14.168 30.079-8.696 9.541-18.732 20.105-28.064 24.444-5.88 2.75-21.615 8.815-40.12 5.59-31.765-5.499-50.065-21.083-54.493-46.346-.476-2.772-.749-5.316-.976-7.997-.34-3.112-.658-6.315-1.385-10.36-1.135-6.247-5.563-13.017-12.193-18.628-6.562-5.498-14.122-8.974-20.798-9.519-7.72-.59-13.6 3.885-18.323 7.52l-.681.545c-4.927 3.748-9.514 7.043-15.916 9.428-4.11 1.5-9.81 2.476-15.304 3.453-4.36.75-8.514 1.477-11.875 2.431-18.981 5.452-28.063 26.944-31.106 35.917l-.204.75c-1.385 3.998-3.043 8.951-1.817 14.721 1.84 8.701 8.855 15.994 14.418 20.583 12.624 10.473 20.412 25.467 26.293 38.803 1.271 2.862 1.884 5.997 2.452 9.041.613 3.158 1.226 6.43 2.611 9.474 3.043 6.793 6.79 12.131 11.103 15.88 4.042 3.521 8.991 5.907 13.737 8.201 3.655 1.795 7.424 3.635 10.762 5.952 6.698 4.658 13.283 10.882 11.08 21.446-1.09 5.294-6.017 10.405-10.399 14.926a136.721 136.721 0 0 0-3.179 3.362c-6.175 6.793-10.08 11.36-12.42 18.97-1.725 5.68-1.861 15.835-.272 23.15 1.249 5.861 2.816 11.518 4.382 16.97h.318c-1.59-5.475-3.133-11.132-4.427-17.038-1.544-7.27-1.43-17.357.272-22.991" mask="url(#r)"/>
            </g>
        </g>
    </g>
</svg>
