<svg xmlns="http://www.w3.org/2000/svg" xmlns:xlink="http://www.w3.org/1999/xlink" width="320" height="1114" viewBox="0 0 320 1114">
    <defs>
        <path id="a" d="M0 0h323v1114H0z"/>
        <path id="c" d="M0 752.463V.835h513.79v751.628z"/>
        <path id="e" d="M.078.797h499.065v285.175H.078V.797z"/>
        <path id="g" d="M.427.798h391.89v248.164H.427V.798z"/>
        <path id="i" d="M.744.873h1121.72V354.83H.745V.873z"/>
        <path id="k" d="M962.03 1405.918h476.475V.84H.082v1405.078H962.03V440.224H.077v965.705h961.952z"/>
    </defs>
    <g fill="none" fill-rule="evenodd" transform="translate(-1)">
        <mask id="b" fill="#fff">
            <use xlink:href="#a"/>
        </mask>
        <use fill="#F8F7F7" xlink:href="#a"/>
        <g mask="url(#b)" opacity=".073">
            <g transform="translate(-472 -201)">
                <mask id="d" fill="#fff">
                    <use xlink:href="#c"/>
                </mask>
                <path fill="#000" d="M66.6 424.697c23.193 9.282 52.056 20.705 63.04 44.165.766 12.8-3.73 23.714-8.532 35.24-6.692 16.115-14.355 34.372-10.064 62.982 3.321 21.726 16.092 35.648 30.907 51.815 6.13 6.63 12.363 13.514 18.34 21.368 15.632 20.501 26.309 43.655 34.585 63.646 8.327 19.838 14.866 35.546 36.68 40.748 13.077 3.162 31.366 5.354 43.881 6.63 6.948.764 13.385 1.172 19.158 1.172 9.604 0 17.88-1.07 24.878-3.11 14.815-4.386 24.266-16.422 36.118-31.67 3.576-4.54 7.203-9.18 11.34-14.076 2.81-3.417 6.488-7.089 10.422-11.067 8.174-8.21 16.603-16.727 18.953-23.56.868-2.653.613-5.05.408-7.753-.204-2.09-.408-4.386-.153-7.14l.051-.152-.102-.102c-7.918-10.455-17.573-18.819-26.87-26.979-15.837-13.871-30.857-26.876-36.476-48.346-3.014-11.322-1.89-23.408 3.27-37.025 5.568-14.33 18.441-30.14 36.372-44.368 8.072-6.426 16.654-13.107 25.747-20.247 41.635-32.384 88.89-69.153 114.687-101.18l.051-.204c.869-3.927.562-8.415-.613-13.362-3.32-13.412-13.844-29.426-28.914-43.858-14.355-13.668-30.702-23.97-43.678-27.54-1.073-.306-3.116-.867-5.313-1.274-17.369-3.927-35.351-1.224-52.72 1.376-15.02 2.244-29.272 4.386-43.116 2.601-29.885-3.926-51.392-23.918-58.953-54.772-10.013-40.544 17.574-65.992 44.291-90.675 19.668-18.206 40.051-36.974 45.415-61.81 5.058-23.357-1.583-48.55-5.977-65.227-1.737-6.731-3.882-13.463-6.181-20.144h-.664c2.35 6.732 4.444 13.515 6.232 20.348 4.342 16.575 10.984 41.666 5.926 64.87-5.313 24.632-25.594 43.349-45.262 61.453-26.768 24.785-54.508 50.387-44.444 91.287 7.612 31.16 29.425 51.304 59.566 55.231 13.895 1.836 28.148-.255 43.269-2.499 17.318-2.6 35.198-5.252 52.465-1.428 2.145.46 4.24 1.02 5.313 1.326 25.798 7.038 64.93 41.921 72.081 70.837 1.226 4.896 1.43 9.282.664 13.056-25.747 31.976-72.899 68.745-114.533 101.13-9.093 7.037-17.676 13.718-25.798 20.144-17.982 14.33-30.958 30.19-36.475 44.725-5.262 13.719-6.386 25.907-3.372 37.382 5.722 21.623 20.74 34.832 36.68 48.754 9.246 8.058 18.799 16.422 26.717 26.724-.255 2.753-.051 5.048.102 7.14.307 2.651.511 4.946-.357 7.445-2.3 6.68-10.626 15.198-18.8 23.357-3.882 3.927-7.612 7.701-10.421 11.067-4.138 4.896-7.816 9.537-11.392 14.127-11.801 15.146-21.15 27.13-35.76 31.465-11.086 3.264-25.44 3.927-43.73 1.938-12.566-1.377-30.804-3.57-43.83-6.63-21.457-5.1-27.995-20.705-36.271-40.39-8.327-20.042-18.953-43.247-34.585-63.85-5.977-7.854-12.312-14.687-18.391-21.368-14.764-16.065-27.484-29.936-30.702-51.458-4.292-28.406 3.27-46.561 9.961-62.626 4.802-11.627 9.4-22.592 8.634-35.596l-.051-.153c-11.188-23.664-40.153-35.24-63.448-44.47-6.335-2.55-12.874-5.1-20.026-6.682-16.45-3.519-32.133-5.457-46.845-6.068v.713c14.661.51 30.293 2.55 46.692 6.018 7.1 1.48 13.64 4.08 19.923 6.58" mask="url(#d)"/>
            </g>
            <g transform="translate(-111 -201)">
                <mask id="f" fill="#fff">
                    <use xlink:href="#e"/>
                </mask>
                <path fill="#000" d="M43.316 20.165c1.782 6.887 3.87 13.773 5.908 20.455 4.38 14.792 8.504 28.82 10.134 41.317 1.273 8.927 1.273 18.108.051 24.535-3.412 19.333-16.399 34.38-28.927 48.969C16.121 172.12 1.25 189.463.078 213.54c1.58 21.423 25.668 24.535 51.183 27.8 4.685.663 9.574 1.224 14.26 1.989 18.69 3.01 40.232 8.977 62.233 17.24 7.74 2.96 15.125 6.58 22.357 10.1 13.7 6.836 26.686 13.314 41.863 14.997 1.935.204 3.87.306 5.907.306 10.288 0 19.251-2.907 26.89-5.61 7.792-2.755 14.464-5.714 20.931-8.621 13.853-6.121 26.941-11.936 47.108-13.722 3.616-.408 7.283-.56 10.899-.56 21.95 0 40.284 5.814 58.108 11.374 15.33 4.897 29.895 9.437 44.97 9.437 2.953 0 5.958-.153 8.81-.561 22.866-2.908 40.437-14.742 53.678-36.319 11.713-19.026 18.435-43.102 24.038-66.26 1.63-6.784 4.532-19.485 5.5-28.667 1.018-8.671-.306-14.996-4.176-19.383-6.876-8.06-20.779-8.519-36.821-9.029-7.334-.255-14.82-.51-22.357-1.479-31.626-4.08-58.109-8.212-87.494-20.506-24.14-10.048-48.33-22.647-64.372-31.37C256.6 49.903 226.095 31.642 204.553.782h-.815c21.644 31.115 52.354 49.683 79.549 64.526 15.991 8.774 40.182 21.322 64.423 31.422 29.386 12.242 55.97 16.373 87.647 20.505 7.537.97 15.074 1.224 22.408 1.53 15.89.46 29.69.918 36.464 8.723 3.616 4.285 4.94 10.457 3.973 18.924-1.07 9.13-3.922 21.78-5.552 28.565-11.153 46.06-27.144 95.794-77.155 102.069-2.852.357-5.806.51-8.709.51-14.972 0-29.436-4.54-44.816-9.386-17.825-5.56-36.21-11.324-58.261-11.324-3.616 0-7.283.153-10.95.46-20.269 1.835-33.408 7.701-47.311 13.874-6.468 2.856-13.14 5.815-20.83 8.569-7.639 2.703-16.602 5.509-26.737 5.509a53.91 53.91 0 0 1-5.805-.306c-15.024-1.632-27.96-8.06-41.66-14.844-7.231-3.57-14.666-7.243-22.407-10.15-22.103-8.315-43.645-14.283-62.387-17.292a455.295 455.295 0 0 0-14.26-1.939C26.153 237.463 2.268 234.351.74 213.49c1.172-23.72 15.992-40.96 30.251-57.64 12.63-14.589 25.617-29.79 29.131-49.224 1.222-6.529 1.12-15.761-.05-24.79-1.681-12.6-5.858-26.576-10.237-41.368-1.987-6.682-4.024-13.67-5.908-20.506-1.222-4.437-2.444-8.977-3.769-13.364C39.65 4.71 39.14 2.72 38.528.782h-.661c.56 2.04 1.171 4.03 1.68 6.02a837.876 837.876 0 0 1 3.769 13.363" mask="url(#f)"/>
            </g>
            <g transform="translate(-59 -201)">
                <mask id="h" fill="#fff">
                    <use xlink:href="#g"/>
                </mask>
                <path fill="#000" d="M34.685 60.593c4.04 9.092 8.284 18.336 9.665 28.092 3.989 26.61-9.818 43.925-23.114 60.73-9.102 11.44-17.642 22.218-20.301 35.497-.716 3.32-.511 5.363-.358 8.02.102 1.378.204 2.86.204 4.954v.05c3.376 9.45 13.552 16.09 21.478 19.972 28.637 14.148 75.325 20.839 109.382 25.742a112.486 112.486 0 0 0 15.546 1.072c13.244 0 25.517-2.196 38.506-4.545 13.909-2.503 28.278-5.159 44.847-5.159 4.398 0 8.898.204 13.244.562.87.102 3.375.255 6.597.46 4.705.204 10.585.51 14.727.868 13.858 1.072 24.853 3.524 35.438 5.874 14.216 3.166 27.46 6.18 47.2 6.18 2.045 0 4.193-.051 6.34-.102 15.7-2.452 30.07-19 35.796-41.117 4.756-18.336 3.682-42.648-13.602-56.132-20.352-15.783-79.569-29.675-111.376-32.23-6.801-.561-12.426-.612-17.898-.612-6.085-.051-12.324-.102-20.506-.817-21.938-1.992-40.04-10.624-60.7-28.858-25.517-22.678-39.324-40.197-59.114-74.827-2.148-3.728-4.142-8.325-5.983-13.484h-.767c1.943 5.26 3.989 9.96 6.188 13.79 19.79 34.732 33.648 52.251 59.318 74.98 20.66 18.388 38.916 27.07 61.007 29.063 8.182.715 14.472.766 20.557.766 5.727.05 11.045.102 17.847.664 31.705 2.605 90.717 16.344 111.07 32.127 16.977 13.228 17.948 37.285 13.346 55.417-5.676 21.86-19.892 38.154-35.285 40.606-2.096.05-4.193.102-6.238.102-19.586 0-32.933-3.065-47.046-6.13-10.637-2.4-21.631-4.852-35.54-5.924-4.143-.256-10.023-.664-14.728-.92-3.222-.153-5.727-.306-6.597-.357-4.397-.46-8.846-.613-13.295-.613-16.62 0-31.04 2.605-44.95 5.159-12.988 2.35-25.21 4.546-38.403 4.546-5.268 0-10.33-.307-15.444-1.073-34.006-4.852-80.643-11.492-109.177-25.691-7.824-3.78-17.796-10.318-21.069-19.511-.05-2.043-.153-3.525-.204-4.904-.256-2.605-.41-4.597.307-7.865 2.608-13.025 11.096-23.802 20.148-35.192 13.449-16.855 27.256-34.323 23.267-61.24-1.432-9.807-5.625-19.205-9.716-28.245-1.636-3.524-3.324-7.202-4.756-10.93C25.276 36.383 19.14 18.915 15.253.783h-.665c3.99 18.234 10.126 35.855 15.342 48.931a258.963 258.963 0 0 0 4.755 10.88" mask="url(#h)"/>
            </g>
            <path fill="#000" d="M223.033-34.338c14.877 0 28.41 4.28 35.177 11.058 3.461 3.567 5.166 7.643 5.114 12.229-4.649 13.452-22.522 15.44-32.75 15.44-15.651 0-33.369-4.434-44.216-11.058l-.104-.306c-.723-1.681-1.343-3.464-2.582-4.79.361-15.49 20.662-22.573 39.361-22.573m-37.45 27.67l.258.458.103.05C196.792.568 214.768 5 230.574 5c10.487 0 28.67-2.038 33.422-15.898v-.051c.103-4.84-1.653-9.121-5.372-12.79C251.805-30.719 238.116-35 223.033-35 203.92-35 183.258-27.713 183-11.611v.101l.155.102c1.136 1.274 1.86 3.058 2.428 4.74M204.211 151.675c6.051-4.056 17.332-6.007 34.51-6.007 15.998 0 35.226 1.745 52.147 3.286 10.768.975 21.024 1.9 29.638 2.31 36.355 1.798 70.659 3.595 96.861 26.342 16.87 14.583 30.458 29.731 26.151 67.267-1.948 17.048-9.794 37.741-18.1 59.667-1.436 3.851-2.923 7.703-4.359 11.605-.872 2.26-1.743 4.57-2.512 6.88-7.487 20.18-13.948 37.64-26.562 52.582-14.408 17.099-33.534 25.777-56.916 25.777-38.355 0-78.607-23.004-103.425-44.57-36.97-31.94-41.687-76.87-46.764-124.367l-.666-5.597c-2.462-16.945-5.487-58.281 19.997-75.175zm-20.049 80.823c5.128 47.652 9.948 92.684 47.02 124.88C256.155 378.996 296.459 402 335.07 402c23.536 0 42.867-8.73 57.48-25.982 12.614-14.994 19.127-32.504 26.562-52.787.82-2.26 1.692-4.519 2.512-6.88 1.538-3.903 2.974-7.754 4.41-11.605 8.307-21.926 16.203-42.62 18.152-59.822 4.358-37.843-9.384-53.094-26.356-67.831-26.459-22.902-60.865-24.596-97.272-26.496-8.614-.41-18.87-1.335-29.637-2.31-16.973-1.592-36.15-3.287-52.2-3.287-17.331 0-28.714 1.951-34.868 6.06-25.843 17.15-22.715 58.845-20.254 75.892l.564 5.546z"/>
            <path fill="#000" d="M226.434 186.054c11.038-17.13 32.76-19.387 50.361-19.387 6.155 0 12.26.307 18.517.718 28.182 1.538 54.889 2.923 75.796 17.592 22.638 15.95 34.999 45.852 32.964 79.856-1.73 29.542-12.87 71.137-38.458 91.089-8.902 6.924-20.246 10.514-33.727 10.514-27.164 0-54.685-14.361-69.997-26.568-32.659-26.157-36.321-59.802-40.798-102.32-.05-2.616-.102-5.232-.254-7.899-.356-14.976-.763-30.465 5.596-43.595m-6.054 51.545c4.426 41.082 8.19 76.522 41.154 102.834C276.846 352.69 304.519 367 331.887 367c13.634 0 25.08-3.539 34.185-10.617 25.74-20.054 36.932-61.854 38.712-91.499 2.035-34.26-10.428-64.367-33.32-80.369-21.009-14.77-47.767-16.31-76.152-17.848-6.206-.308-12.362-.667-18.517-.667-17.754 0-39.73 2.257-50.972 19.746-6.46 13.284-6.053 28.876-5.596 43.903l.153 7.95"/>
            <path fill="#000" d="M287.04 195.88a87.386 87.386 0 0 1 14.362-1.169c19.942 0 33.89 7.212 42.105 13.307 14.31 10.717 24.643 29.053 28.363 50.335 3.616 20.875-.052 41.14-9.868 54.448-8.937 12.139-21.646 18.488-36.629 18.488-11.417 0-23.92-3.81-34.975-10.87-29.448-18.792-34.408-56.632-34.666-77.507-.413-27.275 10.487-43.579 31.308-47.033m3.048 125.1C301.247 328.138 313.8 332 325.373 332c15.293 0 28.105-6.501 37.25-18.844 21.181-28.747 11.572-83.043-18.754-105.646-8.266-6.196-22.319-13.51-42.467-13.51-4.701 0-9.558.406-14.466 1.219-21.233 3.555-32.289 20.063-31.927 47.693.31 20.977 5.27 59.07 35.079 78.066M86.882 479.287c-26.877 0-58.404-12.632-76.493-30.714-7.51-7.385-13.234-16.35-18.906-25.569-12.62-20.68-24.169-43.142-34.337-66.928.153-2.14-.306-4.126-.817-5.96-.307-1.222-.563-2.444-.716-3.565 2.248-25.213 37.046-53.838 65.405-53.838 2.503 0 4.905.204 7.153.662 10.373 2.14 23.914 10.34 40.316 24.449 23.862 20.68 56.82 57.149 70.82 91.988 1.738 4.177 3.782 9.423 4.446 13.803 2.76 17.573-4.036 32.65-20.08 44.721-9.607 7.233-21.973 10.95-36.79 10.95m57.483-55.773c-.664-4.43-2.708-9.728-4.394-13.956-14.052-34.94-47.112-71.512-71.127-92.242-16.454-14.16-30.097-22.463-40.572-24.551-2.248-.51-4.7-.764-7.255-.764-28.666 0-63.82 29.084-66.018 54.551.102 1.223.409 2.496.766 3.718.358 1.885.87 3.77.665 5.807v.102l.05.05c10.17 23.889 21.82 46.402 34.44 67.03 5.672 9.373 11.446 18.337 18.957 25.825C28.12 467.266 59.852 480 86.882 480c14.972 0 27.49-3.82 37.25-11.104 16.249-12.275 23.096-27.555 20.234-45.383"/>
            <path fill="#000" d="M107.533 425.951c-3.656 14.235-15.997 22.34-33.974 22.34-15.083 0-31.893-5.826-42.913-14.792-17.317-14.133-23.158-34.193-28.947-58.964-.457-10.638 2.387-19.655 7.922-25.531 4.672-4.813 11.173-7.295 19.197-7.295 2.184 0 4.57.203 7.059.608 27.474 4.407 67.289 38.651 72.012 69.096.61 4.204.762 10.334-.356 14.538m-26.915-59.724c-14.321-13.07-31.385-22.492-44.64-24.568a39.643 39.643 0 0 0-7.16-.659c-8.227 0-14.83 2.583-19.654 7.65-5.738 5.875-8.532 15.095-8.125 25.986 5.84 24.923 11.68 45.135 29.252 59.37C41.31 443.124 58.374 449 73.559 449c18.231 0 30.877-8.358 34.685-22.846 1.067-4.306.864-10.537.254-14.843-2.183-14.437-12.391-30.85-27.88-45.084M249.366 609.04c-2.531 5.753-5.166 11.71-7.594 18.799-4.185 12.07-5.89 24.19-7.594 35.9-1.912 13.405-3.72 25.989-8.99 36.415l-.722 1.232c-5.683 8.423-10.54 15.665-17.875 21.212-9.299 7.036-21.697 10.683-35.8 10.683-21.594 0-43.292-9.04-55.122-22.958-8.266-9.861-11.572-21.571-9.35-33.95 3.77-17.462 18.442-27.682 33.889-38.468 14.258-9.912 28.878-20.184 34.457-36.465 3.616-10.683 1.86-22.702 0-35.388-2.066-13.661-4.133-27.734.827-40.317 7.025-18.028 28.31-36.21 49.439-42.321 4.08-1.181 7.749-1.695 11.571-1.695 1.654 0 3.358.051 5.218.308 13.225 10.529 17.048 36.21 18.856 57.42 3.048 37.083-3.513 52.131-11.21 69.594m-7.284-127.579l-.104-.051-.155-.051a38.6 38.6 0 0 0-5.32-.36c-3.875 0-7.595.616-11.727 1.746-21.336 6.163-42.827 24.602-49.904 42.732-5.063 12.789-2.945 26.913-.93 40.626 1.86 12.686 3.616 24.601.103 35.079-5.476 16.127-20.096 26.296-34.199 36.157-14.93 10.426-30.376 21.16-34.147 38.931-2.274 12.583 1.033 24.499 9.453 34.412C127.086 724.807 148.938 734 170.791 734c14.258 0 26.76-3.852 36.213-10.888 7.388-5.599 12.554-13.251 17.927-21.315l.878-1.335c5.32-10.529 7.129-23.164 9.04-36.671 1.653-11.659 3.358-23.729 7.543-35.747 2.48-7.088 5.114-13.045 7.645-18.695 7.698-17.514 14.31-32.716 11.16-69.953-1.86-21.365-5.632-47.302-19.115-57.934M90.506 164.664c6.026-5.145 13.022-9.933 18.69-13.907 2.553-1.783 4.75-3.311 6.536-4.636 7.967-5.858 15.32-12.175 22.418-18.186 13.736-11.768 26.758-22.873 41.311-28.222 7.2-2.598 14.758-3.973 23.133-3.973 15.268 0 30.894 4.38 46.06 8.66 8.732 2.445 17.618 4.941 26.35 6.571a191.204 191.204 0 0 0 34.213 3.108c9.192 0 18.588-.662 27.83-2.038 31.1-4.483 62.81-16.301 99.884-37.035 7.813-4.38 15.472-9.424 22.877-14.264 7.609-5.094 15.575-10.239 23.643-14.722 3.32-1.783 6.843-3.107 10.264-4.228 2.757-.968 5.566-1.885 8.272-3.21 2.452-1.12 4.852-2.445 7.099-3.667 5.361-2.904 10.315-5.655 16.442-6.826 4.903-.917 10.673-1.478 16.137-1.478 5.413 0 13.277.56 19.915 2.853 19.967 6.98 37.993 19.001 52.904 29.801 3.625 2.598 7.302 5.4 10.825 8.202 4.392 3.311 8.835 6.826 13.43 10.035 4.086 2.802 8.58 4.942 12.92 6.98 3.83 1.782 7.864 3.616 11.49 6.01 20.63 13.246 38.553 32.4 53.21 56.903 13.889 23.382 22.468 41.823 5.616 66.378-5.157 7.59-11.387 9.831-20.324 12.43-9.549 2.852-19.71 3.209-29.464 3.718-11.49.459-23.286 1.019-34.163 5.247-5.719 2.19-10.672 5.553-15.217 8.864-1.328.866-2.502 1.834-3.677 2.7-4.85 3.617-9.855 7.336-15.268 10.036-8.17 3.973-16.34 8.303-24.205 12.48-5.055 2.65-10.264 5.502-15.472 8.151-12 6.215-24.154 12.583-35.9 18.798-6.79 3.617-13.48 7.234-20.272 10.749l-.102.05c-.255.255-.613.612-.868.968-32.682 18.034-45.244 46.663-53.976 74.936-.664 2.089-1.327 4.177-1.94 6.215-5.924 19.766-11.54 38.41-31.763 48.7-9.906 5.146-27.728 10.087-53.005 14.57-35.592 6.47-69.04 8.457-107.747 10.749l-2.655.153c-9.958-6.368-15.984-15.588-22.367-25.522-3.064-4.738-6.23-9.68-9.906-14.213-7.609-9.475-17.056-18.849-27.014-28.68-10.417-10.494-21.294-21.192-30.128-32.349-23.286-29.138-39.32-65.511-54.793-100.61-2.553-5.757-5.157-11.666-7.66-17.32-3.012-6.572-6.485-13.195-9.906-19.613-5.617-10.8-10.979-20.886-14.043-30.77-3.574-11.614-.664-20.172 10.366-29.546m3.166 60.57c3.37 6.42 6.843 13.042 9.754 19.613 2.604 5.655 5.157 11.564 7.71 17.32 15.524 35.15 31.508 71.574 54.895 100.815 8.886 11.156 19.711 21.854 30.129 32.297 10.06 9.934 19.455 19.205 27.013 28.68 3.677 4.483 6.792 9.374 9.856 14.162 6.434 9.934 12.51 19.358 22.621 25.828l.102.051 2.911-.204c38.707-2.292 72.155-4.279 107.798-10.749 25.328-4.584 43.303-9.475 53.21-14.569 20.528-10.494 26.094-29.24 32.069-49.16.663-2.037 1.327-4.125 1.889-6.214 8.681-28.171 21.243-56.699 53.822-74.58l.103-.152c.255-.306.51-.56.817-.866 6.69-3.566 13.43-7.132 20.221-10.698 11.796-6.164 23.95-12.634 35.95-18.798 5.209-2.7 10.315-5.501 15.422-8.15 7.864-4.228 16.034-8.559 24.153-12.583 5.566-2.649 10.52-6.419 15.37-9.985l3.678-2.75c4.493-3.26 9.447-6.623 15.166-8.763 10.672-4.228 22.468-4.686 33.856-5.247 9.855-.407 20.017-.917 29.618-3.667 9.09-2.65 15.421-4.993 20.732-12.736 17.107-24.91 8.426-43.504-5.566-67.04-14.758-24.656-32.733-43.912-53.414-57.157-3.728-2.394-7.762-4.279-11.643-6.062-4.34-2.037-8.783-4.126-12.766-6.928-4.647-3.158-9.14-6.673-13.481-10.036-3.524-2.75-7.098-5.552-10.775-8.252-15.013-10.8-32.988-22.771-53.107-29.852-6.69-2.344-14.656-2.802-20.12-2.802-5.515 0-11.336.51-16.239 1.477-6.23 1.172-11.285 3.923-16.647 6.827a150.704 150.704 0 0 1-7.047 3.77c-2.706 1.17-5.515 2.139-8.17 3.056-3.575 1.222-7.098 2.445-10.417 4.279-8.17 4.483-16.086 9.73-23.695 14.773-7.404 4.89-15.013 9.934-22.877 14.264-36.97 20.784-68.682 32.45-99.576 36.933-9.243 1.324-18.588 2.038-27.78 2.038-11.49 0-22.979-1.02-34.111-3.108-8.681-1.63-17.566-4.075-26.247-6.52-15.218-4.229-30.895-8.61-46.265-8.61-8.477 0-16.086 1.223-23.337 3.923-14.655 5.349-27.728 16.505-41.567 28.375-7.098 6.01-14.349 12.226-22.315 18.135a348.083 348.083 0 0 1-6.587 4.585c-5.618 3.973-12.665 8.864-18.69 13.907-11.234 9.628-14.298 18.39-10.622 30.361 3.115 9.832 8.426 20.072 14.196 30.77"/>
            <path fill="#000" d="M140.738 188.357c4.229-26.326 27.157-59.949 54.62-68.265 5.656-1.633 11.464-2.5 17.986-2.5 11.923 0 23.846 2.857 34.342 5.408 4.84 1.173 9.528 2.296 13.859 3.061 14.623 2.602 30.622 3.776 50.392 3.776 10.852 0 21.858-.306 32.558-.664 10.75-.357 21.91-.714 32.966-.714 17.68 0 32.304.97 45.908 2.908 3.26.562 6.573 1.02 9.68 1.531 10.446 1.633 20.33 3.214 30.062 3.214 13.095 0 23.999-2.959 34.138-9.285 9.63-6.02 17.375-8.725 26.852-9.44 5.707-.407 11.566-.969 17.273-1.58 10.037-1.021 20.482-2.093 30.571-2.093h.459c22.826.051 78.364 8.317 94.414 32.5 5.35 8.01 5.91 17.245 1.681 27.398-5.706 13.674-23.234 22.041-36.482 25-2.547.561-5.146 1.123-7.744 1.684-18.343 3.98-34.087 6.837-48.15 8.826-3.668.51-7.388.868-10.904 1.174-9.273.867-18.037 1.684-27.106 5.663-49.984 21.888-82.797 80.204-101.599 125.357-14.215 34.184-26.495 63.725-60.021 77.602-12.738 5.255-31.081 8.419-49.22 8.419h-.05c-13.605 0-26.292-1.786-36.737-5.051-20.789-6.582-39.488-20.357-61.296-36.378l-.917-.765c-40.201-29.541-60.174-59.184-73.626-109.235l-1.273-4.949c-4.586-16.837-8.866-32.755-11.923-50.816-2.09-11.837-2.293-21.99-.713-31.786m11.973 82.755l1.325 4.95c13.451 50.203 33.476 80 73.88 109.642l.918.765c21.756 15.919 40.558 29.796 61.499 36.429 10.445 3.367 23.234 5.102 36.89 5.102h.05c18.19 0 36.686-3.163 49.475-8.47 33.78-13.979 46.162-43.57 60.378-77.959 18.75-45 51.512-103.214 101.242-125 8.967-3.928 17.68-4.744 26.902-5.612 3.516-.306 7.235-.663 10.955-1.173 14.063-1.99 29.807-4.898 48.15-8.878 2.598-.51 5.197-1.071 7.795-1.684 13.4-3.01 31.183-11.48 36.992-25.408 4.33-10.306 3.668-19.745-1.733-27.959-16.203-24.439-72.097-32.806-95.025-32.857h-.459c-10.14 0-20.534 1.071-30.622 2.092-5.707.612-11.566 1.275-17.273 1.632-9.63.664-17.477 3.419-27.208 9.49-9.987 6.276-20.738 9.286-33.73 9.286-9.682 0-19.566-1.582-29.96-3.265-3.109-.51-6.42-1.02-9.681-1.53-13.656-1.99-28.228-2.91-46.01-2.91-11.057 0-22.215.358-32.966.715-10.7.306-21.706.663-32.558.663-19.719 0-35.667-1.224-50.29-3.724-4.28-.816-8.917-1.939-13.808-3.061-10.547-2.551-22.521-5.408-34.495-5.408-6.624 0-12.534.765-18.139 2.449-27.718 8.367-50.9 42.347-55.18 68.826-1.58 9.898-1.326 20.102.713 31.99 3.159 18.112 7.439 34.03 11.973 50.867M35.858 800.708c2.808-7.085 7.503-11.654 12.659-12.22 4.236-.461 8.677-.77 13.22-.77 21.335 0 42.62 5.289 65.231 10.885 13.781 3.388 27.97 6.93 42.314 9.19 4.185.667 8.983.924 15.465.924 3.165 0 6.585-.052 9.851-.103 3.37-.103 6.84-.154 10.31-.154 17.712 0 35.424 2.002 44.662 16.84 11.434 18.225 7.759 38.864 4.186 58.784-.919 5.031-1.889 10.165-2.501 15.094-3.165 23.308-20.06 39.378-46.448 44.152-7.248 1.386-14.904 1.951-22.765 1.951-15.415 0-31.084-2.567-45.172-7.444-24.602-8.574-39.915-18.328-45.631-42.869-4.186-17.815-10.566-31.42-21.387-45.641-4.185-5.545-10.923-13.451-18.783-19.253-1.736-1.283-3.93-2.31-5.972-3.337-3.267-1.54-6.533-3.183-8.524-5.545-3.573-4.26-3.828-12.68-.715-20.484m8.882 26.697c2.194 1.026 4.236 2.002 5.87 3.234 7.809 5.699 14.495 13.554 18.732 19.15 10.719 14.067 17.099 27.62 21.233 45.384 5.87 24.798 21.285 34.655 46.09 43.28 14.14 4.877 29.86 7.547 45.377 7.547 7.912 0 15.568-.719 22.867-2.002 26.695-4.826 43.845-21.05 46.958-44.717.715-4.929 1.634-10.063 2.501-15.043 3.675-20.074 7.401-40.815-4.185-59.298-9.443-15.042-27.358-17.147-45.274-17.147-3.471 0-6.993.102-10.31.154-3.267.102-6.687.205-9.852.205-6.482 0-11.229-.36-15.363-.975-14.292-2.31-28.533-5.802-42.212-9.242C104.51 792.391 83.123 787 61.737 787c-4.543 0-9.035.308-13.271.77-5.41.668-10.31 5.39-13.271 12.681-2.654 6.828-3.471 15.967.816 21.152 2.144 2.567 5.513 4.159 8.729 5.802"/>
            <path fill="#000" d="M147.986 899.371c4.701-9.657 20.305-18.643 27.745-20.863 1.86-.568 3.72-.827 5.528-.827 4.96 0 9.714 2.014 13.33 5.784 3.772 3.822 5.89 8.934 5.736 13.789-.155 6.094-3.772 11.155-10.127 14.047-1.033.516-2.17.98-3.307 1.394-3.875 1.24-12.142 2.634-20.15 2.634-10.747 0-17.567-2.428-19.324-6.817-1.188-2.84-.982-5.939.569-9.14M166.74 916c8.06 0 16.482-1.394 20.357-2.634 1.137-.413 2.377-.878 3.41-1.394 6.562-3.047 10.334-8.315 10.489-14.718.103-5.01-2.119-10.329-5.89-14.202-5.167-5.37-12.504-7.333-19.53-5.216-7.544 2.324-23.458 11.362-28.16 21.225-1.653 3.46-1.86 6.662-.62 9.657 2.429 5.99 12.194 7.282 19.944 7.282M375.487 1169.579c-.155-1.535-.103-3.12-.052-4.809.052-1.739.103-3.478-.103-5.268-1.285-10.896-5.76-24.247-10.439-38.314-4.834-14.426-9.77-29.26-12.136-43.532-.977-5.985-1.646-12.43-2.263-18.671-1.954-20.41-3.96-41.383-18.307-50.744-6.48-4.297-15.941-6.241-29.774-6.241-7.714 0-16.045.563-24.273 1.125-3.137.205-6.376.46-9.513.665-28.283 1.688-87.113 9.003-107.683 24.452-28.026 21.126-31.368 57.394-30.906 90.183 3.292 41.23 31.626 64.3 62.79 87.575h1.13c-31.368-23.377-59.908-46.345-63.354-87.626-.411-32.533 2.983-68.648 30.803-89.57 20.313-15.397 79.04-22.66 107.271-24.4 3.137-.102 6.377-.409 9.565-.614 8.177-.613 16.507-1.176 24.17-1.176 13.73 0 23.038 1.944 29.414 6.138 14.04 9.208 16.045 30.027 18.05 50.284.566 6.24 1.183 12.737 2.212 18.722 2.365 14.323 7.353 29.209 12.136 43.685 4.73 14.016 9.205 27.265 10.387 38.11.206 1.739.155 3.53.103 5.166-.051 1.74-.103 3.376.103 4.91 1.388 10.743-.103 23.531-3.754 36.371h.72c3.6-12.89 5.091-25.73 3.703-36.421"/>
            <path fill="#000" d="M338.583 1162.703c-1.22-6.406-3.56-14.133-6.051-22.369-3.51-11.896-7.629-25.317-9.663-38.993-.56-3.863-1.068-7.524-1.577-11.133-3.203-23.335-5.746-41.738-21.359-53.94-10.628-8.286-30.462-13.268-53.143-13.268-27.564 0-53.195 6.965-68.553 18.607-25.275 19.115-26.293 52.82-22.733 77.731 5.594 26.588 24.665 40.213 48.821 57.65 11.29 8.033 22.987 16.42 34.836 27.148.305.254.61.61.916.864h1.017c-.56-.407-1.017-.915-1.526-1.322-11.9-10.777-24.054-19.522-34.785-27.249-24.054-17.234-43.125-30.91-48.618-57.193-3.61-24.758-2.644-58.158 22.478-77.12 15.206-11.541 40.736-18.404 68.147-18.404 22.528 0 42.159 4.83 52.736 13.065 15.46 12.049 17.901 30.3 21.055 53.482.559 3.61 1.017 7.371 1.627 11.133 2.085 13.726 6.103 27.25 9.662 39.095 2.492 8.235 4.832 15.963 6.001 22.317 2.594 13.625 1.628 28.52-2.593 42.196h.66c4.222-13.726 5.239-28.673 2.645-42.297"/>
            <path fill="#000" d="M280.057 1143.082c-4.075 5.401-8.049 9.774-12.276 13.375a82.837 82.837 0 0 1-11.92.874c-31.531 0-69.532-19.084-77.988-54.322-1.375-27.727 6.062-39.146 18.44-48.612 9.628-7.304 24.196-11.677 39.02-11.677 18.694 0 34.485 6.636 43.348 18.159 12.43 16.101 12.888 46.091 1.376 82.203M235.332 1042c-14.925 0-29.646 4.424-39.325 11.883-12.632 9.568-20.222 21.142-18.847 49.178 8.609 35.7 46.966 54.939 78.7 54.939 4.127 0 8.151-.309 12.073-.977h.153c4.33-3.601 8.456-8.077 12.531-13.58l.051-.155c11.614-36.318 11.054-66.514-1.477-82.77-8.914-11.78-24.96-18.518-43.859-18.518M71.703 1142.263c-5.063-24.072-10.177-48.852-26.03-68.616-8.132-10.135-18.156-14.037-30.89-12.213-26.183 3.851-57.277 27.314-74.051 39.984-18.717 19.358-25.724 42.77-21.581 71.555 1.483 10.287 4.398 21.233 7.415 32.027h.716c-3.068-10.845-6.034-21.842-7.466-32.129-4.143-28.581 2.863-51.842 21.376-70.997 16.621-12.517 47.663-35.98 73.694-39.73a38.52 38.52 0 0 1 5.779-.457c9.767 0 17.796 4.054 24.445 12.416 15.751 19.612 20.967 44.291 25.928 68.261 4.45 21.537 9.052 43.835 21.53 61.825.205.355.358.558.614.811H94c-.307-.355-.614-.76-.92-1.166-12.325-17.888-16.928-40.085-21.377-61.571"/>
            <path fill="#000" d="M237.276 1091.11c-2.137 3.923-5.604 6.186-9.404 6.186-1.14 0-2.28-.201-3.467-.604a26.671 26.671 0 0 0-2.327-2.414c-1.092-1.308-1.615-2.917-1.472-4.778.285-2.615 1.852-5.432 3.894-7.142 1.235-.503 2.375-.654 3.515-.654 3.61 0 7.076 2.314 9.308 6.187a24.63 24.63 0 0 1-.047 3.218zm.712-3.37l-.047-.101c-2.375-4.124-6.08-6.639-9.926-6.639a9.577 9.577 0 0 0-3.705.754l-.047.05c-2.327 1.862-3.942 4.83-4.227 7.646-.19 2.012.38 3.872 1.615 5.28a22.577 22.577 0 0 1 2.422 2.465l.047.05h.095a9.348 9.348 0 0 0 3.657.755c4.037 0 7.789-2.515 10.021-6.639l.048-.15c.095-1.158.047-2.415.047-3.421v-.05z"/>
            <path fill="#000" d="M907.345 710.276c-13.586 3.061-26.61 9.592-39.277 16.02-12.666 6.377-25.69 13.01-39.174 15.866-34.884 7.5-47.806-22.958-59.145-49.946-1.685-3.878-3.217-7.551-4.75-11.071-6.486-14.132-13.84-27.04-21.962-38.366-16.292-22.856-35.037-41.12-55.824-54.232-19.204-12.092-35.395-18.724-50.87-20.765-25.078-3.316-42.903 4.439-63.487 13.367-4.443 1.939-9.09 3.98-13.79 5.867-13.586 5.459-29.01 11.683-39.532 25.254-7.865 10.153-13.84 22.5-19.561 34.437l-1.328 2.704c-10.624 21.938-18.387 43.62-26.61 66.528a953.998 953.998 0 0 0-5.516 15.663c-4.954 14.183-10.01 28.876-16.242 42.804-4.648 10.612-11.747 19.846-18.591 28.774-3.83 5-7.763 10.153-11.185 15.459-8.836 13.469-22.678 25.203-36.06 36.58-4.851 4.132-9.448 8.01-13.738 11.938-2.707 2.398-5.516 4.898-8.632 7.5-13.841 11.938-29.572 25.509-33.71 42.702-.561 2.296-1.02 4.54-1.531 6.735-4.444 19.233-8.326 35.916-27.58 47.957-18.234 11.377-40.35 15.101-59.86 18.315-9.245 1.582-18.592 2.755-27.632 3.98-16.752 2.142-32.534 4.234-46.835 8.01-32.74 8.724-52.658 31.376-59.298 67.497-6.435 35.202.102 78.21 7.355 95.812 6.537 15.816 17.57 28.213 30.798 39.335h1.072c-13.432-11.122-24.618-23.672-31.257-39.641-7.202-17.448-13.79-60.304-7.355-95.404 6.64-35.815 26.354-58.365 58.838-66.936 14.3-3.827 30.083-5.867 46.784-8.061 9.04-1.123 18.387-2.347 27.632-3.877 19.561-3.317 41.728-6.99 60.115-18.47 19.51-12.243 23.34-28.977 27.835-48.364.511-2.194 1.073-4.49 1.584-6.735 4.086-16.989 19.715-30.407 33.505-42.345 3.064-2.602 5.976-5.102 8.631-7.55a445.776 445.776 0 0 1 13.74-11.888c13.381-11.428 27.273-23.162 36.11-36.733 3.472-5.306 7.405-10.408 11.185-15.408 6.844-8.979 13.994-18.264 18.693-28.876 6.282-13.928 11.339-28.672 16.293-42.906 1.787-5.153 3.626-10.459 5.465-15.663 8.223-22.856 16.037-44.488 26.66-66.477l1.227-2.704c5.72-11.938 11.696-24.182 19.612-34.335 10.368-13.367 25.69-19.54 39.175-24.948 4.75-1.99 9.346-3.98 13.79-5.918 20.48-8.928 38.204-16.683 63.18-13.367 15.373 2.092 31.461 8.622 50.614 20.714 20.634 13.06 39.379 31.223 55.62 54.13 8.07 11.224 15.374 24.132 21.81 38.213 1.583 3.469 3.166 7.142 4.8 11.02 5.517 13.01 11.697 27.754 20.839 38.008 10.521 11.683 23.29 15.765 39.123 12.398 13.433-2.908 26.56-9.592 39.277-16.02 12.615-6.326 25.69-12.959 39.123-15.867 22.166-4.948 42.443.766 59.502 6.786v-.663c-17.11-6.02-37.387-11.684-59.655-6.837"/>
            <g transform="translate(-156 -201)">
                <mask id="j" fill="#fff">
                    <use xlink:href="#i"/>
                </mask>
                <path fill="#000" d="M75.096 65.006c1.124 9.397 2.606 26.762-.664 38.458-5.366 19.254-20.952 35.802-35.976 51.89-21.258 22.574-43.18 45.966-36.486 77.223C5.65 249.43 14.694 259.9 29.922 264.65c13.185 4.136 29.384 3.575 47.678 2.604 33.318-1.838 55.956 3.626 69.037 8.632 13.287 5.107 25.449 13.483 37.355 21.655 15.842 10.93 30.866 21.297 47.831 23.595 6.797.869 12.418.664 18.805-.766 15.842-3.473 27.8-11.491 40.524-19.97 21.513-14.3 43.793-29.162 87.025-20.53 9.453 1.838 18.907 4.698 28.872 7.61 31.836 9.448 64.796 19.1 101.589-.358 33.318-16.752 54.27-47.396 74.454-77.07 9.454-13.84 19.214-28.192 29.997-40.756 13.848-16.037 32.653-38.05 55.751-30.44 9.3 3.014 18.856 4.495 28.157 5.925 14.717 2.35 29.894 4.75 43.538 13.33 9.811 6.129 17.374 14.862 24.784 23.34 3.424 3.933 7.052 8.07 10.782 11.85 8.279 8.324 14.973 18.13 21.463 27.63 5.519 8.07 11.19 16.343 17.885 23.8 8.994 7.916 16.864 14.862 26.062 23.136 11.089 10.113 21.207 22.115 30.967 33.708 18.805 22.268 36.435 43.26 59.584 50.052 16.301 4.852 33.165 4.188 54.678-1.992 11.447-3.32 26.624-9.755 37.304-14.658 21.667-9.806 46.093-23.29 65.205-35.904 14.922-9.857 26.266-23.75 33.216-40.348v-1.736c-6.797 17.16-18.345 31.46-33.523 41.471-19.162 12.615-43.538 26.098-65.205 35.904-10.629 4.852-25.703 11.339-37.15 14.658-21.463 6.13-38.173 6.742-54.372 2.043-22.893-6.741-40.523-27.681-59.226-49.898-9.76-11.594-19.878-23.647-31.07-33.76-9.198-8.324-17.016-15.321-26.01-23.187-6.643-7.354-12.264-15.68-17.834-23.698-6.49-9.5-13.235-19.305-21.463-27.681-3.832-3.78-7.358-7.865-10.782-11.85-7.41-8.528-15.024-17.262-24.937-23.442-13.747-8.631-29.026-11.032-43.794-13.33-9.3-1.532-18.856-3.013-28.003-5.975-23.558-7.763-42.619 14.402-56.467 30.592-10.834 12.667-20.594 26.967-30.048 40.808-20.236 29.673-41.085 60.317-74.199 76.865-36.588 19.408-69.446 9.704-101.18.357-9.965-2.962-19.418-5.77-28.923-7.66-43.436-8.632-65.818 6.23-87.485 20.684-12.622 8.427-24.58 16.343-40.37 19.816-6.234 1.43-11.804 1.635-18.499.715-16.76-2.196-31.785-12.512-47.575-23.493-11.855-8.12-24.17-16.599-37.508-21.706-13.133-4.954-35.822-10.521-69.293-8.683-31.274 1.737-66.84 3.78-74.966-34.117-6.592-30.899 15.229-54.188 36.333-76.711 15.126-16.088 30.763-32.687 36.129-52.095 3.168-11.134 2.146-27.17.766-38.713-2.3-18.489-7.767-37.488-13.541-57.56-.614-2.145-1.176-4.29-1.84-6.486h-.716c.665 2.247 1.33 4.443 1.942 6.69 5.775 20.072 11.243 38.97 13.44 57.458" mask="url(#j)"/>
            </g>
            <g transform="translate(-472 -201)">
                <mask id="l" fill="#fff">
                    <use xlink:href="#k"/>
                </mask>
                <path fill="#000" d="M368.157 1316.022c5.208-16.889 13.988-27.094 27.874-42.401 2.145-2.45 4.544-4.848 7.096-7.501 9.853-10.205 21.085-21.788 23.535-33.88 5.003-24.085-9.904-38.27-25.22-48.832-7.555-5.204-16.03-9.337-24.249-13.317-10.618-5.205-21.645-10.563-30.733-18.42-9.648-8.368-17.97-20.257-24.81-35.463-3.115-6.735-4.442-14.032-5.82-21.073-1.328-6.889-2.655-13.981-5.565-20.512-13.375-29.901-30.784-63.68-59.322-87.355-12.405-10.307-28.078-26.533-32.213-45.872-2.655-12.705 1.072-23.829 4.084-32.707l.51-1.633c6.79-20.104 27.007-68.17 69.38-80.262 7.606-2.194 16.948-3.776 26.75-5.51 12.355-2.093 25.169-4.338 34.46-7.808 14.55-5.357 24.913-12.807 35.94-21.226l1.583-1.174c10.516-8.062 23.637-18.114 40.739-16.787 14.805 1.225 31.754 8.93 46.354 21.277 14.805 12.45 24.71 27.554 27.21 41.433 1.634 8.98 2.35 16.226 3.064 23.165.663 6.072 1.123 11.736 2.297 18.012 5.463 31.38 20.523 56.434 44.823 74.344 19.706 14.542 45.998 24.747 78.21 30.309 41.761 7.245 77.293-6.379 90.515-12.553 21.135-9.898 43.802-33.625 63.355-55.107 19.4-21.38 29.712-34.033 32.009-67.965.715-10.92-.153-21.43-1.021-31.738-.306-3.98-.715-8.062-.919-12.144-.153-2.96-.408-5.97-.715-9.184-.97-10.307-1.838-20.972 0-31.942 3.931-22.604 17-32.605 40.076-30.36 30.069 2.756 56.36 22.706 66.979 50.77 8.423 22.298 1.634 45.617-3.778 64.496l-.868 3.061c-8.934 31.126-21.084 55.414-37.114 74.242-9.138 10.613-19.144 20.614-28.895 30.309-3.676 3.52-7.351 7.245-10.925 10.92-5.105 5.102-10.72 9.847-16.234 14.388-6.79 5.664-13.886 11.685-19.91 18.471-8.526 9.644-14.856 20.563-20.013 29.901-16.693 30.717-28.333 57.811-35.582 82.61-6.535 22.45-24.556 40.258-48.244 47.708-30.58 9.542-74.33 8.42-130.079-3.266-27.312-5.816-43.649-21.43-48.294-46.636-5.36-28.677-24.811-42.964-45.283-58.067-5.31-3.878-10.72-7.909-16.03-12.144-21.748-17.859-10.925-34.748.561-52.658 5.157-8.01 10.415-16.226 12.661-24.645 3.625-13.164-1.02-27.043-5.513-40.514-2.349-7.041-4.544-13.624-5.667-20.155-5.258-31.023-10.568-55.515-26.343-65.618-8.474-5.358-19.348-6.123-33.336-2.194-2.246.561-4.697 1.326-7.351 2.092-5.412 1.633-11.538 3.419-16.541 4.49-8.73 1.99-17.817 3.164-27.415 4.286-10.261 1.327-20.778 2.602-32.366 5.052-17.613 3.622-33.133 12.093-44.772 24.44-11.487 12.145-18.736 27.452-21.136 44.341-1.02 7.195-1.327 13.369.664 20.104 5.82 19.645 23.637 33.473 39.36 45.668 3.625 2.806 7.097 5.46 10.364 8.215l.562.408c15.213 12.603 34.153 28.217 33.438 49.699-.765 22.144 2.093 38.166 9.445 53.729 11.537 24.39 27.874 39.238 56.258 51.127 2.145.816 4.238 1.735 6.382 2.602 9.802 4.031 19.808 8.164 29.15 13.42 7.658 4.286 12.763 9.695 18.174 15.359 3.012 3.163 6.076 6.378 9.598 9.49 4.237 3.674 8.321 8.572 12.559 13.777 10.72 13.266 22.87 28.268 41.658 24.645 9.597-1.837 19.093-8.47 29.15-15.41 8.78-6.123 17.868-12.45 28.078-16.532 17.307-6.735 41.658-8.368 67.49-10.103 15.673-1.02 31.907-2.143 46.712-4.439 33.694-5.306 56.514-17.144 69.685-36.126 3.931-5.561 6.535-11.888 8.934-18.011 1.89-4.797 3.88-9.695 6.433-14.185 1.889-3.42 4.9-6.072 7.81-8.675 1.583-1.428 3.268-2.96 4.697-4.592 2.706-3.01 5.31-6.123 7.862-9.235 2.757-3.368 5.667-6.94 8.781-10.256 4.748-5.256 10.21-10.001 15.418-14.747 4.85-4.388 9.904-8.93 14.498-13.828 3.778-3.98 6.79-8.317 9.751-12.5 3.318-4.797 6.688-9.593 11.282-14.033 7.658-7.653 15.673-15.97 22.106-25.206 5.513-7.96 7.964-15.716 10.67-23.88a139.845 139.845 0 0 1 2.603-7.807c2.042-5.97 5.769-11.582 9.393-17.042 2.145-3.266 4.289-6.531 6.076-9.848 6.84-12.501 12.66-25.002 17.408-37.146 1.276-3.47 2.45-6.94 3.727-10.307.51-1.48 1.02-2.858 1.531-4.286 2.349-6.48 4.85-13.063 7.3-19.44 6.944-18.523 14.244-37.606 17.97-55.006 2.4-11.123 4.493-23.012 1.94-34.697-8.678-40.208-47.63-82.15-83.366-89.804-16.54-3.47-37.37-3.266-58.658.714-35.328 6.634-48.397 23.676-46.61 60.873.408 8.674 1.225 17.45 1.94 25.92 1.685 18.319 3.318 35.667 1.327 52.404-1.072 9.643-4.288 18.267-6.585 23.828-5.208 12.502-17.052 33.881-31.857 57.046-14.6 22.809-34.153 39.392-53.808 45.617-37.267 11.787-87.144.102-116.193-27.299-14.55-13.725-30.018-37.197-21.39-70.771.51-2.041 1.378-4.082 2.297-6.276 1.225-2.603 2.349-5.358 3.012-8.317 4.493-7.807 10.108-14.747 15.622-21.533 12.354-15.308 23.994-29.697 19.553-50.31-.817-3.828-2.502-7.859-4.289-12.196-3.675-8.878-7.402-17.96-3.012-23.42 7.658-9.542 18.124-19.492 29.253-30.054 19.195-18.216 39.105-37.146 44.72-54.903 5.718-17.757-5.972-35.463-10.975-42.963-5.36-8.113-11.538-16.481-18.021-25.462-5.055-6.837-10.262-13.98-15.214-21.073-4.084-5.92-8.066-11.583-11.997-17.247-9.087-13.011-17.664-25.308-26.495-38.422-3.472-5.255-6.995-10.868-10.415-16.277-5.718-9.082-11.64-18.369-17.562-26.277-12.967-17.349-27.567-24.492-43.546-21.227-15.877 3.215-33.082 15.46-47.989 26.635-2.042 1.48-4.033 3.01-6.024 4.541-27.823 20.87-59.424 44.494-67.745 70.772-7.045 22.35 5.973 32.758 19.757 43.78 1.48 1.173 2.96 2.398 4.441 3.623 9.139 7.551 16.184 15.358 21.8 21.94 7.708 9.032 14.498 19.85 21.084 30.31 4.645 7.347 9.036 14.44 13.426 20.154 15.111 19.798 34.715 28.523 53.604 37.044 18.583 8.266 37.727 16.737 52.226 35.718 0 .714.05 1.327.05 2.041.052 1.99.154 3.98-.408 5.817-17.204 18.675-38.595 23.267-65.397 14.389-8.168-2.755-16.234-7.093-24.81-11.787-19.145-10.358-38.953-21.022-61.722-14.083-16.387 4.899-27.772 16.481-38.799 27.656-10.874 11.072-22.054 22.45-38.34 28.166-9.495 3.214-19.348 4.184-33.132 5.255-34.817 2.654-51.613 6.633-65.907 24.747-18.838 23.982-42.066 66.282-49.213 83.784-2.808 6.99-4.544 12.195-5.36 16.021-6.076 30.513 12.66 54.342 29.609 71.793 4.135 4.133 8.628 8.01 12.967 11.685 3.93 3.367 7.964 6.786 11.69 10.409 7.556 7.602 13.631 16.583 19.502 25.308 3.012 4.44 6.024 8.98 9.24 13.318 23.382 31.125 30.427 58.321 22.923 88.12-5.514 21.38-17.97 48.423-46.61 55.77-10.568 2.705-21.901 4.082-33.898 5.41-11.078 1.326-22.667 2.652-33.95 5.204-9.852 2.245-19.195 5.153-28.18 8.062-12.61 3.878-24.556 7.653-36.859 9.184-21.595 2.909-40.739-1.633-59.27-5.868-16.337-3.827-31.908-7.398-47.223-5.357v.663c15.264-2.092 30.733 1.53 47.07 5.307 18.582 4.337 37.777 8.776 59.525 5.918 12.406-1.581 24.3-5.306 36.961-9.286 8.934-2.806 18.328-5.715 28.18-7.96 11.283-2.551 22.719-3.878 33.797-5.154 12.048-1.428 23.381-2.704 33.949-5.46 22.973-5.918 39.258-25.359 47.07-56.229 7.657-30.054.56-57.352-22.923-88.784-3.165-4.286-6.228-8.827-9.24-13.164-5.922-8.776-11.997-17.859-19.655-25.41-3.727-3.725-7.76-7.144-11.64-10.46-4.339-3.726-8.831-7.552-12.916-11.736-16.847-17.247-35.48-40.923-29.405-71.18.766-3.776 2.501-8.93 5.31-15.87 7.044-17.45 30.222-59.699 49.06-83.578 14.09-17.91 30.886-21.992 65.447-24.594 13.835-1.072 23.688-1.99 33.337-5.358 16.387-5.613 27.67-17.145 38.595-28.166 11.435-11.685 22.207-22.706 38.441-27.554 22.565-6.786 42.271 3.827 61.262 14.083 8.628 4.644 16.694 9.083 24.862 11.787 27.16 9.032 48.754 4.286 66.265-14.542l.05-.153c.562-2.041.511-4.133.358-6.123V735.306l-.102-.102c-14.55-19.135-33.847-27.758-52.48-36.075-18.839-8.368-38.391-17.144-53.35-36.789-4.339-5.715-8.78-12.756-13.426-20.155-6.586-10.46-13.426-21.226-21.135-30.36-5.616-6.582-12.66-14.389-21.901-21.992-1.48-1.275-2.961-2.398-4.442-3.622-13.58-10.92-26.444-21.227-19.501-43.066 8.27-26.073 39.718-49.596 67.439-70.414 2.042-1.531 4.084-3.062 6.075-4.593 14.805-11.174 31.958-23.318 47.682-26.533 15.672-3.163 30.12 3.827 42.934 20.972 5.973 7.909 11.793 17.246 17.51 26.278 3.42 5.408 6.892 10.97 10.415 16.226 8.78 13.164 17.408 25.461 26.496 38.524 3.93 5.612 7.913 11.378 12.048 17.246a713.8 713.8 0 0 0 15.162 21.073c6.535 8.93 12.712 17.349 18.072 25.41 4.901 7.502 16.49 24.952 10.874 42.403-5.616 17.654-25.475 36.38-44.619 54.648-11.078 10.562-21.595 20.512-29.303 30.104-4.595 5.766-.766 15.053 3.012 24.084 1.736 4.286 3.42 8.368 4.186 12.042 4.441 20.308-7.198 34.595-19.45 49.75-5.463 6.837-11.18 13.879-15.673 21.685l-.051.153c-.613 2.909-1.787 5.613-2.961 8.215-.92 2.246-1.838 4.287-2.349 6.328-6.79 26.533.868 51.892 21.697 71.435 29.1 27.553 79.283 39.289 116.806 27.502 19.705-6.378 39.462-23.063 54.012-45.871 14.856-23.268 26.853-44.647 31.958-57.2 2.348-5.612 5.565-14.286 6.688-23.981 1.94-16.839.357-34.187-1.276-52.556-.817-8.47-1.583-17.247-1.991-25.87-.92-18.828 1.99-32.044 9.036-41.381 7.249-9.44 18.99-15.46 37.012-18.828 21.237-3.98 41.964-4.236 58.403-.664 35.531 7.552 74.228 49.29 82.856 89.243 2.502 11.532.408 23.319-1.889 34.391-3.778 17.4-11.027 36.432-18.021 54.852-2.4 6.43-4.9 13.011-7.25 19.492a233.179 233.179 0 0 1-1.582 4.337c-1.123 3.367-2.45 6.837-3.727 10.307-4.696 12.093-10.465 24.543-17.306 36.993-1.787 3.317-3.982 6.582-6.075 9.848-3.574 5.46-7.403 11.123-9.496 17.195a466.045 466.045 0 0 0-2.603 7.807c-2.604 8.113-5.105 15.869-10.466 23.676-6.483 9.235-14.498 17.552-22.156 25.104-4.544 4.44-7.964 9.389-11.334 14.083-2.858 4.235-5.922 8.521-9.648 12.552-4.544 4.797-9.649 9.389-14.499 13.726-5.258 4.745-10.619 9.593-15.52 14.848-3.012 3.317-5.972 6.838-8.78 10.256-2.502 3.062-5.105 6.174-7.76 9.185-1.48 1.582-3.114 3.112-4.697 4.592-2.96 2.653-5.87 5.307-7.862 8.878-2.705 4.49-4.645 9.39-6.534 14.134-2.45 6.123-5.003 12.45-8.832 17.961-13.07 18.88-35.685 30.513-69.277 35.82-14.754 2.347-30.937 3.419-46.66 4.49-25.884 1.735-50.286 3.317-67.695 10.154-10.261 4.031-19.45 10.358-28.231 16.481-9.955 6.99-19.349 13.573-28.844 15.359-18.379 3.52-30.427-11.277-41.097-24.39-4.288-5.205-8.27-10.205-12.558-13.88-3.523-3.112-6.637-6.275-9.547-9.49-5.514-5.715-10.568-11.123-18.327-15.46-9.394-5.256-19.553-9.44-29.253-13.42-2.144-.867-4.237-1.735-6.381-2.602-28.232-11.787-44.466-26.482-55.902-50.77-7.3-15.46-10.108-31.432-9.342-53.474.664-21.737-18.43-37.504-33.745-50.21l-.561-.407c-3.268-2.756-6.688-5.46-10.313-8.215-16.438-12.757-33.439-25.972-39.207-45.362-1.89-6.582-1.634-12.705-.613-19.797 4.799-34.647 29.865-60.873 65.397-68.272 11.537-2.398 22.105-3.674 32.264-4.95 9.598-1.224 18.736-2.398 27.517-4.337 5.003-1.122 11.13-2.908 16.592-4.49 2.603-.816 5.054-1.53 7.351-2.143 13.784-3.827 24.505-3.112 32.826 2.194 15.57 9.797 20.778 34.29 26.036 65.108 1.072 6.582 3.319 13.267 5.667 20.308 4.442 13.369 9.087 27.146 5.565 40.055-2.298 8.368-7.556 16.532-12.661 24.492-11.589 18.165-22.616 35.31-.357 53.423 5.258 4.337 10.67 8.368 15.979 12.246 20.42 15.002 39.718 29.238 45.027 57.71 4.799 25.41 21.186 41.279 48.856 47.045 55.8 11.838 99.703 12.91 130.334 3.367 23.943-7.551 42.169-25.461 48.703-48.116 7.198-24.85 18.838-51.79 35.583-82.559 5.105-9.286 11.487-20.104 19.91-29.747 5.922-6.787 13.018-12.706 19.91-18.42 5.463-4.593 11.078-9.287 16.183-14.39a443.44 443.44 0 0 1 10.925-10.97c9.751-9.695 19.86-19.747 28.947-30.36 16.08-18.88 28.282-43.27 37.165-74.497l.919-3.112c5.462-18.828 12.201-42.3 3.727-64.853-10.67-28.217-37.115-48.32-67.49-51.23-23.433-2.193-36.86 7.91-40.74 31.024-1.94 10.97-.97 21.686-.05 32.044.255 3.214.51 6.225.714 9.184.307 4.133.613 8.164.92 12.144.867 10.256 1.786 20.819 1.071 31.636-2.348 33.676-12.558 46.33-31.856 67.557-19.552 21.43-42.117 45.157-63.1 54.903-13.221 6.174-48.6 19.798-90.207 12.552-71.42-12.348-112.568-47.351-122.523-104.09-1.072-6.226-1.685-11.94-2.195-17.962-.766-6.99-1.48-14.185-3.115-23.267-2.552-14.032-12.507-29.238-27.414-41.84-14.754-12.349-31.754-20.156-46.763-21.38-17.358-1.327-30.58 8.725-41.199 16.889l-1.531 1.225c-11.078 8.419-21.39 15.817-35.787 21.175-9.24 3.368-22.054 5.562-34.409 7.756-9.802 1.684-19.144 3.316-26.7 5.46-42.679 12.246-63.1 60.515-69.94 80.67l-.46 1.684c-3.114 8.98-6.84 20.104-4.084 33.064 4.136 19.543 19.91 35.922 32.418 46.229 28.385 23.523 45.895 57.2 59.117 87.15 2.86 6.43 4.238 13.472 5.514 20.309 1.378 7.092 2.757 14.44 5.87 21.277 6.842 15.257 15.265 27.248 24.965 35.667 9.087 7.909 20.216 13.266 30.886 18.42 8.22 4.03 16.694 8.164 24.198 13.369 15.06 10.46 29.865 24.44 24.914 48.167-2.451 11.89-13.53 23.37-23.382 33.524a307.224 307.224 0 0 0-7.147 7.551c-13.886 15.257-22.667 25.513-27.925 42.606-3.88 12.757-4.187 35.565-.613 51.995 2.808 13.164 6.33 25.87 9.853 38.116h.715c-3.574-12.297-7.045-25.003-9.955-38.27-3.472-16.327-3.217-38.982.612-51.637" mask="url(#l)"/>
            </g>
        </g>
    </g>
</svg>
