<svg xmlns="http://www.w3.org/2000/svg" xmlns:xlink="http://www.w3.org/1999/xlink" width="1266" height="520" viewBox="0 0 1266 520">
    <defs>
        <path id="a" d="M0 0h1266v520H0z"/>
        <path id="c" d="M.015.797H135.78V258.24H.015V.797z"/>
        <path id="e" d="M0 752.463V.835h513.79v751.628z"/>
        <path id="g" d="M.078.797h499.065v285.175H.078V.797z"/>
        <path id="i" d="M.427.798h391.89v248.164H.427V.798z"/>
        <path id="k" d="M0 368.697V.887h348.786v367.81z"/>
        <path id="m" d="M0 325V.798h176.899V325H0z"/>
        <path id="o" d="M.024.797h246.341v222.321H.024V.797z"/>
        <path id="q" d="M0 291.446V0h137.55v291.446H0z"/>
        <path id="s" d="M533.49.814V322.92H.636V.814z"/>
        <path id="u" d="M.025.8H302.57V294.87H.025V.8z"/>
        <path id="w" d="M460.471.604v467.221H.26V.604z"/>
        <path id="y" d="M.744.873h1121.72V354.83H.745V.873z"/>
        <path id="A" d="M962.03 1405.918h476.475V.84H.082v1405.078H962.03V440.224H.077v965.705h961.952z"/>
    </defs>
    <g fill="none" fill-rule="evenodd">
        <mask id="b" fill="#fff">
            <use xlink:href="#a"/>
        </mask>
        <use fill="#F8F7F7" xlink:href="#a"/>
        <g mask="url(#b)" opacity=".073">
            <g transform="translate(0 -201)">
                <mask id="d" fill="#fff">
                    <use xlink:href="#c"/>
                </mask>
                <path fill="#000" d="M12.112 209.896c3.317-17.236 6.43-33.503 11.228-45.028 8.064-19.633 24.856-36.104 42.618-53.596C76.931 100.563 88.16 89.55 97.704 77.31c11.893-15.146 19.855-28.302 26.54-43.856 3.93-9.179 7.35-19.735 10.617-29.934.306-.867.663-1.836.919-2.753h-.715c-.255.866-.561 1.733-.817 2.55-3.266 10.198-6.635 20.754-10.565 29.882-6.686 15.503-14.648 28.608-26.54 43.754-9.544 12.086-20.773 23.202-31.644 33.86-17.864 17.543-34.707 34.116-42.822 53.8-4.798 11.576-7.911 27.894-11.229 45.181C8.284 226.42 4.966 243.654.118 256.2c-.052.102-.103.204-.103.306v1.733c.204-.612.46-1.173.715-1.784 4.95-12.647 8.217-29.883 11.382-46.559" mask="url(#d)"/>
            </g>
            <g transform="translate(0 -201)">
                <mask id="f" fill="#fff">
                    <use xlink:href="#e"/>
                </mask>
                <path fill="#000" d="M66.6 424.697c23.193 9.282 52.056 20.705 63.04 44.165.766 12.8-3.73 23.714-8.532 35.24-6.692 16.115-14.355 34.372-10.064 62.982 3.321 21.726 16.092 35.648 30.907 51.815 6.13 6.63 12.363 13.514 18.34 21.368 15.632 20.501 26.309 43.655 34.585 63.646 8.327 19.838 14.866 35.546 36.68 40.748 13.077 3.162 31.366 5.354 43.881 6.63 6.948.764 13.385 1.172 19.158 1.172 9.604 0 17.88-1.07 24.878-3.11 14.815-4.386 24.266-16.422 36.118-31.67 3.576-4.54 7.203-9.18 11.34-14.076 2.81-3.417 6.488-7.089 10.422-11.067 8.174-8.21 16.603-16.727 18.953-23.56.868-2.653.613-5.05.408-7.753-.204-2.09-.408-4.386-.153-7.14l.051-.152-.102-.102c-7.918-10.455-17.573-18.819-26.87-26.979-15.837-13.871-30.857-26.876-36.476-48.346-3.014-11.322-1.89-23.408 3.27-37.025 5.568-14.33 18.441-30.14 36.372-44.368 8.072-6.426 16.654-13.107 25.747-20.247 41.635-32.384 88.89-69.153 114.687-101.18l.051-.204c.869-3.927.562-8.415-.613-13.362-3.32-13.412-13.844-29.426-28.914-43.858-14.355-13.668-30.702-23.97-43.678-27.54-1.073-.306-3.116-.867-5.313-1.274-17.369-3.927-35.351-1.224-52.72 1.376-15.02 2.244-29.272 4.386-43.116 2.601-29.885-3.926-51.392-23.918-58.953-54.772-10.013-40.544 17.574-65.992 44.291-90.675 19.668-18.206 40.051-36.974 45.415-61.81 5.058-23.357-1.583-48.55-5.977-65.227-1.737-6.731-3.882-13.463-6.181-20.144h-.664c2.35 6.732 4.444 13.515 6.232 20.348 4.342 16.575 10.984 41.666 5.926 64.87-5.313 24.632-25.594 43.349-45.262 61.453-26.768 24.785-54.508 50.387-44.444 91.287 7.612 31.16 29.425 51.304 59.566 55.231 13.895 1.836 28.148-.255 43.269-2.499 17.318-2.6 35.198-5.252 52.465-1.428 2.145.46 4.24 1.02 5.313 1.326 25.798 7.038 64.93 41.921 72.081 70.837 1.226 4.896 1.43 9.282.664 13.056-25.747 31.976-72.899 68.745-114.533 101.13-9.093 7.037-17.676 13.718-25.798 20.144-17.982 14.33-30.958 30.19-36.475 44.725-5.262 13.719-6.386 25.907-3.372 37.382 5.722 21.623 20.74 34.832 36.68 48.754 9.246 8.058 18.799 16.422 26.717 26.724-.255 2.753-.051 5.048.102 7.14.307 2.651.511 4.946-.357 7.445-2.3 6.68-10.626 15.198-18.8 23.357-3.882 3.927-7.612 7.701-10.421 11.067-4.138 4.896-7.816 9.537-11.392 14.127-11.801 15.146-21.15 27.13-35.76 31.465-11.086 3.264-25.44 3.927-43.73 1.938-12.566-1.377-30.804-3.57-43.83-6.63-21.457-5.1-27.995-20.705-36.271-40.39-8.327-20.042-18.953-43.247-34.585-63.85-5.977-7.854-12.312-14.687-18.391-21.368-14.764-16.065-27.484-29.936-30.702-51.458-4.292-28.406 3.27-46.561 9.961-62.626 4.802-11.627 9.4-22.592 8.634-35.596l-.051-.153c-11.188-23.664-40.153-35.24-63.448-44.47-6.335-2.55-12.874-5.1-20.026-6.682-16.45-3.519-32.133-5.457-46.845-6.068v.713c14.661.51 30.293 2.55 46.692 6.018 7.1 1.48 13.64 4.08 19.923 6.58" mask="url(#f)"/>
            </g>
            <g transform="translate(361 -201)">
                <mask id="h" fill="#fff">
                    <use xlink:href="#g"/>
                </mask>
                <path fill="#000" d="M43.316 20.165c1.782 6.887 3.87 13.773 5.908 20.455 4.38 14.792 8.504 28.82 10.134 41.317 1.273 8.927 1.273 18.108.051 24.535-3.412 19.333-16.399 34.38-28.927 48.969C16.121 172.12 1.25 189.463.078 213.54c1.58 21.423 25.668 24.535 51.183 27.8 4.685.663 9.574 1.224 14.26 1.989 18.69 3.01 40.232 8.977 62.233 17.24 7.74 2.96 15.125 6.58 22.357 10.1 13.7 6.836 26.686 13.314 41.863 14.997 1.935.204 3.87.306 5.907.306 10.288 0 19.251-2.907 26.89-5.61 7.792-2.755 14.464-5.714 20.931-8.621 13.853-6.121 26.941-11.936 47.108-13.722 3.616-.408 7.283-.56 10.899-.56 21.95 0 40.284 5.814 58.108 11.374 15.33 4.897 29.895 9.437 44.97 9.437 2.953 0 5.958-.153 8.81-.561 22.866-2.908 40.437-14.742 53.678-36.319 11.713-19.026 18.435-43.102 24.038-66.26 1.63-6.784 4.532-19.485 5.5-28.667 1.018-8.671-.306-14.996-4.176-19.383-6.876-8.06-20.779-8.519-36.821-9.029-7.334-.255-14.82-.51-22.357-1.479-31.626-4.08-58.109-8.212-87.494-20.506-24.14-10.048-48.33-22.647-64.372-31.37C256.6 49.903 226.095 31.642 204.553.782h-.815c21.644 31.115 52.354 49.683 79.549 64.526 15.991 8.774 40.182 21.322 64.423 31.422 29.386 12.242 55.97 16.373 87.647 20.505 7.537.97 15.074 1.224 22.408 1.53 15.89.46 29.69.918 36.464 8.723 3.616 4.285 4.94 10.457 3.973 18.924-1.07 9.13-3.922 21.78-5.552 28.565-11.153 46.06-27.144 95.794-77.155 102.069-2.852.357-5.806.51-8.709.51-14.972 0-29.436-4.54-44.816-9.386-17.825-5.56-36.21-11.324-58.261-11.324-3.616 0-7.283.153-10.95.46-20.269 1.835-33.408 7.701-47.311 13.874-6.468 2.856-13.14 5.815-20.83 8.569-7.639 2.703-16.602 5.509-26.737 5.509a53.91 53.91 0 0 1-5.805-.306c-15.024-1.632-27.96-8.06-41.66-14.844-7.231-3.57-14.666-7.243-22.407-10.15-22.103-8.315-43.645-14.283-62.387-17.292a455.295 455.295 0 0 0-14.26-1.939C26.153 237.463 2.268 234.351.74 213.49c1.172-23.72 15.992-40.96 30.251-57.64 12.63-14.589 25.617-29.79 29.131-49.224 1.222-6.529 1.12-15.761-.05-24.79-1.681-12.6-5.858-26.576-10.237-41.368-1.987-6.682-4.024-13.67-5.908-20.506-1.222-4.437-2.444-8.977-3.769-13.364C39.65 4.71 39.14 2.72 38.528.782h-.661c.56 2.04 1.171 4.03 1.68 6.02a837.876 837.876 0 0 1 3.769 13.363" mask="url(#h)"/>
            </g>
            <g transform="translate(413 -201)">
                <mask id="j" fill="#fff">
                    <use xlink:href="#i"/>
                </mask>
                <path fill="#000" d="M34.685 60.593c4.04 9.092 8.284 18.336 9.665 28.092 3.989 26.61-9.818 43.925-23.114 60.73-9.102 11.44-17.642 22.218-20.301 35.497-.716 3.32-.511 5.363-.358 8.02.102 1.378.204 2.86.204 4.954v.05c3.376 9.45 13.552 16.09 21.478 19.972 28.637 14.148 75.325 20.839 109.382 25.742a112.486 112.486 0 0 0 15.546 1.072c13.244 0 25.517-2.196 38.506-4.545 13.909-2.503 28.278-5.159 44.847-5.159 4.398 0 8.898.204 13.244.562.87.102 3.375.255 6.597.46 4.705.204 10.585.51 14.727.868 13.858 1.072 24.853 3.524 35.438 5.874 14.216 3.166 27.46 6.18 47.2 6.18 2.045 0 4.193-.051 6.34-.102 15.7-2.452 30.07-19 35.796-41.117 4.756-18.336 3.682-42.648-13.602-56.132-20.352-15.783-79.569-29.675-111.376-32.23-6.801-.561-12.426-.612-17.898-.612-6.085-.051-12.324-.102-20.506-.817-21.938-1.992-40.04-10.624-60.7-28.858-25.517-22.678-39.324-40.197-59.114-74.827-2.148-3.728-4.142-8.325-5.983-13.484h-.767c1.943 5.26 3.989 9.96 6.188 13.79 19.79 34.732 33.648 52.251 59.318 74.98 20.66 18.388 38.916 27.07 61.007 29.063 8.182.715 14.472.766 20.557.766 5.727.05 11.045.102 17.847.664 31.705 2.605 90.717 16.344 111.07 32.127 16.977 13.228 17.948 37.285 13.346 55.417-5.676 21.86-19.892 38.154-35.285 40.606-2.096.05-4.193.102-6.238.102-19.586 0-32.933-3.065-47.046-6.13-10.637-2.4-21.631-4.852-35.54-5.924-4.143-.256-10.023-.664-14.728-.92-3.222-.153-5.727-.306-6.597-.357-4.397-.46-8.846-.613-13.295-.613-16.62 0-31.04 2.605-44.95 5.159-12.988 2.35-25.21 4.546-38.403 4.546-5.268 0-10.33-.307-15.444-1.073-34.006-4.852-80.643-11.492-109.177-25.691-7.824-3.78-17.796-10.318-21.069-19.511-.05-2.043-.153-3.525-.204-4.904-.256-2.605-.41-4.597.307-7.865 2.608-13.025 11.096-23.802 20.148-35.192 13.449-16.855 27.256-34.323 23.267-61.24-1.432-9.807-5.625-19.205-9.716-28.245-1.636-3.524-3.324-7.202-4.756-10.93C25.276 36.383 19.14 18.915 15.253.783h-.665c3.99 18.234 10.126 35.855 15.342 48.931a258.963 258.963 0 0 0 4.755 10.88" mask="url(#j)"/>
            </g>
            <g transform="translate(0 -201)">
                <mask id="l" fill="#fff">
                    <use xlink:href="#k"/>
                </mask>
                <path fill="#000" d="M69.039 328.99c9.232-10.245 17.394-21.204 26.065-32.774 13.72-18.3 27.952-37.21 46.264-52.858a65.839 65.839 0 0 0 3.774-3.772c1.123-1.172 2.296-2.395 3.52-3.466 11.936-10.551 25.606-19.012 38.817-27.117 9.181-5.708 18.669-11.52 27.595-18.095 7.09-5.25 14.231-10.704 21.015-15.954 10.406-8.104 21.168-16.361 32.033-23.803 5.152-3.568 10.457-6.932 16.17-10.5 27.697-17.688 59.066-37.72 63.861-73.909 2.5-19.114-2.5-43.734-13.211-65.855h-.714c10.712 22.07 15.761 46.69 13.262 65.804-4.795 35.935-36.012 55.814-63.607 73.348-5.61 3.568-10.966 7.034-16.118 10.5-10.865 7.493-21.627 15.852-31.982 23.855-6.886 5.25-13.976 10.755-21.168 15.954-8.824 6.524-18.312 12.386-27.493 18.044-13.211 8.206-26.932 16.667-38.868 27.218-1.326 1.07-2.449 2.396-3.622 3.517-1.173 1.275-2.346 2.6-3.723 3.721-18.363 15.649-32.594 34.61-46.315 52.96-8.672 11.57-16.884 22.478-26.065 32.672-18.21 20.338-42.337 34.05-68.555 39.554v.663c26.422-5.556 50.753-19.37 69.065-39.707" mask="url(#l)"/>
            </g>
            <g transform="translate(0 -201)">
                <mask id="n" fill="#fff">
                    <use xlink:href="#m"/>
                </mask>
                <path fill="#000" d="M28.163 303.181c8.917-13 8.968-36.603 8-55.72-.714-15.447-.51-44.913 9.63-69.383 7.796-18.71 26.292-35.38 44.228-51.438 2.752-2.498 5.402-4.945 8.051-7.341 35.872-32.73 53.706-62.144 69.35-96.148 1.375-2.905 2.496-5.964 3.668-8.972 1.376-3.722 2.854-7.494 4.688-11.215.357-.714.764-1.479 1.12-2.193h-.763c-.306.663-.612 1.275-.969 1.836-1.834 3.772-3.312 7.596-4.687 11.317-1.121 3.008-2.293 6.016-3.67 8.921-15.642 34.004-33.374 63.317-69.195 95.995-2.6 2.447-5.35 4.843-8.051 7.239-17.936 16.16-36.586 32.83-44.382 51.744-10.14 24.572-10.394 54.191-9.63 69.638.917 19.066.815 42.517-7.949 55.363-6.37 9.228-16.51 15.804-27.617 21.412V325c11.312-5.761 21.655-12.337 28.178-21.82" mask="url(#n)"/>
            </g>
            <g transform="translate(77 -201)">
                <mask id="p" fill="#fff">
                    <use xlink:href="#o"/>
                </mask>
                <path fill="#000" d="M138.842 11.337C129.307 22.5 122.386 37.74 115.671 52.47c-1.077 2.243-2.05 4.435-3.076 6.626-9.792 21.05-21.941 47.199-35.27 65.09-7.229 9.734-19.122 16.768-31.733 24.159-17.891 10.55-36.347 21.407-43.575 41.439-2.614 7.237-2.666 15.138-.103 25.026 2.512 5.556 6.87 8.308 12.868 8.308 9.894 0 21.634-7.595 26.452-11.672 9.536-8.002 17.943-19.114 26.043-29.92 4.306-5.708 8.766-11.774 13.38-17.227 2.256-2.549 9.997-11.316 16.456-15.088 15.277-8.97 34.911-15.8 55.673-23.09 28.914-10.04 58.698-20.438 77.256-37.36 9.946-8.869 15.79-22.835 16.302-38.126.41-16.463-5.28-32.009-16.25-43.987-1.949-2.09-4.05-4.128-6.306-5.861h-1.077a57.802 57.802 0 0 1 6.921 6.37c10.766 11.724 16.507 27.168 15.995 43.427-.41 15.087-6.255 28.9-15.995 37.667-18.506 16.77-48.291 27.167-77 37.208-20.864 7.289-40.499 14.17-55.827 23.14-6.664 3.976-14.405 12.692-16.61 15.292-4.664 5.454-9.125 11.468-13.482 17.279-8.049 10.703-16.405 21.764-25.889 29.715-4.767 4.027-16.302 11.621-26.042 11.621-5.742 0-9.843-2.65-12.252-7.951-2.461-9.633-2.41-17.432.153-24.568 7.075-19.776 25.479-30.582 43.268-41.03 12.662-7.442 24.607-14.527 31.989-24.415 13.226-17.89 25.427-44.14 35.27-65.14 1.025-2.243 2-4.485 3.076-6.677 6.664-14.73 13.636-29.817 23.12-40.929 3.538-4.23 7.69-7.9 12.253-11.01h-1.128c-4.307 3.059-8.305 6.576-11.689 10.551" mask="url(#p)"/>
            </g>
            <path fill="#000" d="M695.033-34.338c14.877 0 28.41 4.28 35.177 11.058 3.461 3.567 5.166 7.643 5.114 12.229-4.649 13.452-22.522 15.44-32.75 15.44-15.651 0-33.369-4.434-44.216-11.058l-.104-.306c-.723-1.681-1.343-3.464-2.582-4.79.361-15.49 20.662-22.573 39.361-22.573m-37.45 27.67l.258.458.103.05C668.792.568 686.768 5 702.574 5c10.487 0 28.67-2.038 33.422-15.898v-.051c.103-4.84-1.653-9.121-5.372-12.79C723.805-30.719 710.116-35 695.033-35 675.92-35 655.258-27.713 655-11.611v.101l.155.102c1.136 1.274 1.86 3.058 2.428 4.74M184.35 227.612c-2.005-7.962-4.111-16.23-5.139-25.927-.667-6.431-1.027-15.21 0-20.62 2.826-14.035 20.037-31.082 38.276-47.567 10.892-9.8 25.175-21.385 38.533-23.477 1.695-.255 3.545-.358 5.651-.358 9.967 0 22.606 3.063 34.834 6.074 9.093 2.195 17.776 4.287 24.66 4.9 3.391.306 6.936.459 10.533.459 14.54 0 28.565-2.5 42.077-5.002 12.536-2.194 24.301-4.338 35.707-4.338 13.306 0 24.044 2.96 33.754 9.187 17.006 10.973 21.63 26.233 24.096 41.238-3.853 31.542-27.127 52.518-47.677 71.096-13.667 12.249-27.95 21.997-41.77 31.49-12.895 8.728-26.15 17.812-39.149 29.04-30.62 26.285-46.033 63.39-41.153 99.269 1.285 9.238 4.676 18.833 7.964 28.224 3.34 9.34 6.73 18.986 7.912 28.122 2.209 16.179-.72 28.836-8.529 37.665-6.987 7.911-17.776 12.25-30.517 12.25-12.64 0-25.74-4.39-35.04-11.637-6.421-5.155-11.56-11.586-15.72-17.149-18.034-24.192-32.933-57.111-45.623-100.748-1.593-24.907 2.363-41.698 6.216-57.826 2.466-10.31 4.727-20.058 5.55-31.592 1.849-23.682-1.85-38.483-5.447-52.773m-.822 84.16c-3.802 16.23-7.758 33.073-6.165 58.184 12.69 43.74 27.692 76.71 45.725 101.004 4.213 5.614 9.402 12.044 15.876 17.2 9.35 7.45 22.657 11.84 35.45 11.84 12.895 0 23.941-4.39 31.031-12.504 7.963-8.932 10.84-21.793 8.683-38.176-1.233-9.187-4.573-18.833-7.912-28.224-3.288-9.34-6.73-18.935-7.912-28.122-4.881-35.624 10.48-72.576 40.896-98.707 12.895-11.177 26.202-20.211 38.995-28.938 13.923-9.493 28.257-19.344 41.872-31.593 20.653-18.578 44.03-39.707 47.934-71.555v-.152c-2.466-15.057-7.193-30.572-24.455-41.648-9.813-6.328-20.602-9.237-34.063-9.237-11.508 0-23.274 2.143-35.81 4.389-13.512 2.399-27.486 4.848-41.974 4.848-3.545 0-7.09-.153-10.43-.357-6.884-.663-15.567-2.756-24.61-5.002-12.278-2.96-24.968-6.022-34.987-6.022-2.106 0-4.007.153-5.754.46-13.564 2.04-27.898 13.677-38.892 23.579-18.342 16.536-35.604 33.736-38.43 47.873-1.13 5.512-.77 14.393-.051 20.824.976 9.799 3.134 18.067 5.137 26.029 3.597 14.24 7.296 28.99 5.498 52.569-.925 11.483-3.186 21.231-5.652 31.439"/>
            <path fill="#000" d="M225.273 235.603c1.943-25.862 9.052-45.093 22.195-60.6 18.462-21.884 36.055-23.618 68.018-26.934 2.301-.204 4.603-.459 7.006-.663 11.711-1.275 23.218-3.367 33.446-5.203 9.104-1.632 17.798-3.316 25.418-3.979 3.426-.357 6.801-.56 9.92-.56 23.321 0 32.68 9.232 36.413 16.935 5.83 12.242 1.841 30.045-10.33 45.195-2.915 2.244-5.165 5.05-7.364 7.805-2.864 3.774-5.575 7.294-9.82 9.335l-.102.05c-13.552 12.651-28.843 23.057-45.055 34.025-23.065 15.66-46.845 31.83-68.069 56.264-3.784 4.285-7.313 9.284-10.74 14.13-9.46 13.263-18.41 25.863-32.423 26.883-11.456-6.02-13.399-18.313-15.342-30.198-.512-3.265-.972-6.326-1.637-9.182-.102-6.785-.511-14.385-.92-22.445-.87-16.017-1.841-34.28-.614-50.858m.87 73.354c.664 2.958 1.125 5.968 1.687 9.233 1.79 11.477 3.938 24.587 15.7 30.759l.103.051h.102c14.37-1.02 23.371-13.773 32.986-27.24 3.426-4.744 6.955-9.743 10.74-14.079 21.12-24.332 44.953-40.502 67.966-56.162 16.16-10.968 31.503-21.374 45.055-33.973 4.347-2.143 7.262-5.918 10.075-9.488 2.148-2.704 4.347-5.56 7.262-7.754 12.376-15.456 16.468-33.565 10.433-46.011-3.785-7.856-13.297-17.293-36.975-17.293-3.17 0-6.546.204-9.973.51-7.62.765-16.365 2.347-25.468 4.03-10.177 1.836-21.735 3.928-33.395 5.203-2.404.255-4.705.46-7.006.714-31.094 3.112-49.812 5.101-68.478 27.036-13.297 15.66-20.405 35.044-22.4 61.06-1.176 16.629-.256 34.89.614 50.908.46 8.06.87 15.711.971 22.496M676.211 151.675c6.051-4.056 17.332-6.007 34.51-6.007 15.998 0 35.226 1.745 52.147 3.286 10.768.975 21.024 1.9 29.638 2.31 36.355 1.798 70.659 3.595 96.861 26.342 16.87 14.583 30.458 29.731 26.151 67.267-1.948 17.048-9.794 37.741-18.1 59.667-1.436 3.851-2.923 7.703-4.359 11.605-.872 2.26-1.743 4.57-2.512 6.88-7.487 20.18-13.948 37.64-26.562 52.582-14.408 17.099-33.534 25.777-56.916 25.777-38.355 0-78.607-23.004-103.425-44.57-36.97-31.94-41.687-76.87-46.764-124.367l-.666-5.597c-2.462-16.945-5.487-58.281 19.997-75.175zm-20.049 80.823c5.128 47.652 9.948 92.684 47.02 124.88C728.155 378.996 768.459 402 807.07 402c23.536 0 42.867-8.73 57.48-25.982 12.614-14.994 19.127-32.504 26.562-52.787.82-2.26 1.692-4.519 2.512-6.88 1.538-3.903 2.974-7.754 4.41-11.605 8.307-21.926 16.203-42.62 18.152-59.822 4.358-37.843-9.384-53.094-26.356-67.831-26.459-22.902-60.865-24.596-97.272-26.496-8.614-.41-18.87-1.335-29.637-2.31-16.973-1.592-36.15-3.287-52.2-3.287-17.331 0-28.714 1.951-34.868 6.06-25.843 17.15-22.715 58.845-20.254 75.892l.564 5.546z"/>
            <path fill="#000" d="M698.434 186.054c11.038-17.13 32.76-19.387 50.361-19.387 6.155 0 12.26.307 18.517.718 28.182 1.538 54.889 2.923 75.796 17.592 22.638 15.95 34.999 45.852 32.964 79.856-1.73 29.542-12.87 71.137-38.458 91.089-8.902 6.924-20.246 10.514-33.727 10.514-27.164 0-54.685-14.361-69.997-26.568-32.659-26.157-36.321-59.802-40.798-102.32-.05-2.616-.102-5.232-.254-7.899-.356-14.976-.763-30.465 5.596-43.595m-6.054 51.545c4.426 41.082 8.19 76.522 41.154 102.834C748.846 352.69 776.519 367 803.887 367c13.634 0 25.08-3.539 34.185-10.617 25.74-20.054 36.932-61.854 38.712-91.499 2.035-34.26-10.428-64.367-33.32-80.369-21.009-14.77-47.767-16.31-76.152-17.848-6.206-.308-12.362-.667-18.517-.667-17.754 0-39.73 2.257-50.972 19.746-6.46 13.284-6.053 28.876-5.596 43.903l.153 7.95M298.119 203.578c13.345-14 35.673-18.906 52.15-18.906 2.977 0 5.954.155 8.726.464.718.827 1.54 1.653 2.258 2.377 1.13 1.033 2.156 2.066 2.977 3.306-1.437 8.265-8.623 14.929-14.731 19.784-15.707 12.501-37.162 22.368-56 25.777-1.13-.671-2.104-1.653-3.028-2.738-.873-.93-1.746-1.808-2.72-2.583-.36-10.59 3.028-19.836 10.368-27.481zm-11.087 27.843l.154.103c1.026.672 1.847 1.602 2.72 2.532 1.027 1.084 2.105 2.272 3.388 2.892l.051.052h.154c18.992-3.358 40.601-13.276 56.41-25.88 6.262-4.96 13.551-11.778 15.04-20.301l.051-.155-.103-.155c-.872-1.24-2.053-2.376-3.13-3.461-.822-.827-1.643-1.602-2.413-2.428l-.051-.155h-.154c-2.772-.31-5.852-.465-8.88-.465-16.58 0-39.113 5.062-52.664 19.113-7.391 7.852-10.984 17.253-10.573 28.153v.155z"/>
            <path fill="#000" d="M759.04 195.88a87.386 87.386 0 0 1 14.362-1.169c19.942 0 33.89 7.212 42.105 13.307 14.31 10.717 24.643 29.053 28.363 50.335 3.616 20.875-.052 41.14-9.868 54.448-8.937 12.139-21.646 18.488-36.629 18.488-11.417 0-23.92-3.81-34.975-10.87-29.448-18.792-34.408-56.632-34.666-77.507-.413-27.275 10.487-43.579 31.308-47.033m3.048 125.1C773.247 328.138 785.8 332 797.373 332c15.293 0 28.105-6.501 37.25-18.844 21.181-28.747 11.572-83.043-18.754-105.646-8.266-6.196-22.319-13.51-42.467-13.51-4.701 0-9.558.406-14.466 1.219-21.233 3.555-32.289 20.063-31.927 47.693.31 20.977 5.27 59.07 35.079 78.066"/>
            <g transform="translate(0 243)">
                <mask id="r" fill="#fff">
                    <use xlink:href="#q"/>
                </mask>
                <path fill="#000" d="M83.675 263.93c2.75 5.009 5.346 9.763 8.502 13.75l.153.103c4.328 5.674 11.659 15.029 21.943 13.495 10.998-1.636 25.61-14.824 22.962-34.199-2.087-15.489-12.423-26.786-32.584-35.63-1.273-.562-2.597-1.176-3.92-1.687-9.674-4.09-18.889-8.026-23.115-17.278-4.378-18.403-5.244-43.145-6.16-69.472-.764-21.725-1.578-44.32-4.48-63.541-5.6-37.062-24.54-59.145-57.786-67.58C6.288 1.124 3.233.46-.025 0v.715c3.207.41 6.262 1.074 9.062 1.84 32.991 8.282 51.727 30.263 57.277 67.018 2.902 19.221 3.665 41.765 4.48 63.49.916 26.327 1.782 51.12 6.16 69.676 4.379 9.56 13.696 13.445 23.522 17.585 1.324.614 2.648 1.125 3.92 1.738 19.907 8.69 30.09 19.835 32.126 35.12 2.597 18.914-11.557 31.796-22.35 33.38-9.877 1.534-17.056-7.667-21.333-13.086l-.153-.153c-3.105-3.988-5.753-8.69-8.451-13.7-8.604-15.643-17.514-31.797-42.97-27.554-12.016 1.943-25.558 8.384-41.29 19.528v.869c15.833-11.298 29.376-17.79 41.392-19.732 24.998-4.141 33.805 11.808 42.308 27.195" mask="url(#r)"/>
            </g>
            <path fill="#000" d="M16.425 418.82c14.651-16.22 22.459-40.244 21.495-65.95-1.014-24.739-10.19-47.386-24.638-60.545C8.973 289.213 4.462 287.122 0 286v.663c4.36 1.173 8.72 3.213 12.826 6.07 14.347 13.16 23.472 35.653 24.435 60.136 1.014 25.503-6.793 49.425-21.292 65.543-4.816 5.356-10.291 9.844-15.969 13.823V433c5.88-4.03 11.457-8.62 16.425-14.18M558.882 479.287c-26.877 0-58.404-12.632-76.493-30.714-7.51-7.385-13.234-16.35-18.906-25.569-12.62-20.68-24.169-43.142-34.337-66.928.153-2.14-.306-4.126-.817-5.96-.307-1.222-.563-2.444-.716-3.565 2.248-25.213 37.046-53.838 65.405-53.838 2.503 0 4.905.204 7.153.662 10.373 2.14 23.914 10.34 40.316 24.449 23.862 20.68 56.82 57.149 70.82 91.988 1.738 4.177 3.782 9.423 4.446 13.803 2.76 17.573-4.036 32.65-20.08 44.721-9.607 7.233-21.973 10.95-36.79 10.95m57.483-55.773c-.664-4.43-2.708-9.728-4.394-13.956-14.052-34.94-47.112-71.512-71.127-92.242-16.454-14.16-30.097-22.463-40.572-24.551-2.248-.51-4.7-.764-7.255-.764-28.666 0-63.82 29.084-66.018 54.551.102 1.223.409 2.496.766 3.718.358 1.885.87 3.77.665 5.807v.102l.05.05c10.17 23.889 21.82 46.402 34.44 67.03 5.672 9.373 11.446 18.337 18.957 25.825C500.12 467.266 531.852 480 558.882 480c14.972 0 27.49-3.82 37.25-11.104 16.249-12.275 23.096-27.555 20.234-45.383"/>
            <path fill="#000" d="M579.533 425.951c-3.656 14.235-15.997 22.34-33.974 22.34-15.083 0-31.893-5.826-42.913-14.792-17.317-14.133-23.158-34.193-28.947-58.964-.457-10.638 2.387-19.655 7.922-25.531 4.672-4.813 11.173-7.295 19.197-7.295 2.184 0 4.57.203 7.059.608 27.474 4.407 67.289 38.651 72.012 69.096.61 4.204.762 10.334-.356 14.538m-26.915-59.724c-14.321-13.07-31.385-22.492-44.64-24.568a39.643 39.643 0 0 0-7.16-.659c-8.227 0-14.83 2.583-19.654 7.65-5.738 5.875-8.532 15.095-8.125 25.986 5.84 24.923 11.68 45.135 29.252 59.37C513.31 443.124 530.374 449 545.559 449c18.231 0 30.877-8.358 34.685-22.846 1.067-4.306.864-10.537.254-14.843-2.183-14.437-12.391-30.85-27.88-45.084M721.366 609.04c-2.531 5.753-5.166 11.71-7.594 18.799-4.185 12.07-5.89 24.19-7.594 35.9-1.912 13.405-3.72 25.989-8.99 36.415l-.722 1.232c-5.683 8.423-10.54 15.665-17.875 21.212-9.299 7.036-21.697 10.683-35.8 10.683-21.594 0-43.292-9.04-55.122-22.958-8.266-9.861-11.572-21.571-9.35-33.95 3.77-17.462 18.442-27.682 33.889-38.468 14.258-9.912 28.878-20.184 34.457-36.465 3.616-10.683 1.86-22.702 0-35.388-2.066-13.661-4.133-27.734.827-40.317 7.025-18.028 28.31-36.21 49.439-42.321 4.08-1.181 7.749-1.695 11.571-1.695 1.654 0 3.358.051 5.218.308 13.225 10.529 17.048 36.21 18.856 57.42 3.048 37.083-3.513 52.131-11.21 69.594m-7.284-127.579l-.104-.051-.155-.051a38.6 38.6 0 0 0-5.32-.36c-3.875 0-7.595.616-11.727 1.746-21.336 6.163-42.827 24.602-49.904 42.732-5.063 12.789-2.945 26.913-.93 40.626 1.86 12.686 3.616 24.601.103 35.079-5.476 16.127-20.096 26.296-34.199 36.157-14.93 10.426-30.376 21.16-34.147 38.931-2.274 12.583 1.033 24.499 9.453 34.412C599.086 724.807 620.938 734 642.791 734c14.258 0 26.76-3.852 36.213-10.888 7.388-5.599 12.554-13.251 17.927-21.315l.878-1.335c5.32-10.529 7.129-23.164 9.04-36.671 1.653-11.659 3.358-23.729 7.543-35.747 2.48-7.088 5.114-13.045 7.645-18.695 7.698-17.514 14.31-32.716 11.16-69.953-1.86-21.365-5.632-47.302-19.115-57.934"/>
            <g transform="translate(905 -201)">
                <mask id="t" fill="#fff">
                    <use xlink:href="#s"/>
                </mask>
                <path fill="#000" d="M3.63 53.025c4.435 10.78 14.17 15.99 29.817 15.99 7.9 0 16.106-1.327 22.732-2.4h.204c1.427-.256 3.007-.358 4.638-.358 6.218 0 12.59 1.84 18.706 3.627 3.16.971 6.473 1.89 9.684 2.555 2.548.613 5.097 1.022 7.645 1.583 10.5 2.044 21.407 4.19 31.244 8.736 3.873 1.789 7.9 3.526 11.774 5.211 19.215 8.328 39.042 16.961 51.937 33.718.815 1.022 1.529 2.095 2.242 3.117 9.022 13.385 16.82 27.74 24.312 41.687 8.461 15.684 17.228 31.828 27.778 46.592 10.194 14.407 23.905 30.346 37.207 45.723 4.639 5.416 8.97 10.473 13.201 15.48 21.101 25.033 41.03 48.635 77.727 48.635h.051c9.43 0 19.369-1.481 30.582-4.495 31.804-8.583 87.972-30.04 107.136-76.53 5.097-12.312 8.512-29.528 12.08-47.664 2.752-13.743 5.555-27.945 9.174-39.798v-2.247c-3.976 12.312-6.932 27.383-9.786 41.891-3.619 18.188-7.034 35.302-12.029 47.563-19.113 46.336-75.077 67.589-106.728 76.172-11.162 3.014-21.101 4.495-30.429 4.495h-.05c-36.392 0-56.219-23.5-77.167-48.482a1820.455 1820.455 0 0 0-13.252-15.377c-13.252-15.429-26.962-31.42-37.258-45.724-10.449-14.713-19.164-30.908-27.625-46.54-7.543-13.947-15.342-28.354-24.363-41.739-.714-1.022-1.478-2.197-2.294-3.167-12.997-16.86-32.874-25.544-52.14-33.923-3.976-1.686-7.952-3.474-11.774-5.21-9.94-4.598-20.847-6.744-31.397-8.839-2.6-.46-5.148-.97-7.645-1.532-3.16-.665-6.422-1.635-9.633-2.555-6.168-1.788-12.539-3.678-18.91-3.678-1.63 0-3.262.153-4.74.358l-.306.05c-6.524 1.073-14.679 2.402-22.528 2.402-15.29 0-24.873-5.109-29.154-15.53-4.485-10.73-3.007-28.916-1.682-45.06.204-2.452.408-4.751.56-6.948H2.51C2.356 3.01 2.203 5.31 2 7.71.623 23.906-.804 42.195 3.63 53.025" mask="url(#t)"/>
            </g>
            <g transform="translate(1136 -201)">
                <mask id="v" fill="#fff">
                    <use xlink:href="#u"/>
                </mask>
                <path fill="#000" d="M247.069 18.065c-.921 24.541-1.688 45.81-18.057 58.388-16.983 13.089-46.652 16.872-68.29 19.53-2.148.308-4.297.614-6.343.87-3.683.511-7.622.767-11.612.767-22.098 0-45.628-7.465-68.391-14.571-20.36-6.391-41.435-12.987-61.077-14.163h-.052l-.05.051C1.942 72.158-.872 84.122.254 94.246c3.171 39.624 17.136 71.988 48.237 111.918 6.24 7.976 12.123 16.106 17.801 23.98 9.668 13.293 18.774 25.921 29.413 37.834 15.96 17.895 35.91 26.893 59.44 26.893 27.265 0 57.957-12.68 84.198-34.92 27.01-29.245 31.05-68 32.892-105.17.153-2.914.205-5.88.307-9.152.41-14.93.87-33.54 8.184-42.743 6.446-8.078 14.067-14.316 21.843-19.837v-.767c-7.98 5.573-15.755 11.861-22.405 20.246-7.418 9.306-7.878 28.018-8.338 43.05-.103 3.272-.154 6.289-.256 9.152-1.842 37.016-5.883 75.72-32.738 104.812-26.088 22.036-56.575 34.716-83.687 34.716-23.325 0-43.224-8.999-58.928-26.689-10.589-11.964-19.745-24.49-29.362-37.835-5.678-7.873-11.56-15.951-17.801-23.979C18.005 165.978 4.09 133.615.92 94.143-.155 84.378 2.505 72.67 13.35 69.602c19.54 1.125 40.513 7.67 60.82 14.06 22.815 7.158 46.397 14.572 68.597 14.572 3.99 0 7.98-.307 11.714-.716 1.995-.307 4.144-.563 6.292-.818 21.74-2.761 51.563-6.545 68.597-19.736 16.624-12.782 17.443-34.102 18.415-58.899.204-5.164.358-10.481.665-15.85.102-.46.102-.92.153-1.431h-.665c0 .511-.051.92-.051 1.38-.41 5.42-.614 10.686-.818 15.901" mask="url(#v)"/>
            </g>
            <path fill="#000" d="M1353.498 38.932c-13.1 12.804-31.758 20.405-49.906 20.405-11.163 0-21.563-2.908-30.127-8.57-18.25-11.886-25.692-34.893-33.033-57.236-3.313-10.254-6.474-19.946-10.603-28.67-1.223-8.365 3.518-13.262 15.038-15.252 12.745-2.296 26.253-6.172 39.252-9.998 11.42-3.418 22.328-6.581 32.37-8.57 4.64-.919 9.176-1.378 13.56-1.378 14.732 0 27.731 5.152 33.9 13.416 20.441 27.394 11.01 74.887-10.45 95.853M1330.048-71c-4.435 0-9.074.46-13.661 1.377-10.145 1.99-21.003 5.204-32.524 8.57-12.897 3.775-26.354 7.754-39.099 9.948-11.775 2.142-16.924 7.397-15.547 16.12v.05c4.129 8.724 7.29 18.416 10.654 28.67 7.29 22.445 14.885 45.605 33.236 57.644 8.666 5.611 19.219 8.621 30.484 8.621 18.403 0 37.162-7.652 50.416-20.558 10.858-10.662 18.76-28.006 21.206-46.37 2.6-19.385-1.325-37.8-10.705-50.452-6.27-8.417-19.524-13.62-34.46-13.62M562.506 164.664c6.026-5.145 13.022-9.933 18.69-13.907 2.553-1.783 4.75-3.311 6.536-4.636 7.967-5.858 15.32-12.175 22.418-18.186 13.736-11.768 26.758-22.873 41.311-28.222 7.2-2.598 14.758-3.973 23.133-3.973 15.268 0 30.894 4.38 46.06 8.66 8.732 2.445 17.618 4.941 26.35 6.571a191.204 191.204 0 0 0 34.213 3.108c9.192 0 18.588-.662 27.83-2.038 31.1-4.483 62.81-16.301 99.884-37.035 7.813-4.38 15.472-9.424 22.877-14.264 7.609-5.094 15.575-10.239 23.643-14.722 3.32-1.783 6.843-3.107 10.264-4.228 2.757-.968 5.566-1.885 8.272-3.21 2.452-1.12 4.852-2.445 7.099-3.667 5.361-2.904 10.315-5.655 16.442-6.826 4.903-.917 10.673-1.478 16.137-1.478 5.413 0 13.277.56 19.915 2.853 19.967 6.98 37.993 19.001 52.904 29.801 3.625 2.598 7.302 5.4 10.825 8.202 4.392 3.311 8.835 6.826 13.43 10.035 4.086 2.802 8.58 4.942 12.92 6.98 3.83 1.782 7.864 3.616 11.49 6.01 20.63 13.246 38.553 32.4 53.21 56.903 13.889 23.382 22.468 41.823 5.616 66.378-5.157 7.59-11.387 9.831-20.324 12.43-9.549 2.852-19.71 3.209-29.464 3.718-11.49.459-23.286 1.019-34.163 5.247-5.719 2.19-10.672 5.553-15.217 8.864-1.328.866-2.502 1.834-3.677 2.7-4.85 3.617-9.855 7.336-15.268 10.036-8.17 3.973-16.34 8.303-24.205 12.48-5.055 2.65-10.264 5.502-15.472 8.151-12 6.215-24.154 12.583-35.9 18.798-6.79 3.617-13.48 7.234-20.272 10.749l-.102.05c-.255.255-.613.612-.868.968-32.682 18.034-45.244 46.663-53.976 74.936-.664 2.089-1.327 4.177-1.94 6.215-5.924 19.766-11.54 38.41-31.763 48.7-9.906 5.146-27.728 10.087-53.005 14.57-35.592 6.47-69.04 8.457-107.747 10.749l-2.655.153c-9.958-6.368-15.984-15.588-22.367-25.522-3.064-4.738-6.23-9.68-9.906-14.213-7.609-9.475-17.056-18.849-27.014-28.68-10.417-10.494-21.294-21.192-30.128-32.349-23.286-29.138-39.32-65.511-54.793-100.61-2.553-5.757-5.157-11.666-7.66-17.32-3.012-6.572-6.485-13.195-9.906-19.613-5.617-10.8-10.979-20.886-14.043-30.77-3.574-11.614-.664-20.172 10.366-29.546m3.166 60.57c3.37 6.42 6.843 13.042 9.754 19.613 2.604 5.655 5.157 11.564 7.71 17.32 15.524 35.15 31.508 71.574 54.895 100.815 8.886 11.156 19.711 21.854 30.129 32.297 10.06 9.934 19.455 19.205 27.013 28.68 3.677 4.483 6.792 9.374 9.856 14.162 6.434 9.934 12.51 19.358 22.621 25.828l.102.051 2.911-.204c38.707-2.292 72.155-4.279 107.798-10.749 25.328-4.584 43.303-9.475 53.21-14.569 20.528-10.494 26.094-29.24 32.069-49.16.663-2.037 1.327-4.125 1.889-6.214 8.681-28.171 21.243-56.699 53.822-74.58l.103-.152c.255-.306.51-.56.817-.866 6.69-3.566 13.43-7.132 20.221-10.698 11.796-6.164 23.95-12.634 35.95-18.798 5.209-2.7 10.315-5.501 15.422-8.15 7.864-4.228 16.034-8.559 24.153-12.583 5.566-2.649 10.52-6.419 15.37-9.985l3.678-2.75c4.493-3.26 9.447-6.623 15.166-8.763 10.672-4.228 22.468-4.686 33.856-5.247 9.855-.407 20.017-.917 29.618-3.667 9.09-2.65 15.421-4.993 20.732-12.736 17.107-24.91 8.426-43.504-5.566-67.04-14.758-24.656-32.733-43.912-53.414-57.157-3.728-2.394-7.762-4.279-11.643-6.062-4.34-2.037-8.783-4.126-12.766-6.928-4.647-3.158-9.14-6.673-13.481-10.036-3.524-2.75-7.098-5.552-10.775-8.252-15.013-10.8-32.988-22.771-53.107-29.852-6.69-2.344-14.656-2.802-20.12-2.802-5.515 0-11.336.51-16.239 1.477-6.23 1.172-11.285 3.923-16.647 6.827a150.704 150.704 0 0 1-7.047 3.77c-2.706 1.17-5.515 2.139-8.17 3.056-3.575 1.222-7.098 2.445-10.417 4.279-8.17 4.483-16.086 9.73-23.695 14.773-7.404 4.89-15.013 9.934-22.877 14.264-36.97 20.784-68.682 32.45-99.576 36.933-9.243 1.324-18.588 2.038-27.78 2.038-11.49 0-22.979-1.02-34.111-3.108-8.681-1.63-17.566-4.075-26.247-6.52-15.218-4.229-30.895-8.61-46.265-8.61-8.477 0-16.086 1.223-23.337 3.923-14.655 5.349-27.728 16.505-41.567 28.375-7.098 6.01-14.349 12.226-22.315 18.135a348.083 348.083 0 0 1-6.587 4.585c-5.618 3.973-12.665 8.864-18.69 13.907-11.234 9.628-14.298 18.39-10.622 30.361 3.115 9.832 8.426 20.072 14.196 30.77"/>
            <path fill="#000" d="M612.738 188.357c4.229-26.326 27.157-59.949 54.62-68.265 5.656-1.633 11.464-2.5 17.986-2.5 11.923 0 23.846 2.857 34.342 5.408 4.84 1.173 9.528 2.296 13.859 3.061 14.623 2.602 30.622 3.776 50.392 3.776 10.852 0 21.858-.306 32.558-.664 10.75-.357 21.91-.714 32.966-.714 17.68 0 32.304.97 45.908 2.908 3.26.562 6.573 1.02 9.68 1.531 10.446 1.633 20.33 3.214 30.062 3.214 13.095 0 23.999-2.959 34.138-9.285 9.63-6.02 17.375-8.725 26.852-9.44 5.707-.407 11.566-.969 17.273-1.58 10.037-1.021 20.482-2.093 30.571-2.093h.459c22.826.051 78.364 8.317 94.414 32.5 5.35 8.01 5.91 17.245 1.681 27.398-5.706 13.674-23.234 22.041-36.482 25-2.547.561-5.146 1.123-7.744 1.684-18.343 3.98-34.087 6.837-48.15 8.826-3.668.51-7.388.868-10.904 1.174-9.273.867-18.037 1.684-27.106 5.663-49.984 21.888-82.797 80.204-101.599 125.357-14.215 34.184-26.495 63.725-60.021 77.602-12.738 5.255-31.081 8.419-49.22 8.419h-.05c-13.605 0-26.292-1.786-36.737-5.051-20.789-6.582-39.488-20.357-61.296-36.378l-.917-.765c-40.201-29.541-60.174-59.184-73.626-109.235l-1.273-4.949c-4.586-16.837-8.866-32.755-11.923-50.816-2.09-11.837-2.293-21.99-.713-31.786m11.973 82.755l1.325 4.95c13.451 50.203 33.476 80 73.88 109.642l.918.765c21.756 15.919 40.558 29.796 61.499 36.429 10.445 3.367 23.234 5.102 36.89 5.102h.05c18.19 0 36.686-3.163 49.475-8.47 33.78-13.979 46.162-43.57 60.378-77.959 18.75-45 51.512-103.214 101.242-125 8.967-3.928 17.68-4.744 26.902-5.612 3.516-.306 7.235-.663 10.955-1.173 14.063-1.99 29.807-4.898 48.15-8.878 2.598-.51 5.197-1.071 7.795-1.684 13.4-3.01 31.183-11.48 36.992-25.408 4.33-10.306 3.668-19.745-1.733-27.959-16.203-24.439-72.097-32.806-95.025-32.857h-.459c-10.14 0-20.534 1.071-30.622 2.092-5.707.612-11.566 1.275-17.273 1.632-9.63.664-17.477 3.419-27.208 9.49-9.987 6.276-20.738 9.286-33.73 9.286-9.682 0-19.566-1.582-29.96-3.265-3.109-.51-6.42-1.02-9.681-1.53-13.656-1.99-28.228-2.91-46.01-2.91-11.057 0-22.215.358-32.966.715-10.7.306-21.706.663-32.558.663-19.719 0-35.667-1.224-50.29-3.724-4.28-.816-8.917-1.939-13.808-3.061-10.547-2.551-22.521-5.408-34.495-5.408-6.624 0-12.534.765-18.139 2.449-27.718 8.367-50.9 42.347-55.18 68.826-1.58 9.898-1.326 20.102.713 31.99 3.159 18.112 7.439 34.03 11.973 50.867M1378.06 258.237l-.103.153c-1.532 2.8-3.065 5.14-4.393 7.278-4.7 7.483-7.458 12.064-8.94 24.483-1.072 9.824-.663 19.953-.306 29.726.46 11.503.97 23.465-1.021 35.222-6.897 41.687-40.15 84.596-77.44 99.866-3.576 1.476-8.531 3.36-11.903 3.97-2.707.458-5.261.763-7.662.763-21.863 0-26.92-21.48-31.773-42.195-1.124-4.632-2.248-9.417-3.525-13.845-5.006-17.052-11.698-28.3-21.76-36.597-10.115-8.246-23.754-13.641-44.136-17.408-8.275-1.476-15.886-2.24-23.293-2.24-14.2 0-27.737 2.647-45.36 8.806-.767.255-1.482.51-2.248.764-9.757 3.36-18.083 6.26-23.958 15.32-11.289 17.612-20.484 46.065-16.142 66.17 4.24 19.75 18.594 23.72 33.765 27.792 2.963.814 5.926 1.628 8.889 2.545 4.648 1.527 8.326 3.054 11.595 4.886 22.936 12.827 48.222 24.483 79.74 36.597 26.766 10.282 39.741 32.983 52.256 54.717 12.209 21.175 24.775 43.112 49.856 53.547 3.831 1.578 8.122 2.443 12.822 2.443 5.568 0 11.698-1.17 18.287-3.461 17.879-6.21 33.919-25.348 45.872-41.33 18.747-25.044 42.04-56.194 69.624-76.249.767-.509 1.482-1.018 2.197-1.476v-.865c-.817.61-1.686 1.221-2.554 1.832-27.635 20.055-50.98 51.256-69.83 76.35-11.85 15.932-27.839 34.968-45.513 41.127-6.539 2.24-12.617 3.36-18.083 3.36-4.598 0-8.786-.764-12.566-2.342-24.826-10.384-37.392-32.118-49.55-53.241-12.566-21.938-25.694-44.588-52.614-55.023-31.467-12.114-56.752-23.72-79.637-36.546-3.27-1.832-6.998-3.461-11.749-4.937-2.912-.967-5.926-1.73-8.837-2.545-15.018-4.123-29.168-7.991-33.306-27.333-4.29-19.953 4.853-48.152 16.04-65.661 5.721-8.857 13.997-11.758 23.6-15.016.766-.305 1.532-.56 2.299-.814 17.52-6.21 31.006-8.755 45.105-8.755 7.356 0 14.916.713 23.09 2.24 39.383 7.177 55.883 20.716 65.435 53.546 1.328 4.378 2.452 9.162 3.525 13.743 4.904 21.022 10.063 42.705 32.437 42.705 2.452 0 5.057-.203 7.764-.712 3.423-.662 8.48-2.545 12.056-4.021 18.491-7.534 36.472-21.99 50.775-40.618 14.15-18.324 23.702-39.55 27.125-59.757 1.89-11.809 1.43-23.82.97-35.324-.408-9.773-.766-19.902.358-29.675 1.328-12.267 4.189-16.797 8.837-24.28 1.226-2.035 2.758-4.427 4.393-7.176 13.128-10.638 28.708-16.135 46.28-16.135 4.649 0 9.348.407 14.15 1.221v-.712a89.787 89.787 0 0 0-14.15-1.12c-17.776 0-33.458 5.446-46.79 16.237"/>
            <path fill="#000" d="M1175.97 431.86c-.972 5.295-3.837 9.623-8.288 12.525-3.02 1.986-6.55 3.004-10.54 3.004-16.169 0-34.64-16.191-38.477-29.43.154-13.34 12.536-19.246 24.764-19.246 11.257 0 21.694 4.531 27.22 12.016 4.452 6.008 6.55 14.257 5.321 21.13M1143.43 398c-12.588 0-25.328 6.16-25.43 19.96v.101c3.889 13.493 22.769 29.939 39.141 29.939 4.094 0 7.726-1.018 10.95-3.004 4.605-3.055 7.521-7.536 8.544-12.984 1.28-7.077-.87-15.53-5.474-21.69-5.577-7.536-16.27-12.322-27.732-12.322"/>
            <g transform="translate(978 210)">
                <mask id="x" fill="#fff">
                    <use xlink:href="#w"/>
                </mask>
                <path fill="#000" d="M376.639 20.606c-18.177 12.61-29.104 30.53-32.422 53.096-1.277 8.833-.307 18.482.714 27.774 1.073 9.75 2.145 19.86.613 29.356-1.736 10.925-7.608 20.676-15.011 25.016-5.26 3.114-11.029 3.472-17.105 1.174-19.657-22.82-35.69-37.984-59.891-47.888-6.944-2.757-13.94-5.208-22.62-7.914-4.288-1.327-8.526-2.757-12.713-4.084-26.244-8.628-53.458-17.512-97.726-13.836-21.24 1.736-37.221 5.667-51.211 19.758-9.19 9.343-16.186 20.575-22.823 31.398-4.85 7.812-9.855 15.93-15.573 23.179-2.961 3.676-6.382 7.3-9.752 10.823-4.953 5.259-10.11 10.62-13.888 16.644-7.863 12.406-8.22 33.083-5.26 47.02 3.881 18.176 15.523 33.798 27.164 48.247 2.86 3.574 5.616 7.505 8.578 11.64 7.812 11.18 15.879 22.72 27.112 28.692 12.305 6.484 26.652 6.535 40.336 5.565 4.697-.306 9.497-1.633 14.194-2.808 6.842-1.838 13.888-3.829 20.73-2.552 24.304 4.34 51.824 21.238 69.44 35.635 9.547 7.76 18.227 16.542 25.733 26.14 5.923 7.454 11.539 15.01 17.564 23.076 10.263 13.734 20.883 27.978 32.984 42.018 11.181 13.12 25.835 25.476 48.76 17.562 13.02-4.543 24.202-12.304 34.618-19.962 15.42-11.334 29.41-27.263 42.89-42.732 12.355-14.142 24.048-27.518 35.587-35.687 3.114-2.246 6.842-4.34 12.816-5.718v-.663c-6.127 1.378-10.059 3.573-13.225 5.82-11.64 8.27-23.282 21.596-35.69 35.89-13.428 15.317-27.367 31.297-42.735 42.58-10.723 7.913-21.547 15.367-34.465 19.809-22.619 7.862-37.017-4.39-48.097-17.308-11.999-14.04-22.67-28.284-32.881-42.017-6.025-8.067-11.744-15.674-17.616-23.076-7.505-9.599-16.185-18.43-25.886-26.293-17.666-14.397-45.289-31.398-69.695-35.738-6.995-1.225-14.092.664-21.036 2.553-4.646 1.174-9.395 2.501-14.041 2.808-13.582.919-27.827.919-40.03-5.514-11.029-5.871-19.096-17.359-26.857-28.386-2.91-4.187-5.667-8.169-8.577-11.794-11.54-14.295-23.232-29.866-27.01-47.94-2.91-13.835-2.553-34.257 5.157-46.51 3.727-5.973 8.833-11.334 13.836-16.592 3.32-3.472 6.842-7.097 9.701-10.824 5.872-7.3 10.825-15.367 15.624-23.23 6.74-10.874 13.633-22.003 22.823-31.244 13.837-13.938 29.665-17.92 50.753-19.656 44.165-3.574 71.328 5.259 97.521 13.887 4.136 1.327 8.425 2.706 12.663 4.084 8.68 2.706 15.675 5.105 22.516 7.913 24.151 9.752 40.183 24.915 59.688 47.736l.05.05.103.052c6.382 2.348 12.356 1.94 17.82-1.174 7.556-4.442 13.58-14.449 15.317-25.527 1.532-9.547.408-19.707-.613-29.51-.97-9.291-1.94-18.89-.715-27.62 3.268-22.412 14.092-40.128 32.116-52.636C397.573 6.82 426.37.184 460.476 1.46V.746c-34.26-1.225-63.159 5.463-83.837 19.86" mask="url(#x)"/>
            </g>
            <g transform="translate(316 -201)">
                <mask id="z" fill="#fff">
                    <use xlink:href="#y"/>
                </mask>
                <path fill="#000" d="M75.096 65.006c1.124 9.397 2.606 26.762-.664 38.458-5.366 19.254-20.952 35.802-35.976 51.89-21.258 22.574-43.18 45.966-36.486 77.223C5.65 249.43 14.694 259.9 29.922 264.65c13.185 4.136 29.384 3.575 47.678 2.604 33.318-1.838 55.956 3.626 69.037 8.632 13.287 5.107 25.449 13.483 37.355 21.655 15.842 10.93 30.866 21.297 47.831 23.595 6.797.869 12.418.664 18.805-.766 15.842-3.473 27.8-11.491 40.524-19.97 21.513-14.3 43.793-29.162 87.025-20.53 9.453 1.838 18.907 4.698 28.872 7.61 31.836 9.448 64.796 19.1 101.589-.358 33.318-16.752 54.27-47.396 74.454-77.07 9.454-13.84 19.214-28.192 29.997-40.756 13.848-16.037 32.653-38.05 55.751-30.44 9.3 3.014 18.856 4.495 28.157 5.925 14.717 2.35 29.894 4.75 43.538 13.33 9.811 6.129 17.374 14.862 24.784 23.34 3.424 3.933 7.052 8.07 10.782 11.85 8.279 8.324 14.973 18.13 21.463 27.63 5.519 8.07 11.19 16.343 17.885 23.8 8.994 7.916 16.864 14.862 26.062 23.136 11.089 10.113 21.207 22.115 30.967 33.708 18.805 22.268 36.435 43.26 59.584 50.052 16.301 4.852 33.165 4.188 54.678-1.992 11.447-3.32 26.624-9.755 37.304-14.658 21.667-9.806 46.093-23.29 65.205-35.904 14.922-9.857 26.266-23.75 33.216-40.348v-1.736c-6.797 17.16-18.345 31.46-33.523 41.471-19.162 12.615-43.538 26.098-65.205 35.904-10.629 4.852-25.703 11.339-37.15 14.658-21.463 6.13-38.173 6.742-54.372 2.043-22.893-6.741-40.523-27.681-59.226-49.898-9.76-11.594-19.878-23.647-31.07-33.76-9.198-8.324-17.016-15.321-26.01-23.187-6.643-7.354-12.264-15.68-17.834-23.698-6.49-9.5-13.235-19.305-21.463-27.681-3.832-3.78-7.358-7.865-10.782-11.85-7.41-8.528-15.024-17.262-24.937-23.442-13.747-8.631-29.026-11.032-43.794-13.33-9.3-1.532-18.856-3.013-28.003-5.975-23.558-7.763-42.619 14.402-56.467 30.592-10.834 12.667-20.594 26.967-30.048 40.808-20.236 29.673-41.085 60.317-74.199 76.865-36.588 19.408-69.446 9.704-101.18.357-9.965-2.962-19.418-5.77-28.923-7.66-43.436-8.632-65.818 6.23-87.485 20.684-12.622 8.427-24.58 16.343-40.37 19.816-6.234 1.43-11.804 1.635-18.499.715-16.76-2.196-31.785-12.512-47.575-23.493-11.855-8.12-24.17-16.599-37.508-21.706-13.133-4.954-35.822-10.521-69.293-8.683-31.274 1.737-66.84 3.78-74.966-34.117-6.592-30.899 15.229-54.188 36.333-76.711 15.126-16.088 30.763-32.687 36.129-52.095 3.168-11.134 2.146-27.17.766-38.713-2.3-18.489-7.767-37.488-13.541-57.56-.614-2.145-1.176-4.29-1.84-6.486h-.716c.665 2.247 1.33 4.443 1.942 6.69 5.775 20.072 11.243 38.97 13.44 57.458" mask="url(#z)"/>
            </g>
            <g transform="translate(0 -201)">
                <mask id="B" fill="#fff">
                    <use xlink:href="#A"/>
                </mask>
                <path fill="#000" d="M368.157 1316.022c5.208-16.889 13.988-27.094 27.874-42.401 2.145-2.45 4.544-4.848 7.096-7.501 9.853-10.205 21.085-21.788 23.535-33.88 5.003-24.085-9.904-38.27-25.22-48.832-7.555-5.204-16.03-9.337-24.249-13.317-10.618-5.205-21.645-10.563-30.733-18.42-9.648-8.368-17.97-20.257-24.81-35.463-3.115-6.735-4.442-14.032-5.82-21.073-1.328-6.889-2.655-13.981-5.565-20.512-13.375-29.901-30.784-63.68-59.322-87.355-12.405-10.307-28.078-26.533-32.213-45.872-2.655-12.705 1.072-23.829 4.084-32.707l.51-1.633c6.79-20.104 27.007-68.17 69.38-80.262 7.606-2.194 16.948-3.776 26.75-5.51 12.355-2.093 25.169-4.338 34.46-7.808 14.55-5.357 24.913-12.807 35.94-21.226l1.583-1.174c10.516-8.062 23.637-18.114 40.739-16.787 14.805 1.225 31.754 8.93 46.354 21.277 14.805 12.45 24.71 27.554 27.21 41.433 1.634 8.98 2.35 16.226 3.064 23.165.663 6.072 1.123 11.736 2.297 18.012 5.463 31.38 20.523 56.434 44.823 74.344 19.706 14.542 45.998 24.747 78.21 30.309 41.761 7.245 77.293-6.379 90.515-12.553 21.135-9.898 43.802-33.625 63.355-55.107 19.4-21.38 29.712-34.033 32.009-67.965.715-10.92-.153-21.43-1.021-31.738-.306-3.98-.715-8.062-.919-12.144-.153-2.96-.408-5.97-.715-9.184-.97-10.307-1.838-20.972 0-31.942 3.931-22.604 17-32.605 40.076-30.36 30.069 2.756 56.36 22.706 66.979 50.77 8.423 22.298 1.634 45.617-3.778 64.496l-.868 3.061c-8.934 31.126-21.084 55.414-37.114 74.242-9.138 10.613-19.144 20.614-28.895 30.309-3.676 3.52-7.351 7.245-10.925 10.92-5.105 5.102-10.72 9.847-16.234 14.388-6.79 5.664-13.886 11.685-19.91 18.471-8.526 9.644-14.856 20.563-20.013 29.901-16.693 30.717-28.333 57.811-35.582 82.61-6.535 22.45-24.556 40.258-48.244 47.708-30.58 9.542-74.33 8.42-130.079-3.266-27.312-5.816-43.649-21.43-48.294-46.636-5.36-28.677-24.811-42.964-45.283-58.067-5.31-3.878-10.72-7.909-16.03-12.144-21.748-17.859-10.925-34.748.561-52.658 5.157-8.01 10.415-16.226 12.661-24.645 3.625-13.164-1.02-27.043-5.513-40.514-2.349-7.041-4.544-13.624-5.667-20.155-5.258-31.023-10.568-55.515-26.343-65.618-8.474-5.358-19.348-6.123-33.336-2.194-2.246.561-4.697 1.326-7.351 2.092-5.412 1.633-11.538 3.419-16.541 4.49-8.73 1.99-17.817 3.164-27.415 4.286-10.261 1.327-20.778 2.602-32.366 5.052-17.613 3.622-33.133 12.093-44.772 24.44-11.487 12.145-18.736 27.452-21.136 44.341-1.02 7.195-1.327 13.369.664 20.104 5.82 19.645 23.637 33.473 39.36 45.668 3.625 2.806 7.097 5.46 10.364 8.215l.562.408c15.213 12.603 34.153 28.217 33.438 49.699-.765 22.144 2.093 38.166 9.445 53.729 11.537 24.39 27.874 39.238 56.258 51.127 2.145.816 4.238 1.735 6.382 2.602 9.802 4.031 19.808 8.164 29.15 13.42 7.658 4.286 12.763 9.695 18.174 15.359 3.012 3.163 6.076 6.378 9.598 9.49 4.237 3.674 8.321 8.572 12.559 13.777 10.72 13.266 22.87 28.268 41.658 24.645 9.597-1.837 19.093-8.47 29.15-15.41 8.78-6.123 17.868-12.45 28.078-16.532 17.307-6.735 41.658-8.368 67.49-10.103 15.673-1.02 31.907-2.143 46.712-4.439 33.694-5.306 56.514-17.144 69.685-36.126 3.931-5.561 6.535-11.888 8.934-18.011 1.89-4.797 3.88-9.695 6.433-14.185 1.889-3.42 4.9-6.072 7.81-8.675 1.583-1.428 3.268-2.96 4.697-4.592 2.706-3.01 5.31-6.123 7.862-9.235 2.757-3.368 5.667-6.94 8.781-10.256 4.748-5.256 10.21-10.001 15.418-14.747 4.85-4.388 9.904-8.93 14.498-13.828 3.778-3.98 6.79-8.317 9.751-12.5 3.318-4.797 6.688-9.593 11.282-14.033 7.658-7.653 15.673-15.97 22.106-25.206 5.513-7.96 7.964-15.716 10.67-23.88a139.845 139.845 0 0 1 2.603-7.807c2.042-5.97 5.769-11.582 9.393-17.042 2.145-3.266 4.289-6.531 6.076-9.848 6.84-12.501 12.66-25.002 17.408-37.146 1.276-3.47 2.45-6.94 3.727-10.307.51-1.48 1.02-2.858 1.531-4.286 2.349-6.48 4.85-13.063 7.3-19.44 6.944-18.523 14.244-37.606 17.97-55.006 2.4-11.123 4.493-23.012 1.94-34.697-8.678-40.208-47.63-82.15-83.366-89.804-16.54-3.47-37.37-3.266-58.658.714-35.328 6.634-48.397 23.676-46.61 60.873.408 8.674 1.225 17.45 1.94 25.92 1.685 18.319 3.318 35.667 1.327 52.404-1.072 9.643-4.288 18.267-6.585 23.828-5.208 12.502-17.052 33.881-31.857 57.046-14.6 22.809-34.153 39.392-53.808 45.617-37.267 11.787-87.144.102-116.193-27.299-14.55-13.725-30.018-37.197-21.39-70.771.51-2.041 1.378-4.082 2.297-6.276 1.225-2.603 2.349-5.358 3.012-8.317 4.493-7.807 10.108-14.747 15.622-21.533 12.354-15.308 23.994-29.697 19.553-50.31-.817-3.828-2.502-7.859-4.289-12.196-3.675-8.878-7.402-17.96-3.012-23.42 7.658-9.542 18.124-19.492 29.253-30.054 19.195-18.216 39.105-37.146 44.72-54.903 5.718-17.757-5.972-35.463-10.975-42.963-5.36-8.113-11.538-16.481-18.021-25.462-5.055-6.837-10.262-13.98-15.214-21.073-4.084-5.92-8.066-11.583-11.997-17.247-9.087-13.011-17.664-25.308-26.495-38.422-3.472-5.255-6.995-10.868-10.415-16.277-5.718-9.082-11.64-18.369-17.562-26.277-12.967-17.349-27.567-24.492-43.546-21.227-15.877 3.215-33.082 15.46-47.989 26.635-2.042 1.48-4.033 3.01-6.024 4.541-27.823 20.87-59.424 44.494-67.745 70.772-7.045 22.35 5.973 32.758 19.757 43.78 1.48 1.173 2.96 2.398 4.441 3.623 9.139 7.551 16.184 15.358 21.8 21.94 7.708 9.032 14.498 19.85 21.084 30.31 4.645 7.347 9.036 14.44 13.426 20.154 15.111 19.798 34.715 28.523 53.604 37.044 18.583 8.266 37.727 16.737 52.226 35.718 0 .714.05 1.327.05 2.041.052 1.99.154 3.98-.408 5.817-17.204 18.675-38.595 23.267-65.397 14.389-8.168-2.755-16.234-7.093-24.81-11.787-19.145-10.358-38.953-21.022-61.722-14.083-16.387 4.899-27.772 16.481-38.799 27.656-10.874 11.072-22.054 22.45-38.34 28.166-9.495 3.214-19.348 4.184-33.132 5.255-34.817 2.654-51.613 6.633-65.907 24.747-18.838 23.982-42.066 66.282-49.213 83.784-2.808 6.99-4.544 12.195-5.36 16.021-6.076 30.513 12.66 54.342 29.609 71.793 4.135 4.133 8.628 8.01 12.967 11.685 3.93 3.367 7.964 6.786 11.69 10.409 7.556 7.602 13.631 16.583 19.502 25.308 3.012 4.44 6.024 8.98 9.24 13.318 23.382 31.125 30.427 58.321 22.923 88.12-5.514 21.38-17.97 48.423-46.61 55.77-10.568 2.705-21.901 4.082-33.898 5.41-11.078 1.326-22.667 2.652-33.95 5.204-9.852 2.245-19.195 5.153-28.18 8.062-12.61 3.878-24.556 7.653-36.859 9.184-21.595 2.909-40.739-1.633-59.27-5.868-16.337-3.827-31.908-7.398-47.223-5.357v.663c15.264-2.092 30.733 1.53 47.07 5.307 18.582 4.337 37.777 8.776 59.525 5.918 12.406-1.581 24.3-5.306 36.961-9.286 8.934-2.806 18.328-5.715 28.18-7.96 11.283-2.551 22.719-3.878 33.797-5.154 12.048-1.428 23.381-2.704 33.949-5.46 22.973-5.918 39.258-25.359 47.07-56.229 7.657-30.054.56-57.352-22.923-88.784-3.165-4.286-6.228-8.827-9.24-13.164-5.922-8.776-11.997-17.859-19.655-25.41-3.727-3.725-7.76-7.144-11.64-10.46-4.339-3.726-8.831-7.552-12.916-11.736-16.847-17.247-35.48-40.923-29.405-71.18.766-3.776 2.501-8.93 5.31-15.87 7.044-17.45 30.222-59.699 49.06-83.578 14.09-17.91 30.886-21.992 65.447-24.594 13.835-1.072 23.688-1.99 33.337-5.358 16.387-5.613 27.67-17.145 38.595-28.166 11.435-11.685 22.207-22.706 38.441-27.554 22.565-6.786 42.271 3.827 61.262 14.083 8.628 4.644 16.694 9.083 24.862 11.787 27.16 9.032 48.754 4.286 66.265-14.542l.05-.153c.562-2.041.511-4.133.358-6.123V735.306l-.102-.102c-14.55-19.135-33.847-27.758-52.48-36.075-18.839-8.368-38.391-17.144-53.35-36.789-4.339-5.715-8.78-12.756-13.426-20.155-6.586-10.46-13.426-21.226-21.135-30.36-5.616-6.582-12.66-14.389-21.901-21.992-1.48-1.275-2.961-2.398-4.442-3.622-13.58-10.92-26.444-21.227-19.501-43.066 8.27-26.073 39.718-49.596 67.439-70.414 2.042-1.531 4.084-3.062 6.075-4.593 14.805-11.174 31.958-23.318 47.682-26.533 15.672-3.163 30.12 3.827 42.934 20.972 5.973 7.909 11.793 17.246 17.51 26.278 3.42 5.408 6.892 10.97 10.415 16.226 8.78 13.164 17.408 25.461 26.496 38.524 3.93 5.612 7.913 11.378 12.048 17.246a713.8 713.8 0 0 0 15.162 21.073c6.535 8.93 12.712 17.349 18.072 25.41 4.901 7.502 16.49 24.952 10.874 42.403-5.616 17.654-25.475 36.38-44.619 54.648-11.078 10.562-21.595 20.512-29.303 30.104-4.595 5.766-.766 15.053 3.012 24.084 1.736 4.286 3.42 8.368 4.186 12.042 4.441 20.308-7.198 34.595-19.45 49.75-5.463 6.837-11.18 13.879-15.673 21.685l-.051.153c-.613 2.909-1.787 5.613-2.961 8.215-.92 2.246-1.838 4.287-2.349 6.328-6.79 26.533.868 51.892 21.697 71.435 29.1 27.553 79.283 39.289 116.806 27.502 19.705-6.378 39.462-23.063 54.012-45.871 14.856-23.268 26.853-44.647 31.958-57.2 2.348-5.612 5.565-14.286 6.688-23.981 1.94-16.839.357-34.187-1.276-52.556-.817-8.47-1.583-17.247-1.991-25.87-.92-18.828 1.99-32.044 9.036-41.381 7.249-9.44 18.99-15.46 37.012-18.828 21.237-3.98 41.964-4.236 58.403-.664 35.531 7.552 74.228 49.29 82.856 89.243 2.502 11.532.408 23.319-1.889 34.391-3.778 17.4-11.027 36.432-18.021 54.852-2.4 6.43-4.9 13.011-7.25 19.492a233.179 233.179 0 0 1-1.582 4.337c-1.123 3.367-2.45 6.837-3.727 10.307-4.696 12.093-10.465 24.543-17.306 36.993-1.787 3.317-3.982 6.582-6.075 9.848-3.574 5.46-7.403 11.123-9.496 17.195a466.045 466.045 0 0 0-2.603 7.807c-2.604 8.113-5.105 15.869-10.466 23.676-6.483 9.235-14.498 17.552-22.156 25.104-4.544 4.44-7.964 9.389-11.334 14.083-2.858 4.235-5.922 8.521-9.648 12.552-4.544 4.797-9.649 9.389-14.499 13.726-5.258 4.745-10.619 9.593-15.52 14.848-3.012 3.317-5.972 6.838-8.78 10.256-2.502 3.062-5.105 6.174-7.76 9.185-1.48 1.582-3.114 3.112-4.697 4.592-2.96 2.653-5.87 5.307-7.862 8.878-2.705 4.49-4.645 9.39-6.534 14.134-2.45 6.123-5.003 12.45-8.832 17.961-13.07 18.88-35.685 30.513-69.277 35.82-14.754 2.347-30.937 3.419-46.66 4.49-25.884 1.735-50.286 3.317-67.695 10.154-10.261 4.031-19.45 10.358-28.231 16.481-9.955 6.99-19.349 13.573-28.844 15.359-18.379 3.52-30.427-11.277-41.097-24.39-4.288-5.205-8.27-10.205-12.558-13.88-3.523-3.112-6.637-6.275-9.547-9.49-5.514-5.715-10.568-11.123-18.327-15.46-9.394-5.256-19.553-9.44-29.253-13.42-2.144-.867-4.237-1.735-6.381-2.602-28.232-11.787-44.466-26.482-55.902-50.77-7.3-15.46-10.108-31.432-9.342-53.474.664-21.737-18.43-37.504-33.745-50.21l-.561-.407c-3.268-2.756-6.688-5.46-10.313-8.215-16.438-12.757-33.439-25.972-39.207-45.362-1.89-6.582-1.634-12.705-.613-19.797 4.799-34.647 29.865-60.873 65.397-68.272 11.537-2.398 22.105-3.674 32.264-4.95 9.598-1.224 18.736-2.398 27.517-4.337 5.003-1.122 11.13-2.908 16.592-4.49 2.603-.816 5.054-1.53 7.351-2.143 13.784-3.827 24.505-3.112 32.826 2.194 15.57 9.797 20.778 34.29 26.036 65.108 1.072 6.582 3.319 13.267 5.667 20.308 4.442 13.369 9.087 27.146 5.565 40.055-2.298 8.368-7.556 16.532-12.661 24.492-11.589 18.165-22.616 35.31-.357 53.423 5.258 4.337 10.67 8.368 15.979 12.246 20.42 15.002 39.718 29.238 45.027 57.71 4.799 25.41 21.186 41.279 48.856 47.045 55.8 11.838 99.703 12.91 130.334 3.367 23.943-7.551 42.169-25.461 48.703-48.116 7.198-24.85 18.838-51.79 35.583-82.559 5.105-9.286 11.487-20.104 19.91-29.747 5.922-6.787 13.018-12.706 19.91-18.42 5.463-4.593 11.078-9.287 16.183-14.39a443.44 443.44 0 0 1 10.925-10.97c9.751-9.695 19.86-19.747 28.947-30.36 16.08-18.88 28.282-43.27 37.165-74.497l.919-3.112c5.462-18.828 12.201-42.3 3.727-64.853-10.67-28.217-37.115-48.32-67.49-51.23-23.433-2.193-36.86 7.91-40.74 31.024-1.94 10.97-.97 21.686-.05 32.044.255 3.214.51 6.225.714 9.184.307 4.133.613 8.164.92 12.144.867 10.256 1.786 20.819 1.071 31.636-2.348 33.676-12.558 46.33-31.856 67.557-19.552 21.43-42.117 45.157-63.1 54.903-13.221 6.174-48.6 19.798-90.207 12.552-71.42-12.348-112.568-47.351-122.523-104.09-1.072-6.226-1.685-11.94-2.195-17.962-.766-6.99-1.48-14.185-3.115-23.267-2.552-14.032-12.507-29.238-27.414-41.84-14.754-12.349-31.754-20.156-46.763-21.38-17.358-1.327-30.58 8.725-41.199 16.889l-1.531 1.225c-11.078 8.419-21.39 15.817-35.787 21.175-9.24 3.368-22.054 5.562-34.409 7.756-9.802 1.684-19.144 3.316-26.7 5.46-42.679 12.246-63.1 60.515-69.94 80.67l-.46 1.684c-3.114 8.98-6.84 20.104-4.084 33.064 4.136 19.543 19.91 35.922 32.418 46.229 28.385 23.523 45.895 57.2 59.117 87.15 2.86 6.43 4.238 13.472 5.514 20.309 1.378 7.092 2.757 14.44 5.87 21.277 6.842 15.257 15.265 27.248 24.965 35.667 9.087 7.909 20.216 13.266 30.886 18.42 8.22 4.03 16.694 8.164 24.198 13.369 15.06 10.46 29.865 24.44 24.914 48.167-2.451 11.89-13.53 23.37-23.382 33.524a307.224 307.224 0 0 0-7.147 7.551c-13.886 15.257-22.667 25.513-27.925 42.606-3.88 12.757-4.187 35.565-.613 51.995 2.808 13.164 6.33 25.87 9.853 38.116h.715c-3.574-12.297-7.045-25.003-9.955-38.27-3.472-16.327-3.217-38.982.612-51.637" mask="url(#B)"/>
            </g>
        </g>
    </g>
</svg>
