<?xml version="1.0" encoding="iso-8859-1"?>
<!-- Generator: Adobe Illustrator 19.0.0, SVG Export Plug-In . SVG Version: 6.00 Build 0)  -->
<svg version="1.1" id="Capa_1" xmlns="http://www.w3.org/2000/svg" xmlns:xlink="http://www.w3.org/1999/xlink" x="0px" y="0px"
	 viewBox="0 0 58 58" style="enable-background:new 0 0 58 58;" xml:space="preserve">
<g>
	<path d="M54,27.102V20c0-4.963-4.041-9-9.007-9H13.007C8.04,11,4,15.037,4,20v7.102c-2.28,0.467-4,2.49-4,4.908V38
		c0,0.553,0.448,1,1,1h1v2v6h2v-5h50v5h2v-6v-2h1c0.552,0,1-0.447,1-1v-5.99C58,29.592,56.28,27.569,54,27.102z M6,20
		c0-3.859,3.144-7,7.007-7h31.985C48.856,13,52,16.141,52,20v7h-5v-6c0-0.409-0.249-0.776-0.628-0.929
		C46.16,19.987,41.162,18,38.5,18s-7.66,1.987-7.872,2.071C30.249,20.224,30,20.591,30,21v6h-2v-6c0-0.409-0.249-0.776-0.628-0.929
		C27.16,19.987,22.162,18,19.5,18s-7.66,1.987-7.872,2.071C11.249,20.224,11,20.591,11,21v6H6V20z M45,27H32v-5.314
		C33.674,21.06,36.849,20,38.5,20c1.649,0,4.825,1.06,6.5,1.687V27z M26,27H13v-5.314C14.674,21.06,17.849,20,19.5,20
		c1.649,0,4.825,1.06,6.5,1.687V27z M54,40H4v-1h50V40z M56,37h-1H3H2v-4.99C2,30.351,3.348,29,5.005,29H12h15h4h15h6.995
		C54.652,29,56,30.351,56,32.01V37z"/>
</g>
<g>
</g>
<g>
</g>
<g>
</g>
<g>
</g>
<g>
</g>
<g>
</g>
<g>
</g>
<g>
</g>
<g>
</g>
<g>
</g>
<g>
</g>
<g>
</g>
<g>
</g>
<g>
</g>
<g>
</g>
</svg>
