<svg xmlns="http://www.w3.org/2000/svg" xmlns:xlink="http://www.w3.org/1999/xlink" width="219" height="62" viewBox="0 0 219 62">
    <defs>
        <path id="a" d="M0 6.272v5.915h10.847V.357H0z"/>
        <linearGradient id="c" x1="73.722%" x2=".194%" y1="20.145%" y2="114.521%">
            <stop offset="0%" stop-color="#FFF" stop-opacity=".8"/>
            <stop offset="100%"/>
        </linearGradient>
        <linearGradient id="d" x1="-15%" x2="114%" y1="54.392%" y2="54.392%">
            <stop offset="0%" stop-color="#FFF"/>
            <stop offset="100%"/>
        </linearGradient>
        <linearGradient id="e" x1="80.159%" x2=".223%" y1="89.693%" y2="-15.005%">
            <stop offset="10.09%" stop-color="#FFF"/>
            <stop offset="100%"/>
        </linearGradient>
    </defs>
    <g fill="none" fill-rule="evenodd">
        <g transform="translate(68 24.488)">
            <mask id="b" fill="#fff">
                <use xlink:href="#a"/>
            </mask>
            <path fill="#231F20" d="M2.965 11.431A5.55 5.55 0 0 1 .79 9.327C.263 8.427 0 7.409 0 6.272c0-1.138.263-2.156.79-3.055a5.562 5.562 0 0 1 2.175-2.104C3.887.609 4.928.357 6.087.357 7.1.357 8.012.54 8.823.909a5.29 5.29 0 0 1 2.024 1.593L8.854 4.354c-.717-.888-1.586-1.332-2.608-1.332-.6 0-1.136.136-1.605.406-.47.27-.834.653-1.091 1.146-.259.493-.388 1.06-.388 1.698 0 .64.13 1.205.388 1.698a2.78 2.78 0 0 0 1.09 1.146c.47.27 1.006.406 1.606.406 1.022 0 1.891-.444 2.608-1.333l1.993 1.853a5.281 5.281 0 0 1-2.024 1.592c-.811.368-1.724.554-2.736.554-1.16 0-2.2-.253-3.122-.757" mask="url(#b)"/>
        </g>
        <path fill="#2D303D" d="M82.61 25.073h3.13v8.824h5.282v2.55H82.61zM101.251 31.866l-1.423-3.64-1.424 3.64h2.847zm.917 2.372h-4.68l-.87 2.21h-3.193l4.885-11.375h3.084l4.901 11.375h-3.257l-.87-2.21zM115.877 28.047c-.327-.293-.812-.44-1.455-.44h-1.739v3.332h1.739c.643 0 1.128-.144 1.455-.43.326-.287.49-.697.49-1.227 0-.53-.164-.944-.49-1.235zm-1.487 5.378h-1.707v3.023h-3.13V25.073h5.058c1.002 0 1.872.17 2.61.512.738.341 1.307.829 1.707 1.462.4.634.6 1.38.6 2.235 0 .823-.186 1.541-.56 2.153-.374.612-.909 1.092-1.605 1.437l2.387 3.576h-3.352l-2.008-3.023zM127.894 32.32l-1.17 1.285v2.844h-3.098V25.073h3.099V29.8l4.284-4.728h3.447l-4.522 5.037 4.76 6.339h-3.638zM146.772 33.962v2.487h-8.885V25.073h8.68v2.486h-5.581v1.917h4.916v2.405h-4.916v2.081zM158.963 30.923h1.866v3.884c-1.043 1.181-2.535 1.77-4.475 1.77-1.634 0-3.001-.55-4.103-1.657-1.102-1.105-1.652-2.502-1.652-4.192 0-1.69.561-3.099 1.684-4.225 1.123-1.127 2.48-1.69 4.071-1.69 1.592 0 2.915.476 3.97 1.43l-.997 1.462c-.432-.379-.867-.641-1.304-.789-.438-.145-.947-.218-1.526-.218-1.117 0-2.056.371-2.815 1.113-.759.742-1.138 1.717-1.138 2.925 0 1.208.37 2.178 1.107 2.909.737.731 1.63 1.097 2.68 1.097 1.048 0 1.926-.233 2.632-.7v-3.12zM171.992 30.387c.38-.336.569-.875.569-1.617s-.195-1.252-.585-1.528c-.39-.276-1.086-.414-2.087-.414h-2.372v4.062h2.324c1.054 0 1.772-.168 2.15-.503m2.483-1.61c0 1.875-.796 3.056-2.387 3.543l2.893 4.128h-2.372l-2.64-3.819h-2.451v3.819h-1.866v-11.36h4.111c1.687 0 2.894.294 3.621.879.727.585 1.091 1.522 1.091 2.81M187.416 27.77c-.754-.801-1.68-1.202-2.775-1.202-1.097 0-2.022.4-2.776 1.203-.754.8-1.13 1.774-1.13 2.916 0 1.143.376 2.115 1.13 2.917.754.802 1.68 1.204 2.776 1.204 1.095 0 2.021-.402 2.775-1.204.753-.802 1.13-1.774 1.13-2.917 0-1.142-.377-2.115-1.13-2.916m1.366 7.109c-1.117 1.121-2.497 1.682-4.141 1.682-1.645 0-3.026-.56-4.143-1.682-1.118-1.12-1.676-2.52-1.676-4.193 0-1.674.558-3.07 1.676-4.192 1.117-1.121 2.498-1.683 4.143-1.683 1.644 0 3.024.562 4.141 1.683 1.118 1.121 1.677 2.518 1.677 4.192 0 1.673-.559 3.073-1.677 4.193M197.67 33.848c.506.607 1.191.91 2.055.91.864 0 1.55-.303 2.056-.91s.759-1.43.759-2.47v-6.29h1.866v6.371c0 1.636-.438 2.896-1.313 3.778-.875.884-1.998 1.325-3.368 1.325-1.37 0-2.493-.441-3.367-1.325-.876-.882-1.313-2.142-1.313-3.778v-6.37h1.866v6.288c0 1.041.253 1.864.759 2.471M215.845 30.768c.374-.406.561-1 .561-1.787 0-.785-.237-1.34-.712-1.666-.474-.324-1.216-.487-2.229-.487h-1.897v4.55h2.166c1.033 0 1.736-.204 2.11-.61m1.32-4.688c.77.661 1.155 1.68 1.155 3.055 0 1.376-.393 2.384-1.178 3.023-.786.639-1.99.96-3.613.96h-1.96v3.33h-1.866v-11.36h3.795c1.676 0 2.898.332 3.668.992"/>
        <g>
            <path fill="#231F20" fill-rule="nonzero" d="M51.29 9.025C51.29 4.003 47.274 0 42.31 0H9.06C4.019 0 0 4.003 0 8.947v30.686c.158 1.883 1.103 3.61 2.442 4.866L21.51 60.195a6.29 6.29 0 0 0 7.327 0l19.776-15.696c1.576-1.177 2.521-2.904 2.6-4.866.158-.236.079-30.608.079-30.608z"/>
            <path stroke="#FFF" stroke-linecap="round" stroke-width="2" d="M24.503 20.327l-9.06 22.21"/>
            <path fill="url(#c)" fill-opacity=".7" fill-rule="nonzero" d="M5.594 12.478l-1.497-.706L8.824.314l1.418.785z" transform="translate(14.97 19.62)"/>
            <g stroke-linecap="round" stroke-width="2">
                <path stroke="#FFF" d="M38.37 27.547c-5.358 6.75-15.128 8.083-22.14 3.06-1.182-.863-2.285-1.961-3.23-3.139"/>
                <path stroke="url(#d)" d="M18.594 5.236l-.236.079c-1.655.55-3.467.863-5.28.863" opacity=".7" transform="rotate(-.2 7891.235 -3591.896)"/>
            </g>
            <path stroke="#FFF" stroke-linecap="round" stroke-width="2" d="M26.867 20.327l9.06 22.21"/>
            <path fill="url(#e)" fill-opacity=".7" fill-rule="nonzero" d="M1.812 1.02l-1.497.55 4.649 11.38 1.497-.628z" transform="translate(26 19.62)"/>
            <ellipse cx="25.685" cy="17.815" stroke="#FFF" stroke-linecap="round" stroke-width="2.5" rx="2.836" ry="2.825"/>
            <path stroke="#FFF" stroke-linecap="round" stroke-width="2.5" d="M25.685 10.438v4.395"/>
        </g>
    </g>
</svg>
