<svg xmlns="http://www.w3.org/2000/svg" width="218" height="61" viewBox="0 0 218 61">
    <g fill="none" fill-rule="evenodd">
        <g fill="#FFF">
            <path d="M69.965 35.239a5.418 5.418 0 0 1-2.174-1.985c-.528-.848-.791-1.807-.791-2.88 0-1.072.263-2.032.79-2.88a5.429 5.429 0 0 1 2.175-1.985c.922-.474 1.963-.712 3.122-.712 1.012 0 1.925.174 2.736.52a5.253 5.253 0 0 1 2.024 1.502l-1.993 1.747c-.717-.837-1.586-1.256-2.608-1.256-.6 0-1.136.128-1.605.383a2.7 2.7 0 0 0-1.091 1.08c-.259.465-.388.999-.388 1.601 0 .603.13 1.136.388 1.601.257.465.622.825 1.09 1.08.47.255 1.006.383 1.606.383 1.022 0 1.891-.418 2.608-1.256l1.993 1.747a5.246 5.246 0 0 1-2.024 1.501c-.811.347-1.724.522-2.736.522-1.16 0-2.2-.238-3.122-.713M81.61 25.011h3.13v8.32h5.282v2.405H81.61zM100.251 31.416l-1.423-3.432-1.424 3.432h2.847zm.917 2.237h-4.68l-.87 2.084h-3.193l4.885-10.725h3.084l4.901 10.725h-3.257l-.87-2.084zM114.877 27.815c-.327-.275-.812-.413-1.455-.413h-1.739v3.14h1.739c.643 0 1.128-.135 1.455-.405.326-.27.49-.657.49-1.157s-.164-.89-.49-1.165zm-1.487 5.072h-1.707v2.85h-3.13V25.012h5.058c1.002 0 1.872.16 2.61.482.738.322 1.307.782 1.707 1.38.4.597.6 1.3.6 2.106 0 .776-.186 1.453-.56 2.03-.374.577-.909 1.03-1.605 1.355l2.387 3.372h-3.352l-2.008-2.85zM126.894 31.845l-1.17 1.211v2.681h-3.098V25.011h3.099v4.459l4.284-4.459h3.447l-4.522 4.75 4.76 5.976h-3.638zM145.772 33.393v2.344h-8.885V25.011h8.68v2.345h-5.581v1.808h4.916v2.267h-4.916v1.962zM157.963 30.527h1.866v3.663c-1.043 1.113-2.535 1.67-4.475 1.67-1.634 0-3.001-.521-4.103-1.564-1.102-1.041-1.652-2.36-1.652-3.953s.561-2.921 1.684-3.983c1.123-1.063 2.48-1.594 4.071-1.594 1.592 0 2.915.45 3.97 1.349l-.997 1.379c-.432-.358-.867-.606-1.304-.744-.438-.137-.947-.206-1.526-.206-1.117 0-2.056.35-2.815 1.05-.759.699-1.138 1.618-1.138 2.757 0 1.14.37 2.053 1.107 2.743s1.63 1.035 2.68 1.035c1.048 0 1.926-.22 2.632-.66v-2.942zM170.992 30.022c.38-.317.569-.825.569-1.525s-.195-1.18-.585-1.44c-.39-.26-1.086-.39-2.087-.39h-2.372v3.83h2.324c1.054 0 1.772-.159 2.15-.475m2.483-1.517c0 1.767-.796 2.88-2.387 3.34l2.893 3.892h-2.372l-2.64-3.601h-2.451v3.6h-1.866v-10.71h4.111c1.687 0 2.894.277 3.621.828.727.552 1.091 1.436 1.091 2.65M186.416 27.555c-.754-.756-1.68-1.134-2.775-1.134-1.097 0-2.022.378-2.776 1.134-.754.755-1.13 1.673-1.13 2.75s.376 1.994 1.13 2.75c.754.757 1.68 1.135 2.776 1.135 1.095 0 2.021-.378 2.775-1.134.753-.757 1.13-1.674 1.13-2.75 0-1.078-.377-1.996-1.13-2.75m1.366 6.702c-1.117 1.057-2.497 1.586-4.141 1.586-1.645 0-3.026-.529-4.143-1.586-1.118-1.056-1.676-2.375-1.676-3.953 0-1.579.558-2.895 1.676-3.953 1.117-1.057 2.498-1.586 4.143-1.586 1.644 0 3.024.53 4.141 1.586 1.118 1.058 1.677 2.374 1.677 3.953 0 1.578-.559 2.897-1.677 3.953M196.67 33.285c.506.573 1.191.858 2.055.858.864 0 1.55-.285 2.056-.858.506-.572.759-1.348.759-2.33v-5.929h1.866v6.007c0 1.542-.438 2.73-1.313 3.562-.875.833-1.998 1.249-3.368 1.249-1.37 0-2.493-.416-3.367-1.249-.876-.832-1.313-2.02-1.313-3.562v-6.007h1.866v5.93c0 .981.253 1.757.759 2.33M214.845 30.381c.374-.383.561-.943.561-1.685 0-.74-.237-1.264-.712-1.57-.474-.306-1.216-.46-2.229-.46h-1.897v4.29h2.166c1.033 0 1.736-.192 2.11-.575m1.32-4.42c.77.624 1.155 1.584 1.155 2.88 0 1.298-.393 2.248-1.178 2.85-.786.603-1.99.905-3.613.905h-1.96v3.141h-1.866v-10.71h3.795c1.676 0 2.898.311 3.668.934"/>
        </g>
        <g>
            <path fill="#FFF" fill-rule="nonzero" d="M50.98 8.97c0-4.992-3.993-8.97-8.927-8.97H9.006C3.994 0 0 3.978 0 8.893v30.5c.157 1.872 1.096 3.588 2.428 4.836l18.95 15.6a6.251 6.251 0 0 0 7.284 0l19.656-15.6c1.566-1.17 2.506-2.886 2.584-4.836.157-.234.078-30.422.078-30.422z"/>
            <path stroke="#2D303D" stroke-linecap="round" stroke-width="2" d="M24.505 20.627l-9.103 22.298M38.324 27.467c-5.383 6.776-15.199 8.115-22.244 3.072-1.187-.866-2.295-1.97-3.245-3.151M26.993 20.627l9.103 22.298"/>
            <ellipse cx="25.5" cy="18.051" stroke="#2D303D" stroke-linecap="round" stroke-width="2.5" rx="3.11" ry="3.112"/>
            <path stroke="#2D303D" stroke-linecap="round" stroke-width="2.5" d="M26.122 9.96v4.979"/>
        </g>
    </g>
</svg>
