<?xml version="1.0" encoding="UTF-8"?>
<svg width="33px" height="48px" viewBox="0 0 33 48" version="1.1" xmlns="http://www.w3.org/2000/svg" xmlns:xlink="http://www.w3.org/1999/xlink">
    <!-- Generator: Sketch 48.2 (47327) - http://www.bohemiancoding.com/sketch -->
    <title>2I Copy</title>
    <desc>Created with Sketch.</desc>
    <defs></defs>
    <g id="map" stroke="none" stroke-width="1" fill="none" fill-rule="evenodd" transform="translate(-704.000000, -979.000000)">
        <path d="M720.174,999.82 C717.747,999.82 715.773,997.84 715.773,995.41 C715.773,992.99 717.747,991.01 720.174,991.01 C722.601,991.01 724.576,992.99 724.576,995.41 C724.576,997.84 722.601,999.82 720.174,999.82 Z M720.174,988.01 C716.093,988.01 712.773,991.33 712.773,995.41 C712.773,999.5 716.093,1002.82 720.174,1002.82 C724.256,1002.82 727.576,999.5 727.576,995.41 C727.576,991.33 724.256,988.01 720.174,988.01 Z M736.548,993.66 C736.742,995.52 736.531,997.56 735.885,1000.11 C735.428,1001.9 734.058,1004.76 733.067,1006.3 C732.517,1007.22 721.544,1025.9 721.433,1026.09 C721.163,1026.55 720.671,1026.83 720.14,1026.83 C720.136,1026.83 720.133,1026.83 720.129,1026.83 C719.593,1026.83 719.1,1026.54 718.835,1026.07 L706.515,1004.4 C706.513,1004.39 706.51,1004.39 706.508,1004.38 L706.439,1004.26 C706.136,1003.72 705.426,1002.46 704.918,1000.85 C704.301,998.9 704,997.04 704,995.18 C704,986.26 711.256,979 720.174,979 C728.637,979 735.676,985.31 736.548,993.66 Z" id="2I-Copy" fill="#3A4F7D"></path>
    </g>
</svg>